<svg width="498" height="503" viewBox="0 0 498 503" fill="none" xmlns="http://www.w3.org/2000/svg">
<g opacity="0.6">
<path d="M42.4343 226.486C41.8982 224.913 41.1641 223.409 40.5115 221.824C38.7165 218.189 36.4647 214.798 33.8108 211.733C33.0375 210.932 32.1865 210.209 31.2704 209.577C30.0875 208.601 28.5679 208.131 27.0409 208.269C25.5139 208.406 24.1026 209.14 23.113 210.311C21.3332 212.136 19.987 214.339 19.1742 216.755C17.263 221.999 16.354 227.395 18.0088 232.814C18.749 235.459 20.1024 237.893 21.959 239.918C23.8156 241.942 26.1234 243.501 28.695 244.467C34.8246 246.798 40.6979 243.838 42.679 237.556C43.7993 233.937 43.7134 230.052 42.4343 226.486Z" fill="#EBEBEB"/>
<path d="M71.4395 223.91C72.372 220.929 72.4887 217.753 71.7776 214.712C71.0664 211.67 69.5534 208.875 67.3958 206.617C63.1958 202.007 57.4644 199.079 51.2675 198.378C50.1503 198.254 49.0213 198.281 47.9114 198.459C46.5627 198.57 45.3 199.166 44.3572 200.137C43.4144 201.108 42.8554 202.387 42.7839 203.738C42.5424 206.763 42.9886 209.803 44.0891 212.63C44.7999 214.786 45.6506 216.907 46.4197 219.039C47.9043 222.937 50.4419 226.346 53.7497 228.886C55.9073 230.542 58.5156 231.505 61.2312 231.648C63.5643 231.735 65.8556 231.011 67.7163 229.601C69.5769 228.191 70.8924 226.18 71.4395 223.91Z" fill="#EBEBEB"/>
<path d="M93.2546 240.854C97.4032 235.983 98.2189 230.366 96.2262 224.342C95.9667 223.689 95.671 223.051 95.3406 222.43C93.572 218.48 90.6726 215.143 87.0084 212.84C86.6317 212.623 86.2426 212.428 85.8431 212.257C82.0674 210.567 79.0725 211.593 77.1613 215.287C75.8575 218.018 75.1088 220.981 74.9588 224.004C74.6209 227.942 74.4577 231.881 75.8794 235.657C76.6816 237.973 78.0661 240.044 79.8999 241.67C80.8035 242.547 81.8801 243.226 83.0608 243.663C84.2415 244.1 85.5005 244.286 86.7573 244.21C88.014 244.133 89.2409 243.795 90.3597 243.217C91.4784 242.639 92.4644 241.835 93.2546 240.854Z" fill="#EBEBEB"/>
<path d="M36.6775 281.28C36.8756 281.863 37.1203 282.445 37.4117 283.168C40.1735 288.458 44.8349 290.836 50.813 290.719C57.1292 290.591 62.4664 287.899 66.9296 283.646C69.7783 280.871 73.4672 279.121 77.4177 278.67C83.3673 278.11 88.8942 275.351 92.9167 270.932C96.4127 267.051 97.9043 262.565 96.4127 257.402C95.8573 255.477 94.9131 253.687 93.6383 252.141C92.3635 250.596 90.7852 249.329 89.0011 248.417C87.0017 247.331 84.8819 246.482 82.685 245.889C77.8947 244.632 73.3436 242.597 69.2137 239.864C67.2508 238.53 65.0356 237.613 62.7046 237.169C60.3737 236.724 57.9764 236.762 55.6605 237.279C53.3447 237.797 51.1594 238.783 49.2394 240.178C47.3194 241.572 45.7054 243.345 44.4969 245.388C42.9011 248.012 42.0473 251.021 42.0264 254.093C41.9902 258.157 40.9151 262.144 38.9033 265.676C36.3101 269.953 35.3848 275.035 36.3046 279.951C36.4061 280.4 36.5306 280.844 36.6775 281.28Z" fill="#EBEBEB"/>
<path d="M11.7626 261.423C14.8974 267.809 19.5005 271.235 25.9448 271.911C32.3891 272.587 37.2602 267.96 36.7241 261.504C36.5359 259.255 35.8084 257.085 34.6032 255.176C31.7715 250.632 27.5063 247.73 22.9499 245.236C21.3151 244.354 19.566 243.703 17.7525 243.302C14.0117 242.463 11.3314 244.164 10.2826 247.846C9.47742 251.038 9.54989 254.388 10.4924 257.542C10.877 259.057 11.4596 260.537 11.7626 261.423Z" fill="#EBEBEB"/>
<g opacity="0.5">
<path d="M114.487 39.3677C114.417 36.7807 114.033 34.182 113.788 31.5949C112.518 25.3953 111.306 19.1841 108.497 13.439C107.742 11.8623 106.829 10.3669 105.77 8.97573C102.449 4.7106 98.1607 3.82494 93.3595 6.29545C89.8618 8.18899 86.8317 10.8407 84.4913 14.0566C79.189 20.967 75.3317 28.5767 75.3201 37.4332C75.3084 46.2898 78.618 54.1325 85.8081 59.7727C93.8489 66.1122 103.976 64.4341 109.826 56.0204C113.144 51.1218 114.78 45.2772 114.487 39.3677Z" fill="#EBEBEB"/>
<path d="M158.875 49.0633C164.492 40.2767 165.354 30.8724 160.902 21.4099C156.798 12.5785 149.625 5.53855 140.719 1.59914C139.115 0.889695 137.421 0.403499 135.685 0.154129C131.023 -0.580033 127.609 1.31946 125.593 5.61956C123.577 9.91965 123.262 14.7208 123.332 19.4404C123.332 22.9365 123.67 26.549 123.845 30.1033C124.532 36.6408 126.175 42.8288 130.161 48.1893C132.608 51.6555 136.044 54.3033 140.02 55.7873C143.455 57.0227 147.212 57.0277 150.651 55.8014C154.09 54.5752 156.996 52.1937 158.875 49.0633Z" fill="#EBEBEB"/>
<path d="M183.463 84.4779C191.912 79.1523 195.746 71.193 195.594 61.276C195.52 60.1804 195.376 59.0906 195.163 58.0131C194.376 51.3104 191.618 44.9919 187.239 39.8571C186.813 39.3635 186.354 38.9002 185.864 38.4704C181.016 34.182 176.087 34.3218 171.519 38.9249C168.282 42.3787 165.766 46.4434 164.119 50.8812C161.788 56.5914 159.702 62.3831 160.028 68.7225C160.15 72.5468 161.245 76.2768 163.21 79.5602C167.766 86.9018 176.203 89.046 183.463 84.4779Z" fill="#EBEBEB"/>
<path d="M80.3427 118.284C80.3427 119.24 80.4709 120.195 80.5641 121.431C82.2072 130.614 88.0339 136.324 96.9953 138.911C106.446 141.661 115.641 140.076 124.288 135.904C129.817 133.102 136.119 132.208 142.21 133.364C151.533 135.065 160.623 134.051 168.908 129.099C175.9 124.938 180.247 118.949 180.492 110.581C180.562 107.458 179.991 104.353 178.814 101.459C177.638 98.565 175.881 95.9427 173.651 93.754C171.181 91.2069 168.424 88.9544 165.436 87.0416C158.882 82.9326 153.054 77.7663 148.189 71.7524C145.892 68.8413 143.024 66.4315 139.76 64.6718C136.497 62.9121 132.907 61.8397 129.213 61.5209C125.519 61.202 121.799 61.6434 118.282 62.8179C114.765 63.9924 111.526 65.875 108.765 68.3496C105.161 71.5104 102.483 75.5905 101.016 80.1545C99.0719 86.1933 95.6136 91.6335 90.9706 95.9564C85.1439 101.399 81.2866 107.924 80.4825 116C80.3872 116.758 80.3405 117.521 80.3427 118.284Z" fill="#EBEBEB"/>
<path d="M52.5028 77.0896C54.1809 88.0555 59.4948 95.3155 68.7359 99.3126C78.2567 103.403 87.3813 98.7183 89.6421 88.8246C90.4123 85.3896 90.3404 81.8193 89.4323 78.4181C87.3463 70.319 82.3471 64.0146 76.7301 58.1646C74.6999 56.0947 72.3941 54.3145 69.8779 52.874C64.7039 49.8674 59.926 51.1493 56.6397 56.1485C53.9539 60.5299 52.4967 65.5534 52.4212 70.6919C52.2464 73.1508 52.4795 75.6097 52.5028 77.0896Z" fill="#EBEBEB"/>
</g>
<path d="M425.154 166.424C425.958 164.968 426.599 163.418 427.31 161.903C428.81 158.138 429.828 154.199 430.34 150.18C430.456 149.064 430.456 147.939 430.34 146.823C430.264 145.307 429.6 143.879 428.487 142.845C427.375 141.812 425.903 141.253 424.385 141.288C421.84 141.182 419.303 141.648 416.962 142.651C411.776 144.726 407.161 147.651 404.248 152.522C402.77 154.839 401.859 157.473 401.59 160.208C401.321 162.944 401.7 165.704 402.698 168.266C405.029 174.384 411.182 176.784 417.16 174.092C420.585 172.471 423.391 169.779 425.154 166.424Z" fill="#EBEBEB"/>
<path d="M446.375 186.293C449.216 184.997 451.658 182.964 453.448 180.404C455.237 177.844 456.307 174.852 456.548 171.738C457.156 165.54 455.5 159.331 451.887 154.258C451.229 153.337 450.445 152.513 449.556 151.811C448.576 150.88 447.291 150.337 445.94 150.283C444.59 150.23 443.265 150.669 442.215 151.52C439.773 153.337 437.78 155.689 436.388 158.395C435.223 160.365 434.244 162.416 433.183 164.432C431.271 168.137 430.424 172.3 430.736 176.458C430.946 179.171 431.969 181.758 433.673 183.881C435.175 185.703 437.268 186.941 439.588 187.382C441.908 187.822 444.309 187.437 446.375 186.293Z" fill="#EBEBEB"/>
<path d="M448.309 213.854C454.719 213.69 459.427 210.567 462.596 205.055C462.915 204.426 463.191 203.775 463.424 203.109C465.193 199.161 465.745 194.775 465.009 190.512C464.934 190.117 464.833 189.728 464.706 189.347C463.447 185.396 460.685 183.869 456.665 184.907C453.756 185.752 451.046 187.171 448.694 189.078C445.536 191.409 442.494 193.961 440.595 197.562C439.411 199.702 438.794 202.109 438.8 204.554C438.763 205.803 438.985 207.047 439.453 208.206C439.92 209.365 440.623 210.414 441.517 211.288C442.41 212.162 443.475 212.841 444.644 213.283C445.813 213.724 447.061 213.919 448.309 213.854Z" fill="#EBEBEB"/>
<path d="M380.452 198.692C380.149 199.229 379.892 199.788 379.543 200.499C377.434 206.092 378.785 211.15 382.852 215.52C387.064 219.909 392.799 222.516 398.876 222.803C402.837 223.076 406.598 224.649 409.574 227.278C413.95 231.361 419.693 233.663 425.679 233.734C430.876 233.734 435.246 231.858 438.124 227.325C439.185 225.628 439.887 223.732 440.185 221.754C440.484 219.776 440.373 217.757 439.861 215.823C439.336 213.611 438.553 211.467 437.53 209.437C435.261 204.997 433.741 200.213 433.032 195.278C432.72 192.924 431.929 190.658 430.708 188.621C429.487 186.583 427.862 184.818 425.933 183.432C424.004 182.047 421.812 181.071 419.491 180.565C417.171 180.059 414.771 180.033 412.44 180.49C409.413 181.056 406.595 182.429 404.283 184.464C401.234 187.146 397.553 189.007 393.585 189.871C388.668 190.786 384.264 193.489 381.221 197.457C380.938 197.852 380.681 198.265 380.452 198.692Z" fill="#EBEBEB"/>
<path d="M378.611 166.89C375.942 173.475 376.466 179.196 380.277 184.452C384.088 189.708 390.765 190.279 395.217 185.536C396.767 183.888 397.895 181.889 398.503 179.709C400.006 174.582 399.319 169.466 398.142 164.408C397.7 162.604 397.018 160.868 396.114 159.246C394.238 155.89 391.185 155.039 387.747 156.717C384.832 158.245 382.384 160.532 380.662 163.336C379.788 164.653 379.088 166.063 378.611 166.89Z" fill="#EBEBEB"/>
</g>
<path d="M51.8735 154.107H36.6659V140.228H22.7751V125.078H36.6659V111.117H51.8735V125.02H65.7643V140.169H51.8735V154.107ZM38.9965 151.776H49.5428V137.897H63.4336V127.409H49.5428V113.448H38.9965V127.351H25.1057V137.839H38.9965V151.776Z" fill="#FFC727"/>
<path d="M88.8496 183.252H77.4643V173.475H67.6755V162.089H77.4643V152.3H88.8496V162.089H98.6385V173.475H88.8496V183.252ZM79.795 180.921H86.519V171.144H96.3078V164.42H86.519V154.631H79.795V164.42H70.0061V171.144H79.795V180.921Z" fill="#FFC727"/>
<path d="M431.097 45.2293H419.7V35.4638H409.923V24.0668H419.7V14.278H431.097V24.0668H440.874V35.4638H431.097V45.2293ZM422.031 42.8987H428.767V33.1332H438.544V26.3975H428.767V16.6087H422.031V26.3975H412.254V33.1332H422.031V42.8987Z" fill="#FFC727"/>
<path d="M165.396 13.2094L88.4684 114.521L98.5197 122.153L175.447 20.8416L165.396 13.2094Z" fill="#FFC727"/>
<path d="M115.606 131.383C115.468 131.551 115.275 131.664 115.06 131.701C114.846 131.737 114.626 131.695 114.44 131.581L99.291 121.209L101.482 118.331L115.548 130.159C115.713 130.316 115.811 130.531 115.822 130.759C115.833 130.987 115.756 131.21 115.606 131.383Z" fill="#FFC727"/>
<path d="M119.277 126.523C119.138 126.69 118.943 126.801 118.729 126.835C118.515 126.869 118.295 126.825 118.111 126.71L102.962 116.35L105.153 113.471L119.137 125.358C119.296 125.503 119.398 125.701 119.424 125.915C119.449 126.128 119.397 126.345 119.277 126.523Z" fill="#FFC727"/>
<path d="M122.936 121.722C122.8 121.893 122.606 122.007 122.391 122.044C122.176 122.08 121.955 122.036 121.77 121.92L106.621 111.56L108.8 108.682L122.866 120.498C123.03 120.656 123.129 120.869 123.142 121.096C123.155 121.324 123.081 121.547 122.936 121.722Z" fill="#FFC727"/>
<path d="M126.607 116.898C126.469 117.066 126.275 117.179 126.061 117.216C125.847 117.252 125.626 117.209 125.441 117.096L110.292 106.724L112.483 103.846L126.537 115.674C126.704 115.83 126.804 116.044 126.817 116.272C126.83 116.5 126.755 116.724 126.607 116.898Z" fill="#FFC727"/>
<path d="M130.324 112.073C130.181 112.253 129.976 112.372 129.749 112.407C129.522 112.441 129.29 112.389 129.1 112.259L113.951 101.9L116.13 99.0213L130.196 110.849C130.367 111 130.475 111.21 130.498 111.436C130.522 111.663 130.46 111.89 130.324 112.073Z" fill="#FFC727"/>
<path d="M133.937 107.237C133.801 107.408 133.607 107.522 133.392 107.559C133.177 107.595 132.956 107.551 132.771 107.435L117.622 97.0752L119.813 94.1968L133.82 106.013C133.991 106.164 134.099 106.375 134.121 106.602C134.142 106.829 134.076 107.056 133.937 107.237Z" fill="#FFC727"/>
<path d="M137.607 102.412C137.47 102.581 137.276 102.694 137.062 102.73C136.848 102.767 136.627 102.724 136.442 102.611L121.293 92.239L123.483 89.3606L137.537 101.189C137.7 101.347 137.797 101.561 137.81 101.787C137.823 102.013 137.75 102.236 137.607 102.412Z" fill="#FFC727"/>
<path d="M141.266 97.5879C141.129 97.7565 140.935 97.8695 140.721 97.906C140.507 97.9424 140.286 97.8998 140.101 97.786L124.952 87.4145L127.131 84.5361L141.197 96.3643C141.364 96.5199 141.464 96.7341 141.477 96.9621C141.49 97.1901 141.415 97.4143 141.266 97.5879Z" fill="#FFC727"/>
<path d="M144.937 92.7285C144.802 92.8992 144.608 93.0138 144.392 93.0504C144.177 93.0869 143.956 93.0428 143.772 92.9266L128.623 82.5667L130.813 79.6883L144.797 91.5631C144.959 91.7068 145.062 91.9046 145.088 92.1193C145.114 92.334 145.06 92.5506 144.937 92.7285Z" fill="#FFC727"/>
<path d="M148.608 87.9273C148.467 88.109 148.262 88.2305 148.035 88.2672C147.808 88.304 147.576 88.2533 147.384 88.1254L132.235 77.7539L134.414 74.8755L148.48 86.7037C148.651 86.8544 148.759 87.0639 148.782 87.2905C148.806 87.5171 148.744 87.7444 148.608 87.9273Z" fill="#FFC727"/>
<path d="M152.267 83.1028C152.13 83.2714 151.936 83.3844 151.722 83.4208C151.507 83.4573 151.287 83.4147 151.102 83.3009L135.953 72.9294L138.143 70.051L152.197 81.8792C152.364 82.0348 152.465 82.2489 152.478 82.4769C152.491 82.7049 152.416 82.9291 152.267 83.1028Z" fill="#FFC727"/>
<path d="M155.961 78.2666C155.826 78.4374 155.632 78.552 155.417 78.5885C155.202 78.6251 154.981 78.581 154.796 78.4647L139.647 68.1049L141.837 65.2265L155.891 77.043C156.054 77.2015 156.151 77.4149 156.164 77.6413C156.177 77.8677 156.104 78.0907 155.961 78.2666Z" fill="#FFC727"/>
<path d="M159.597 73.4421C159.46 73.6107 159.266 73.7238 159.052 73.7602C158.837 73.7966 158.617 73.754 158.432 73.6402L143.283 63.2688L145.462 60.3904L159.457 72.2185C159.635 72.3645 159.749 72.5737 159.775 72.802C159.801 73.0304 159.737 73.2599 159.597 73.4421Z" fill="#FFC727"/>
<path d="M163.268 68.6176C163.131 68.7862 162.937 68.8993 162.723 68.9357C162.508 68.9721 162.288 68.9295 162.103 68.8158L146.953 58.4443L149.144 55.5659L163.198 67.394C163.363 67.5511 163.462 67.7649 163.474 67.992C163.487 68.2192 163.414 68.4428 163.268 68.6176Z" fill="#FFC727"/>
<path d="M166.939 63.7815C166.802 63.9501 166.608 64.0631 166.393 64.0996C166.179 64.136 165.959 64.0934 165.773 63.9796L150.624 53.6198L152.733 50.7763L166.799 62.5579C166.972 62.7071 167.082 62.9157 167.108 63.1424C167.134 63.3691 167.073 63.5972 166.939 63.7815Z" fill="#FFC727"/>
<path d="M170.598 58.9337C170.461 59.1023 170.267 59.2153 170.053 59.2517C169.838 59.2882 169.618 59.2456 169.433 59.1318L154.283 48.7603L156.474 45.8819L170.458 57.7684C170.62 57.9121 170.723 58.1099 170.749 58.3245C170.775 58.5392 170.721 58.7559 170.598 58.9337Z" fill="#FFC727"/>
<path d="M174.269 54.1325C174.132 54.3011 173.938 54.4141 173.723 54.4506C173.509 54.487 173.289 54.4444 173.103 54.3306L157.954 43.9591L160.145 41.0807L174.199 52.9089C174.361 53.0674 174.458 53.2808 174.471 53.5072C174.484 53.7335 174.412 53.9566 174.269 54.1325Z" fill="#FFC727"/>
<path d="M177.928 49.2964C177.792 49.4671 177.598 49.5817 177.383 49.6183C177.168 49.6548 176.947 49.6108 176.763 49.4945L161.555 39.123L163.734 36.2446L177.8 48.0611C177.976 48.2107 178.088 48.4228 178.112 48.653C178.136 48.8832 178.07 49.1137 177.928 49.2964Z" fill="#FFC727"/>
<path d="M181.599 44.4719C181.461 44.6405 181.268 44.7535 181.053 44.7899C180.839 44.8264 180.619 44.7837 180.433 44.67L165.284 34.2985L167.475 31.4201L181.529 43.2483C181.693 43.4054 181.792 43.6191 181.805 43.8463C181.818 44.0734 181.744 44.2971 181.599 44.4719Z" fill="#FFC727"/>
<path d="M185.27 39.6474C185.129 39.8291 184.924 39.9506 184.697 39.9874C184.47 40.0241 184.237 39.9734 184.046 39.8455L168.897 29.474L171.111 26.5956L185.095 38.4238C185.273 38.5681 185.39 38.7744 185.422 39.0013C185.455 39.2282 185.4 39.459 185.27 39.6474Z" fill="#FFC727"/>
<path d="M188.929 34.8112C188.793 34.982 188.599 35.0966 188.384 35.1331C188.169 35.1697 187.948 35.1256 187.763 35.0093L172.614 24.6495L174.805 21.7711L188.859 33.5876C189.026 33.7432 189.127 33.9574 189.14 34.1854C189.153 34.4134 189.077 34.6376 188.929 34.8112Z" fill="#FFC727"/>
<path opacity="0.1" d="M101.412 118.331L105.502 121.769L103.708 124.274L99.2211 121.209L101.412 118.331Z" fill="black"/>
<path opacity="0.1" d="M105.083 113.506L109.045 116.839L107.239 119.356L102.892 116.385L105.083 113.506Z" fill="black"/>
<path opacity="0.1" d="M108.754 108.67L112.588 111.91L110.781 114.439L106.563 111.549L108.754 108.67Z" fill="black"/>
<path opacity="0.1" d="M112.413 103.846L116.13 106.969L114.312 109.521L110.222 106.724L112.413 103.846Z" fill="black"/>
<path opacity="0.1" d="M116.072 99.0213L119.661 102.039L117.843 104.603L113.893 101.9L116.072 99.0213Z" fill="black"/>
<path opacity="0.1" d="M119.743 94.1851L123.227 97.1101L121.374 99.6739L117.552 97.0635L119.743 94.1851Z" fill="black"/>
<path opacity="0.1" d="M123.414 89.3606L126.758 92.1808L124.905 94.7678L121.223 92.239L123.414 89.3606Z" fill="black"/>
<path opacity="0.1" d="M127.084 84.5361L130.301 87.2397L128.436 89.8384L124.882 87.4145L127.084 84.5361Z" fill="black"/>
<path opacity="0.1" d="M130.732 79.7L133.843 82.3103L131.979 84.9207L128.553 82.5784L130.732 79.7Z" fill="black"/>
<path opacity="0.1" d="M134.403 74.8755L137.386 77.381L135.51 80.003L132.223 77.7539L134.403 74.8755Z" fill="black"/>
<path opacity="0.1" d="M138.073 70.051L140.929 72.4633L139.041 75.0853L135.894 72.9294L138.073 70.051Z" fill="black"/>
<path opacity="0.1" d="M141.744 65.2149L144.471 67.5106L142.572 70.1675L139.553 68.0932L141.744 65.2149Z" fill="black"/>
<path opacity="0.1" d="M145.403 60.3904L148.014 62.5929L146.103 65.2498L143.213 63.2688L145.403 60.3904Z" fill="black"/>
<path opacity="0.1" d="M149.074 55.5659L151.556 57.6635L149.634 60.3321L146.883 58.4443L149.074 55.5659Z" fill="black"/>
<path opacity="0.1" d="M152.745 50.7297L155.099 52.7225L153.176 55.4027L150.554 53.6198L152.745 50.7297Z" fill="black"/>
<path opacity="0.1" d="M156.404 45.9052L158.642 47.7814L156.707 50.485L154.213 48.7953L156.404 45.9052Z" fill="black"/>
<path opacity="0.1" d="M160.063 41.0807L162.184 42.8637L160.238 45.5789L157.884 43.9708L160.063 41.0807Z" fill="black"/>
<path opacity="0.1" d="M163.734 36.2446L165.727 37.9343L163.769 40.6496L161.555 39.123L163.734 36.2446Z" fill="black"/>
<path opacity="0.1" d="M167.405 31.4201L169.281 32.9933L167.3 35.7318L165.214 34.3101L167.405 31.4201Z" fill="black"/>
<path opacity="0.1" d="M171.076 26.5956L172.824 28.0639L170.831 30.8141L168.873 29.4856L171.076 26.5956Z" fill="black"/>
<path opacity="0.1" d="M176.366 23.1346L174.362 25.8964L172.544 24.6495L174.735 21.7595L176.366 23.1346Z" fill="black"/>
<path d="M196.492 39.7056C195.326 48.2359 202.703 53.2935 203.484 53.7829C203.728 53.9494 203.937 54.1634 204.097 54.4121C204.256 54.6608 204.365 54.9392 204.415 55.2307C204.465 55.5221 204.456 55.8207 204.388 56.1085C204.32 56.3964 204.195 56.6676 204.02 56.906L197.028 66.6016L140.404 115.406L126.292 128.854L199.58 75.3999L200.093 70.5521C200.093 70.5521 212.096 57.7334 217.06 53.9694C222.024 50.2053 229.04 44.9497 229.972 36.6175C230.194 34.7611 230.007 32.8787 229.424 31.1022C228.842 29.3257 227.878 27.6981 226.6 26.3335C225.322 24.9689 223.761 23.9004 222.026 23.2028C220.292 22.5053 218.426 22.1956 216.559 22.2955C208.833 22.8083 197.785 30.348 196.492 39.7056ZM226.091 29.0778C230.974 36.3611 223.108 45.1012 219.169 47.595C215.23 50.0888 205.337 54.3539 200.827 45.9635C198.263 41.174 200.314 33.9722 206.246 29.4623C211.897 25.1972 221.22 21.7828 226.091 29.0778Z" fill="#37474F"/>
<path d="M251.647 67.3358C252.222 65.5462 252.395 63.6514 252.152 61.7874C251.909 59.9233 251.257 58.136 250.243 56.5535C249.228 54.9709 247.876 53.6323 246.284 52.6336C244.691 51.6348 242.897 51.0006 241.031 50.7763C232.71 49.611 225.986 55.193 221.08 59.0735C216.174 62.9541 200.862 71.4727 200.862 71.4727L196.037 70.7968L126.327 128.854L142.781 118.447L203.915 75.4349L215.032 70.9949C215.306 70.8829 215.6 70.8273 215.896 70.8314C216.192 70.8356 216.485 70.8994 216.756 71.019C217.026 71.1387 217.27 71.3118 217.473 71.5279C217.675 71.744 217.832 71.9987 217.934 72.2768C218.214 73.1741 221.313 81.5995 229.879 82.5085C239.271 83.5456 249.328 74.689 251.647 67.3358ZM242.196 75.563C236.37 80.2244 228.876 80.4458 224.868 76.7983C217.876 70.3773 224.39 61.8237 227.758 58.6074C231.126 55.3911 241.532 49.8907 247.405 56.4049C253.279 62.9192 247.697 71.1697 242.196 75.563Z" fill="#455A64"/>
<path d="M196.224 77.8588C196.11 78.0164 195.966 78.15 195.8 78.252C195.634 78.354 195.45 78.4224 195.258 78.4532C195.066 78.4841 194.87 78.4768 194.681 78.4318C194.491 78.3867 194.313 78.3049 194.155 78.1909C193.998 78.0769 193.864 77.9329 193.762 77.7673C193.66 77.6016 193.592 77.4175 193.561 77.2254C193.53 77.0334 193.537 76.8371 193.582 76.6478C193.627 76.4586 193.709 76.28 193.823 76.1224C194.053 75.8041 194.401 75.5902 194.789 75.528C195.177 75.4657 195.573 75.56 195.892 75.7903C196.21 76.0205 196.424 76.3678 196.486 76.7557C196.548 77.1437 196.454 77.5404 196.224 77.8588Z" fill="#263238"/>
<path d="M415.202 269.627L410.774 266.294L415.33 254.232L420.866 254.664L415.202 269.627Z" fill="#37474F"/>
<path d="M421.11 253.743L416.496 250.911L419.456 243.092L424.793 244.024L421.11 253.743Z" fill="#263238"/>
<path d="M429.676 222.326L402.686 294.844L413.687 299.937L427.788 286.198L458.133 235.482L429.676 222.326Z" fill="#FFC727"/>
<path opacity="0.1" d="M402.686 294.844L412.254 269.137L432.426 278.46L427.788 286.198L413.687 299.937L402.686 294.844Z" fill="black"/>
<path opacity="0.1" d="M413.687 299.937L449.999 231.718L458.133 235.482L427.788 286.198L413.687 299.937Z" fill="black"/>
<path d="M439.534 212.117L364.254 168.767L377.177 140.81L458.972 170.084L439.534 212.117Z" fill="#FFC727"/>
<path opacity="0.1" d="M377.177 140.81L385.474 143.782L371.887 173.16L364.254 168.767L377.177 140.81Z" fill="black"/>
<path d="M498 202.278L490.553 198.835L476.265 229.744L483.712 233.186L498 202.278Z" fill="#FFC727"/>
<path d="M461.891 235.95C480.747 232.933 493.587 215.202 490.57 196.346C487.553 177.49 469.822 164.65 450.966 167.667C432.111 170.684 419.271 188.415 422.288 207.271C425.304 226.127 443.036 238.967 461.891 235.95Z" fill="#FFC727"/>
<path opacity="0.1" d="M456.42 225.204C469.318 225.204 479.773 214.748 479.773 201.851C479.773 188.953 469.318 178.497 456.42 178.497C443.522 178.497 433.067 188.953 433.067 201.851C433.067 214.748 443.522 225.204 456.42 225.204Z" fill="black"/>
<path d="M469.192 207.759C468.029 210.291 466.14 212.421 463.765 213.879C461.39 215.337 458.636 216.057 455.852 215.948C453.067 215.84 450.378 214.907 448.124 213.269C445.87 211.63 444.152 209.36 443.19 206.745C442.227 204.13 442.062 201.288 442.716 198.579C443.37 195.87 444.813 193.416 446.862 191.528C448.912 189.64 451.475 188.403 454.229 187.973C456.982 187.543 459.801 187.94 462.328 189.113C465.708 190.679 468.329 193.521 469.615 197.017C470.902 200.512 470.75 204.375 469.192 207.759Z" fill="#FFC727"/>
<path opacity="0.1" d="M464.647 185.233C463.902 186.841 463.097 188.065 462.841 187.948C462.585 187.832 463.004 186.433 463.75 184.813C464.496 183.194 465.3 181.982 465.545 182.098C465.789 182.215 465.393 183.625 464.647 185.233Z" fill="black"/>
<path opacity="0.1" d="M458.459 183.415C458.32 185.186 457.97 186.608 457.702 186.585C457.434 186.561 457.329 185.105 457.48 183.333C457.632 181.562 457.97 180.14 458.238 180.164C458.506 180.187 458.611 181.644 458.459 183.415Z" fill="black"/>
<path opacity="0.1" d="M452.038 183.823C452.505 185.548 452.668 186.993 452.4 187.062C452.132 187.132 451.549 185.804 451.083 184.091C450.617 182.378 450.453 180.921 450.71 180.851C450.966 180.781 451.572 182.11 452.038 183.823Z" fill="black"/>
<path opacity="0.1" d="M446.13 186.41C447.156 187.867 447.797 189.172 447.575 189.335C447.354 189.498 446.34 188.438 445.314 187.004C444.289 185.571 443.636 184.242 443.869 184.091C444.102 183.939 445.116 184.953 446.13 186.41Z" fill="black"/>
<path opacity="0.1" d="M441.469 190.861C442.925 191.875 443.986 192.877 443.799 193.099C443.613 193.32 442.343 192.691 440.874 191.677C439.406 190.663 438.357 189.65 438.544 189.428C438.73 189.207 440.012 189.848 441.469 190.861Z" fill="black"/>
<path opacity="0.1" d="M438.614 196.63C440.338 197.084 441.679 197.667 441.609 197.935C441.539 198.203 440.082 198.04 438.369 197.585C436.656 197.131 435.304 196.548 435.374 196.292C435.444 196.036 436.901 196.175 438.614 196.63Z" fill="black"/>
<path opacity="0.1" d="M437.903 203.039C439.674 202.876 441.131 202.969 441.154 203.237C441.177 203.505 439.767 203.855 437.996 204.018C436.225 204.181 434.768 204.088 434.745 203.82C434.721 203.552 436.132 203.191 437.903 203.039Z" fill="black"/>
<path opacity="0.1" d="M439.429 209.262C441.038 208.505 442.436 208.097 442.553 208.33C442.669 208.563 441.457 209.402 439.849 210.159C438.241 210.917 436.842 211.325 436.726 211.08C436.609 210.835 437.821 210.055 439.429 209.262Z" fill="black"/>
<path opacity="0.1" d="M442.995 214.658C444.254 213.387 445.431 212.525 445.617 212.723C445.804 212.921 444.953 214.087 443.695 215.357C442.436 216.627 441.271 217.478 441.084 217.291C440.898 217.105 441.748 215.916 442.995 214.658Z" fill="black"/>
<path opacity="0.1" d="M448.181 218.468C448.939 216.86 449.743 215.637 449.987 215.753C450.232 215.87 449.836 217.268 449.09 218.888C448.344 220.508 447.528 221.72 447.284 221.603C447.039 221.486 447.435 220.088 448.181 218.468Z" fill="black"/>
<path opacity="0.1" d="M454.369 220.286C454.521 218.515 454.858 217.093 455.127 217.116C455.395 217.14 455.499 218.596 455.348 220.368C455.196 222.139 454.858 223.561 454.59 223.537C454.322 223.514 454.218 222.081 454.369 220.286Z" fill="black"/>
<path opacity="0.1" d="M460.802 219.878C460.336 218.154 460.161 216.709 460.429 216.639C460.697 216.569 461.279 217.897 461.746 219.61C462.212 221.323 462.375 222.78 462.119 222.85C461.862 222.92 461.279 221.591 460.802 219.878Z" fill="black"/>
<path opacity="0.1" d="M466.698 217.291C465.673 215.835 465.02 214.529 465.242 214.366C465.463 214.203 466.477 215.264 467.502 216.697C468.528 218.13 469.18 219.459 468.959 219.61C468.738 219.762 467.724 218.748 466.698 217.291Z" fill="black"/>
<path opacity="0.1" d="M471.36 212.84C469.891 211.826 468.843 210.824 469.029 210.602C469.215 210.381 470.497 211.01 471.954 212.024C473.411 213.038 474.471 214.052 474.285 214.273C474.098 214.494 472.816 213.854 471.36 212.84Z" fill="black"/>
<path opacity="0.1" d="M474.215 207.071C472.49 206.617 471.162 206.034 471.231 205.766C471.301 205.498 472.746 205.661 474.471 206.116C476.196 206.57 477.524 207.153 477.454 207.409C477.384 207.666 475.939 207.526 474.215 207.071Z" fill="black"/>
<path opacity="0.1" d="M474.926 200.662C473.154 200.825 471.698 200.743 471.674 200.464C471.651 200.184 473.061 199.846 474.832 199.683C476.604 199.52 478.06 199.613 478.084 199.881C478.107 200.149 476.697 200.51 474.926 200.662Z" fill="black"/>
<path opacity="0.1" d="M473.411 194.404C471.791 195.162 470.392 195.569 470.276 195.336C470.159 195.103 471.371 194.264 472.979 193.518C474.588 192.773 475.998 192.353 476.114 192.586C476.231 192.819 475.019 193.647 473.411 194.404Z" fill="black"/>
<path opacity="0.1" d="M469.833 189.044C468.586 190.314 467.409 191.176 467.211 190.978C467.013 190.78 467.875 189.615 469.134 188.344C470.392 187.074 471.558 186.223 471.756 186.41C471.954 186.596 471.092 187.785 469.833 189.044Z" fill="black"/>
<path opacity="0.1" d="M421.833 201.92C420.341 195.954 422.649 189.428 426.378 184.732C426.191 185.478 425.923 186.188 425.69 186.899C423.902 191.764 422.609 196.796 421.833 201.92Z" fill="black"/>
<path opacity="0.1" d="M490.891 199.019C491.699 201.957 491.842 205.038 491.308 208.038C490.773 211.038 489.576 213.881 487.803 216.359C489.352 210.684 490.385 204.88 490.891 199.019Z" fill="black"/>
<path opacity="0.1" d="M457.574 236.414C455.207 237.07 452.725 237.191 450.306 236.768C447.887 236.345 445.593 235.388 443.59 233.967C448.344 234.806 452.784 235.599 457.574 236.414Z" fill="black"/>
<path opacity="0.1" d="M429.291 223.316C433.02 226.439 436.504 229.306 440.222 232.382C437.841 231.777 435.625 230.65 433.734 229.081C431.844 227.513 430.326 225.544 429.291 223.316Z" fill="black"/>
<path d="M57.4788 282.865L58.6325 283.494L60.462 277.819L59.3083 277.19L57.4788 282.865Z" fill="#C7C7C7"/>
<path d="M55.1481 281.571L56.2901 282.212L58.1197 276.525L56.9777 275.896L55.1481 281.571Z" fill="#C7C7C7"/>
<path d="M52.8058 280.278L53.9595 280.919L55.789 275.232L54.6354 274.603L52.8058 280.278Z" fill="#C7C7C7"/>
<path d="M50.4634 278.984L51.6171 279.625L53.4467 273.938L52.293 273.309L50.4634 278.984Z" fill="#C7C7C7"/>
<path d="M48.1328 277.702L49.2748 278.332L51.1044 272.645L49.9624 272.015L48.1328 277.702Z" fill="#C7C7C7"/>
<path d="M45.7904 276.409L46.9441 277.038L48.7737 271.363L47.62 270.722L45.7904 276.409Z" fill="#C7C7C7"/>
<path d="M43.4598 275.115L44.6018 275.745L46.4314 270.069L45.2894 269.428L43.4598 275.115Z" fill="#C7C7C7"/>
<path d="M44.7183 275.814L43.5647 275.174L47.3986 270.605L48.5523 271.235L44.7183 275.814Z" fill="#DBDBDB"/>
<path d="M47.0607 277.096L45.907 276.467L49.7409 271.899L50.8946 272.528L47.0607 277.096Z" fill="#DBDBDB"/>
<path d="M49.3913 278.39L48.2377 277.761L52.0833 273.192L53.2253 273.822L49.3913 278.39Z" fill="#DBDBDB"/>
<path d="M51.7337 279.683L50.58 279.054L54.4139 274.474L55.5676 275.115L51.7337 279.683Z" fill="#DBDBDB"/>
<path d="M54.0643 280.977L52.9223 280.348L56.7563 275.768L57.9099 276.409L54.0643 280.977Z" fill="#DBDBDB"/>
<path d="M56.4067 282.27L55.253 281.63L59.0986 277.061L60.2406 277.702L56.4067 282.27Z" fill="#DBDBDB"/>
<path d="M58.749 283.564L57.5953 282.923L61.4293 278.355L62.583 278.984L58.749 283.564Z" fill="#DBDBDB"/>
<path d="M54.0643 245.306L63.4569 250.492L60.5553 255.736L51.0811 264.091L14.6643 320.995L0.29571 313.059L36.3163 259.441L54.0643 245.306Z" fill="#FFC727"/>
<path d="M79.0725 259.115L69.6798 253.929L66.7782 259.173L64.7505 271.643L35.9434 332.753L50.3236 340.7L76.532 281.664L79.0725 259.115Z" fill="#FFC727"/>
<path d="M78.7928 248.884L73.2225 245.807L71.7775 255.083L77.3478 258.171L78.7928 248.884Z" fill="#C7C7C7"/>
<path d="M88.8613 230.693L93.7207 221.894C93.7667 221.818 93.7967 221.733 93.8087 221.645C93.8207 221.557 93.8146 221.467 93.7906 221.382L92.0659 214.285C92.0418 214.189 91.9983 214.099 91.9382 214.021C91.878 213.943 91.8026 213.878 91.7163 213.83L87.7892 211.313C87.6253 211.221 87.4315 211.197 87.2502 211.247C87.0689 211.297 86.9149 211.418 86.8219 211.581C86.7423 211.73 86.7162 211.901 86.748 212.067C86.7799 212.232 86.8677 212.382 86.9967 212.49L89.5372 215.089C89.6263 215.161 89.6964 215.254 89.7411 215.36C89.7858 215.465 89.8038 215.58 89.7935 215.695L89.4323 221.079C89.4161 221.246 89.3419 221.403 89.2225 221.521L85.8081 225.017C85.7076 225.121 85.5772 225.19 85.4352 225.216L80.7738 226.171L88.8613 230.693Z" fill="#C7C7C7"/>
<path d="M63.1773 240.26L68.7476 243.337L61.6623 249.501L56.092 246.413L63.1773 240.26Z" fill="#DBDBDB"/>
<path d="M88.8903 230.7L73.2433 222.056L63.1897 240.253L78.8367 248.897L88.8903 230.7Z" fill="#DBDBDB"/>
<path d="M73.2225 222.081L78.0819 213.271C78.1704 213.118 78.3111 213.002 78.4781 212.945L85.4119 210.614C85.5017 210.574 85.599 210.553 85.6974 210.553C85.7958 210.553 85.8931 210.574 85.9829 210.614L90.2014 212.595C90.2834 212.64 90.3557 212.701 90.4141 212.774C90.4726 212.847 90.516 212.931 90.542 213.021C90.568 213.11 90.576 213.204 90.5655 213.297C90.5551 213.39 90.5264 213.48 90.4811 213.562C90.3996 213.71 90.268 213.824 90.11 213.884C89.952 213.944 89.7778 213.945 89.6187 213.888L86.0412 213.131C85.9313 213.091 85.8132 213.078 85.6974 213.094C85.5815 213.111 85.4714 213.155 85.3769 213.224L81.0186 216.406C80.8798 216.502 80.7838 216.648 80.7505 216.813L79.5852 221.58C79.5451 221.717 79.5451 221.862 79.5852 221.999L81.2749 226.486L73.2225 222.081Z" fill="#DBDBDB"/>
<path d="M79.9698 234.328C80.1938 235.11 80.181 235.941 79.9329 236.716C79.6849 237.49 79.2128 238.174 78.5763 238.681C77.9398 239.187 77.1675 239.493 76.3569 239.561C75.5463 239.628 74.7339 239.454 74.0224 239.06C73.3108 238.666 72.732 238.07 72.3592 237.347C71.9864 236.624 71.8362 235.807 71.9277 234.999C72.0192 234.191 72.3482 233.428 72.8732 232.806C73.3982 232.185 74.0956 231.733 74.8772 231.508C75.9265 231.21 77.0514 231.338 78.0058 231.867C78.9601 232.396 79.6663 233.281 79.9698 234.328Z" fill="#C7C7C7"/>
<path d="M80.4368 232.925L72.5834 235.216L73.0304 236.748L80.8839 234.458L80.4368 232.925Z" fill="#DBDBDB"/>
<path d="M311.441 268.927C311.441 268.927 326.322 298.212 326.59 323.826C326.858 349.44 326.94 415.212 304.449 432.354C281.958 449.496 189.08 459.402 161.217 441.094C133.354 422.787 118.752 381.662 123.635 354.09C128.518 326.518 159.574 301.382 172.229 288.936C184.885 276.49 192.937 266.002 195.128 259.896L311.441 268.927Z" fill="#FFC727"/>
<g opacity="0.5">
<path d="M311.441 268.927C311.441 268.927 326.322 298.212 326.59 323.826C326.858 349.44 326.94 415.212 304.449 432.354C281.958 449.496 189.08 459.402 161.217 441.094C133.354 422.787 118.752 381.662 123.635 354.09C128.518 326.518 159.574 301.382 172.229 288.936C184.885 276.49 192.937 266.002 195.128 259.896L311.441 268.927Z" fill="white"/>
</g>
<path d="M171.868 282.107C174.106 280.348 176.366 278.809 178.592 277.248C180.818 275.686 182.997 274.148 184.967 272.493C186.925 270.814 188.657 268.887 190.117 266.76C191.691 264.616 193.112 262.297 194.616 259.896C194.428 262.749 193.701 265.541 192.471 268.123C191.254 270.808 189.464 273.195 187.227 275.115C185.029 276.952 182.581 278.467 179.956 279.613C177.388 280.815 174.666 281.654 171.868 282.107Z" fill="#FFC727"/>
<path d="M160.226 305.775C157.896 307.442 155.565 308.875 153.304 310.343C151.044 311.812 148.76 313.233 146.72 314.818C144.692 316.411 142.878 318.26 141.325 320.319C139.658 322.393 138.143 324.642 136.535 326.973C136.846 324.119 137.696 321.351 139.041 318.815C140.365 316.176 142.255 313.86 144.576 312.033C146.855 310.289 149.37 308.877 152.046 307.838C154.665 306.778 157.418 306.083 160.226 305.775Z" fill="#FFC727"/>
<path d="M142.781 305.064C145.112 304.179 147.384 303.503 149.634 302.839C151.883 302.174 154.062 301.522 156.101 300.718C158.157 299.861 160.111 298.778 161.928 297.49C163.839 296.196 165.715 294.774 167.755 293.329C166.794 295.621 165.424 297.718 163.711 299.517C161.973 301.409 159.857 302.914 157.5 303.934C155.175 304.87 152.717 305.433 150.216 305.6C147.725 305.822 145.215 305.641 142.781 305.064Z" fill="#FFC727"/>
<path d="M293.716 97.786C298.925 92.3555 317.139 101.072 338.15 92.0759C359.161 83.0795 368.577 59.225 391.872 51.5455C418.29 42.8404 442.343 97.7511 423.989 120.592C404.33 145.064 356.819 146.497 330.762 141.568C308.76 137.454 286.211 105.547 293.716 97.786Z" fill="#FFC727"/>
<g opacity="0.5">
<path d="M293.716 97.786C298.925 92.3555 317.139 101.072 338.15 92.0759C359.161 83.0795 368.577 59.225 391.872 51.5455C418.29 42.8404 442.343 97.7511 423.989 120.592C404.33 145.064 356.819 146.497 330.762 141.568C308.76 137.454 286.211 105.547 293.716 97.786Z" fill="white"/>
</g>
<path opacity="0.4" d="M423.989 120.592C404.33 145.064 356.819 146.497 330.762 141.568C327.543 140.926 324.432 139.831 321.521 138.316C341.262 143.071 397.442 132.35 413.093 115.068C422.777 104.37 426.902 79.8165 420.388 66.3219C430.888 82.4968 434.815 107.12 423.989 120.592Z" fill="#FFC727"/>
<path d="M414.118 54.6919C411.294 53.8063 408.377 53.2472 405.425 53.0254C402.567 52.8134 399.696 52.8641 396.848 53.1769C395.438 53.3983 394.016 53.5498 392.606 53.8878C391.196 54.2257 389.798 54.5404 388.364 54.8783C387.642 55.0298 386.954 55.2862 386.255 55.496L384.111 56.1136C382.678 56.5797 381.279 57.1041 379.753 57.477C380.898 56.4432 382.1 55.4745 383.354 54.5753C384.661 53.7166 386.019 52.9383 387.421 52.2447C388.841 51.5765 390.314 51.0269 391.825 50.6015C393.352 50.163 394.911 49.8435 396.487 49.646C399.646 49.2886 402.843 49.5018 405.926 50.2752C408.995 51.0086 411.819 52.5311 414.118 54.6919Z" fill="#FFC727"/>
<path d="M428.988 78.4531C427.022 73.4285 423.965 68.903 420.038 65.2032C419.024 64.3642 418.092 63.4319 416.997 62.6744C416.461 62.2782 415.971 61.8237 415.4 61.5091C414.829 61.1945 414.235 60.7633 413.734 60.3438C413.233 59.9242 412.568 59.6096 412.009 59.2483L410.249 58.1529C409.084 57.4537 407.814 56.8244 406.602 55.9854C408.042 56.0897 409.474 56.2804 410.89 56.5564C412.294 56.9154 413.672 57.367 415.016 57.9082C416.373 58.4706 417.676 59.1572 418.908 59.9592C420.145 60.763 421.315 61.6672 422.404 62.6628C424.571 64.711 426.313 67.1661 427.531 69.8879C428.788 72.5568 429.292 75.5186 428.988 78.4531Z" fill="#FFC727"/>
<path d="M157.803 131.651C131.944 146.334 91.6814 244.001 109.348 263.835C127.014 283.669 166.694 282.678 181.203 269.289C195.711 255.899 198.333 158.15 192.996 143.654C187.938 130.019 168.011 125.859 157.803 131.651Z" fill="#FFC727"/>
<path opacity="0.5" d="M157.803 131.651C131.944 146.334 91.6814 244.001 109.348 263.835C127.014 283.669 166.694 282.678 181.203 269.289C195.711 255.899 198.333 158.15 192.996 143.654C187.938 130.019 168.011 125.859 157.803 131.651Z" fill="white"/>
<path opacity="0.4" d="M181.168 269.289C166.659 282.678 126.944 283.669 109.348 263.835C108.51 262.871 107.815 261.792 107.285 260.63C118.414 270.769 150.811 272.552 167.149 260.63C183.487 248.709 192.996 197.702 195.408 166.413V166.354C196.34 200.417 192.18 259.127 181.168 269.289Z" fill="#FFC727"/>
<path d="M125.663 264.895C127.491 267.223 129.583 269.33 131.897 271.176C134.13 272.969 136.526 274.549 139.052 275.896C140.346 276.514 141.604 277.19 142.956 277.702C144.308 278.215 145.648 278.763 147.012 279.275C147.699 279.567 148.41 279.742 149.109 279.975L151.23 280.674C152.663 281.093 154.12 281.455 155.6 282.002C154.055 282.218 152.498 282.338 150.939 282.364C149.378 282.317 147.821 282.177 146.277 281.944C144.729 281.683 143.205 281.293 141.721 280.779C140.223 280.281 138.766 279.67 137.363 278.949C134.557 277.465 132.039 275.492 129.928 273.123C127.818 270.795 126.349 267.96 125.663 264.895Z" fill="#FFC727"/>
<path d="M104.99 250.935C106.059 253.882 107.546 256.661 109.406 259.185C111.194 261.65 113.241 263.916 115.513 265.944L117.226 267.459C117.82 267.948 118.449 268.391 119.044 268.869C120.209 269.871 121.561 270.652 122.808 271.596L126.77 274.171C128.133 274.987 129.52 275.791 130.872 276.747C129.264 276.514 127.667 276.129 126.07 275.745C124.544 275.185 122.959 274.684 121.467 273.997C119.967 273.296 118.519 272.49 117.132 271.584C116.445 271.118 115.746 270.652 115.081 270.163L113.159 268.543C110.65 266.293 108.579 263.599 107.052 260.595C105.479 257.63 104.765 254.284 104.99 250.935Z" fill="#FFC727"/>
<path d="M313.993 274.451C313.993 274.451 349.407 298.923 352.624 323.337C355.84 347.751 337.754 360.919 326.555 357.26C315.356 353.601 298.983 329.443 298.983 329.443C298.211 331.986 296.62 334.203 294.458 335.748C292.295 337.293 289.683 338.079 287.027 337.985C277.261 337.985 271.201 330.422 271.143 314.678C271.143 304.435 282.261 291.838 299.962 293.446C307.736 294.249 315.373 296.05 322.686 298.807L313.993 274.451Z" fill="#FFC727"/>
<path opacity="0.5" d="M313.993 274.451C313.993 274.451 349.407 298.923 352.624 323.337C355.84 347.751 337.754 360.919 326.555 357.26C315.356 353.601 298.983 329.443 298.983 329.443C298.211 331.986 296.62 334.203 294.458 335.748C292.295 337.293 289.683 338.079 287.027 337.985C277.261 337.985 271.201 330.422 271.143 314.678C271.143 304.435 282.261 291.838 299.962 293.446C307.736 294.249 315.373 296.05 322.686 298.807L313.993 274.451Z" fill="white"/>
<path opacity="0.4" d="M326.555 357.26C315.333 353.601 298.983 329.443 298.983 329.443C298.211 331.986 296.62 334.203 294.458 335.748C292.295 337.293 289.683 338.079 287.027 337.985C278.217 337.985 272.425 331.832 271.33 319.072C272.553 323.302 278.322 333.697 287.505 332.671C296.687 331.646 301.489 321.426 301.489 321.426C301.489 321.426 318.852 346.527 333.023 344.884C345.515 343.427 353.276 331.156 351.19 317.335C351.848 319.287 352.32 321.296 352.6 323.337C355.84 347.739 337.754 360.919 326.555 357.26Z" fill="#FFC727"/>
<path d="M301.873 319.34C301.617 322.308 301.05 325.241 300.183 328.091C299.745 329.542 299.175 330.95 298.482 332.298C297.777 333.722 296.795 334.99 295.592 336.027C293.005 337.902 289.906 338.939 286.712 338.999C283.422 339.162 280.185 338.127 277.599 336.086C276.394 334.995 275.364 333.726 274.546 332.322C273.74 331.002 273.035 329.623 272.437 328.196C271.206 325.366 270.311 322.401 269.768 319.363C269.173 316.217 269.248 312.981 269.99 309.866C270.866 306.75 272.463 303.884 274.651 301.498C276.774 299.16 279.271 297.191 282.039 295.672C284.761 294.147 287.695 293.035 290.744 292.374C293.79 291.744 296.911 291.563 300.009 291.838C303.03 292.064 306.027 292.54 308.97 293.26C314.804 294.652 320.455 296.721 325.809 299.424C331.178 302.026 336.102 305.459 340.399 309.598C335.706 306.055 330.565 303.147 325.11 300.951C319.725 298.708 314.126 297.017 308.399 295.905C305.572 295.358 302.71 295.011 299.834 294.868C297.029 294.697 294.214 294.937 291.478 295.579C286.03 296.822 281.076 299.662 277.25 303.736C275.397 305.723 274.04 308.118 273.287 310.728C272.654 313.379 272.575 316.132 273.054 318.815C273.476 321.611 274.219 324.348 275.269 326.973C275.778 328.285 276.382 329.558 277.075 330.783C277.692 331.962 278.477 333.046 279.405 334C281.46 335.705 284.042 336.644 286.712 336.657C289.47 336.771 292.199 336.052 294.543 334.594C295.65 333.774 296.584 332.745 297.293 331.564C298.049 330.338 298.704 329.051 299.251 327.719C300.371 325.008 301.248 322.205 301.873 319.34Z" fill="#FFC727"/>
<path d="M298.983 329.443C301.151 332.345 303.318 335.27 305.637 337.997C307.956 340.724 310.299 343.509 312.769 346.096C315.198 348.684 317.858 351.044 320.717 353.146C322.103 354.153 323.606 354.99 325.192 355.64C326.783 356.209 328.455 356.524 330.144 356.572C333.555 356.789 336.953 355.977 339.898 354.242C342.858 352.451 345.31 349.931 347.018 346.923C348.799 343.876 349.986 340.519 350.514 337.03C350.947 333.456 350.92 329.841 350.433 326.274C351.357 329.812 351.75 333.469 351.598 337.123C351.498 338.981 351.173 340.82 350.631 342.6C350.113 344.386 349.426 346.118 348.58 347.774C346.873 351.19 344.266 354.075 341.04 356.118C337.739 358.134 333.902 359.097 330.039 358.88C328.107 358.784 326.2 358.391 324.387 357.714C322.624 356.99 320.963 356.038 319.446 354.883C316.516 352.636 313.833 350.085 311.441 347.273C306.693 341.769 302.519 335.794 298.983 329.443Z" fill="#FFC727"/>
<path d="M313.993 274.451C315.139 276.319 316.152 278.266 317.023 280.278C317.908 282.243 318.712 284.248 319.435 286.291C320.157 288.334 320.802 290.393 321.369 292.467C321.963 294.561 322.403 296.695 322.686 298.853C321.538 296.986 320.525 295.039 319.656 293.026C318.771 291.045 317.955 289.053 317.244 287.025C316.533 284.997 315.881 282.946 315.321 280.86C314.728 278.758 314.284 276.616 313.993 274.451Z" fill="#FFC727"/>
<path d="M313.993 274.451C319.627 277.542 324.9 281.251 329.713 285.51C334.581 289.748 338.973 294.504 342.811 299.692C344.705 302.325 346.433 305.072 347.986 307.919C349.505 310.783 350.791 313.764 351.831 316.834C352.863 319.906 353.593 323.072 354.01 326.285C354.379 329.481 354.422 332.706 354.138 335.911C353.973 332.736 353.552 329.579 352.88 326.472C352.199 323.398 351.279 320.382 350.13 317.452C347.761 311.628 344.673 306.123 340.935 301.067C337.171 295.985 332.988 291.225 328.431 286.839C326.101 284.636 323.77 282.492 321.439 280.429C319.108 278.367 316.556 276.362 313.993 274.451Z" fill="#FFC727"/>
<path d="M170.412 325.015C170.412 325.015 187.495 353.764 206.968 356.095C226.441 358.425 242.569 351.433 248.699 351.142C254.828 350.85 256.914 354.288 265.515 352.82C276.457 350.955 273.369 333.009 267.321 326.635C261.273 320.26 244.527 319.363 241.684 317.743C238.84 316.123 231.265 308.77 227.443 300.823C226.441 298.842 164.189 307.209 170.412 325.015Z" fill="#FFC727"/>
<path opacity="0.5" d="M170.412 325.015C170.412 325.015 187.495 353.764 206.968 356.095C226.441 358.425 242.569 351.433 248.699 351.142C254.828 350.85 256.914 354.288 265.515 352.82C276.457 350.955 273.369 333.009 267.321 326.635C261.273 320.26 244.527 319.363 241.684 317.743C238.84 316.123 231.265 308.77 227.443 300.823C226.441 298.842 164.189 307.209 170.412 325.015Z" fill="white"/>
<path opacity="0.4" d="M265.503 352.832C256.903 354.3 254.829 350.839 248.687 351.154C242.546 351.468 226.429 358.425 206.968 356.095C192.716 354.381 179.746 338.521 173.814 330.142C174.455 330.562 194.895 344.22 207.609 345.84C220.428 347.483 244.807 342.157 247.324 341.773C249.841 341.388 256.926 349.429 265.596 347.972C272.973 346.725 272.74 340.246 272.518 338.358C273.544 345.001 271.982 351.725 265.503 352.832Z" fill="#FFC727"/>
<path d="M168.023 322.3C170.784 325.866 173.558 329.292 176.425 332.648C177.159 333.475 177.905 334.279 178.604 335.13C179.303 335.981 180.095 336.738 180.83 337.554C181.564 338.37 182.333 339.151 183.09 339.885C183.848 340.619 184.605 341.47 185.421 342.215C188.527 345.284 191.807 348.171 195.245 350.862C196.119 351.526 197.005 352.167 197.867 352.855C198.729 353.542 199.673 354.102 200.582 354.731L201.934 355.698L203.356 356.572C204.3 357.155 205.243 357.738 206.187 358.402C205.104 358.111 204.02 357.784 202.936 357.446L201.316 356.91L199.755 356.234C198.729 355.768 197.68 355.302 196.667 354.801C195.653 354.3 194.697 353.636 193.707 353.111C189.814 350.738 186.212 347.918 182.974 344.709C182.146 343.917 181.377 343.078 180.643 342.239C179.909 341.4 179.082 340.596 178.394 339.698C176.961 337.939 175.562 336.144 174.304 334.268C171.712 330.56 169.601 326.539 168.023 322.3Z" fill="#FFC727"/>
<path d="M200.244 351.2C201.315 352.065 202.489 352.793 203.74 353.368C204.973 353.956 206.256 354.432 207.574 354.789C210.187 355.511 212.895 355.825 215.603 355.722C218.321 355.589 221.025 355.25 223.691 354.708C226.394 354.207 229.098 353.694 231.848 353.1L239.947 351.328C242.674 350.746 245.296 350.163 248.105 349.569C248.535 349.49 248.972 349.451 249.41 349.452C249.827 349.452 250.244 349.483 250.657 349.545C251.449 349.662 252.16 349.825 252.847 349.988C254.234 350.314 255.539 350.664 256.845 350.92C259.341 351.512 261.927 351.626 264.466 351.258C265.075 351.157 265.678 351.021 266.272 350.851C266.773 350.707 267.249 350.487 267.682 350.198C268.595 349.568 269.339 348.724 269.85 347.739C270.933 345.499 271.434 343.022 271.306 340.537C271.25 335.359 269.157 330.41 265.48 326.763C263.489 325.078 261.189 323.795 258.709 322.987C256.15 322.11 253.512 321.486 250.831 321.123C245.37 320.366 239.847 320.14 234.342 320.447C239.837 319.418 245.438 319.07 251.018 319.41C253.854 319.594 256.665 320.063 259.408 320.808C262.263 321.555 264.935 322.875 267.263 324.689C269.551 326.63 271.365 329.07 272.565 331.821C273.792 334.536 274.5 337.457 274.651 340.432C274.86 343.507 274.253 346.583 272.891 349.347C272.132 350.84 271.015 352.121 269.64 353.076C268.922 353.558 268.136 353.931 267.309 354.183C266.575 354.405 265.828 354.58 265.072 354.708C262.11 355.119 259.098 354.969 256.192 354.265C254.782 353.962 253.418 353.589 252.102 353.263C251.484 353.098 250.857 352.965 250.225 352.867C249.934 352.867 249.654 352.797 249.41 352.773C249.156 352.767 248.902 352.787 248.652 352.832C243.338 353.717 237.815 354.918 232.337 355.768C229.587 356.211 226.837 356.654 224.064 356.934C221.264 357.311 218.439 357.467 215.615 357.4C212.771 357.274 209.965 356.692 207.306 355.675C204.654 354.716 202.244 353.189 200.244 351.2Z" fill="#FFC727"/>
<path d="M245.692 319.27C243.207 318.686 240.842 317.677 238.7 316.287C236.555 314.931 234.596 313.302 232.874 311.439C231.116 309.568 229.651 307.442 228.527 305.134C227.384 302.838 226.73 300.331 226.604 297.769C228.119 299.844 229.354 301.86 230.869 303.701C232.384 305.542 233.817 307.36 235.437 309.062C237.057 310.763 238.689 312.464 240.413 314.131L245.692 319.27Z" fill="#FFC727"/>
<path d="M342.007 264.091C308.492 290.894 267.041 293.225 254.992 293.225C242.942 293.225 201.479 290.894 167.976 264.091C136.512 238.955 140.346 190.314 155.635 151.508C170.924 112.702 226.721 97.18 254.992 97.18C283.263 97.18 339.071 112.702 354.36 151.508C369.649 190.314 373.483 238.955 342.007 264.091Z" fill="#FFC727"/>
<path opacity="0.5" d="M342.007 264.091C308.492 290.894 267.041 293.225 254.992 293.225C242.942 293.225 201.479 290.894 167.976 264.091C136.512 238.955 140.346 190.314 155.635 151.508C170.924 112.702 226.721 97.18 254.992 97.18C283.263 97.18 339.071 112.702 354.36 151.508C369.649 190.314 373.483 238.955 342.007 264.091Z" fill="white"/>
<path d="M264.92 214.634C262.893 223.957 259.7 229.982 255.668 229.982C251.635 229.982 248.431 223.945 246.403 214.634C246.403 214.634 254.689 207.91 255.668 199.974C256.635 207.91 264.92 214.634 264.92 214.634Z" fill="#263238"/>
<path d="M263.091 221.218C261.156 226.696 258.639 229.982 255.668 229.982C252.696 229.982 250.155 226.696 248.233 221.218C250.295 219.43 252.932 218.446 255.662 218.446C258.391 218.446 261.029 219.43 263.091 221.218Z" fill="#FF9BBC"/>
<path d="M181.051 115.091C184.157 111.349 187.849 108.134 191.982 105.57C194.064 104.248 196.26 103.113 198.543 102.179C200.865 101.257 203.28 100.585 205.745 100.175C210.57 99.4544 215.464 99.3136 220.323 99.7554C225.14 100.094 229.911 100.918 234.563 102.214C229.739 102.319 224.984 102.342 220.265 102.482C215.583 102.573 210.912 102.962 206.281 103.648C204.028 103.977 201.815 104.532 199.673 105.302C197.49 106.055 195.357 106.946 193.287 107.971C189.058 110.076 184.971 112.455 181.051 115.091Z" fill="#FFC727"/>
<path d="M166.741 267.762C162.743 264.991 159.221 261.591 156.311 257.693C154.809 255.739 153.487 253.652 152.36 251.459C151.239 249.229 150.36 246.885 149.738 244.467C148.607 239.722 148.04 234.86 148.049 229.982C147.952 225.157 148.342 220.336 149.214 215.59C149.75 220.379 150.17 225.111 150.729 229.807C151.214 234.451 151.993 239.059 153.06 243.605C153.594 245.819 154.34 247.977 155.285 250.049C156.225 252.159 157.3 254.206 158.502 256.179C160.989 260.218 163.741 264.087 166.741 267.762Z" fill="#FFC727"/>
<path d="M151.859 144.236C154.461 140.003 157.453 136.024 160.798 132.35C164.099 128.558 167.812 125.146 171.868 122.177C173.951 120.729 176.15 119.455 178.441 118.366C180.715 117.269 183.05 116.3 185.433 115.464C190.104 113.742 194.944 112.516 199.871 111.805C195.361 113.879 190.875 115.872 186.493 117.981C184.302 119.065 182.123 120.102 180.026 121.303C177.923 122.431 175.888 123.68 173.931 125.043C171.964 126.411 170.073 127.885 168.267 129.46C166.391 130.986 164.608 132.641 162.779 134.261L151.859 144.236Z" fill="#FFC727"/>
<path d="M138.982 193.122C139.36 188.286 140.271 183.506 141.698 178.87C142.362 176.539 143.178 174.209 144.028 171.983C144.436 170.818 144.937 169.734 145.427 168.627C145.916 167.52 146.382 166.389 146.93 165.306C149.043 160.915 151.589 156.746 154.528 152.86C157.435 148.955 160.866 145.469 164.725 142.5C161.928 146.474 159.189 150.308 156.789 154.386C154.388 158.465 152.127 162.544 150.076 166.832C149.517 167.869 149.039 168.953 148.538 170.025C148.037 171.097 147.548 172.169 147.07 173.253C146.068 175.397 145.205 177.6 144.25 179.779C142.443 184.172 140.707 188.601 138.982 193.122Z" fill="#FFC727"/>
<path d="M141.36 224.586C140.451 219.746 140.345 214.789 141.045 209.915C142.299 200.111 145.77 190.721 151.195 182.459C152.522 180.392 153.974 178.407 155.542 176.516C157.129 174.657 158.809 172.88 160.576 171.191C159.411 173.381 158.094 175.374 156.952 177.495C155.81 179.616 154.621 181.655 153.561 183.823L151.964 187.004L150.508 190.255C149.995 191.328 149.564 192.435 149.132 193.53C148.701 194.625 148.2 195.709 147.839 196.84L146.674 200.172L145.625 203.575C144.867 205.766 144.308 208.097 143.725 210.427C142.616 215.088 141.825 219.818 141.36 224.586Z" fill="#FFC727"/>
<path d="M203.519 284.834C199.49 284.796 195.516 283.894 191.865 282.189C188.171 280.556 184.723 278.415 181.622 275.826L179.361 273.822C178.604 273.169 177.951 272.4 177.24 271.689C175.857 270.226 174.576 268.668 173.406 267.028C172.234 265.414 171.145 263.742 170.143 262.017C169.211 260.257 168.337 258.521 167.58 256.645C168.99 258.055 170.237 259.57 171.53 261.015L173.523 263.147C174.176 263.858 174.782 264.604 175.492 265.268C176.867 266.608 178.161 268.03 179.594 269.289C181.028 270.547 182.414 271.841 183.848 273.099C186.779 275.516 189.87 277.732 193.101 279.73C196.4 281.765 199.889 283.474 203.519 284.834Z" fill="#FFC727"/>
<path d="M328.932 115.091C325.004 112.448 320.909 110.062 316.673 107.948C314.603 106.923 312.47 106.031 310.287 105.279C308.141 104.508 305.924 103.954 303.668 103.624C299.036 102.938 294.365 102.549 289.684 102.459C285.022 102.319 280.21 102.296 275.385 102.191C280.044 100.89 284.823 100.062 289.649 99.7205C294.511 99.2785 299.409 99.4193 304.239 100.14C306.704 100.55 309.118 101.222 311.441 102.144C313.723 103.08 315.918 104.215 318.001 105.535C322.135 108.112 325.826 111.339 328.932 115.091Z" fill="#FFC727"/>
<path d="M343.243 267.762C346.215 264.081 348.94 260.208 351.4 256.167C352.602 254.195 353.677 252.147 354.616 250.037C355.562 247.965 356.307 245.807 356.842 243.593C357.904 239.046 358.682 234.438 359.173 229.795C359.732 225.134 360.152 220.368 360.676 215.578C361.573 220.321 361.983 225.144 361.9 229.97C361.909 234.848 361.342 239.71 360.21 244.455C359.588 246.873 358.709 249.217 357.588 251.447C356.462 253.64 355.139 255.727 353.637 257.682C350.736 261.578 347.226 264.982 343.243 267.762Z" fill="#FFC727"/>
<path d="M358.124 144.236L347.263 134.238C345.433 132.618 343.65 130.963 341.774 129.437C339.969 127.862 338.078 126.387 336.111 125.02C334.153 123.656 332.118 122.407 330.016 121.279C327.918 120.114 325.739 119.042 323.548 117.958C319.167 115.849 314.68 113.856 310.17 111.782C315.098 112.494 319.937 113.72 324.609 115.441C326.969 116.277 329.28 117.245 331.531 118.343C333.827 119.429 336.029 120.703 338.115 122.153C342.169 125.126 345.882 128.538 349.186 132.327C352.528 136.011 355.52 139.998 358.124 144.236Z" fill="#FFC727"/>
<path d="M371.001 193.122C369.265 188.601 367.505 184.172 365.722 179.779C364.766 177.6 363.904 175.397 362.902 173.253C362.424 172.169 361.946 171.086 361.434 170.025C360.921 168.965 360.455 167.869 359.895 166.832C357.868 162.567 355.584 158.453 353.183 154.386C350.782 150.319 348.032 146.474 345.247 142.5C349.105 145.469 352.536 148.955 355.444 152.86C358.383 156.746 360.928 160.915 363.042 165.306C363.589 166.389 364.056 167.52 364.545 168.627C365.034 169.734 365.535 170.841 365.943 171.983C366.806 174.314 367.621 176.539 368.274 178.87C369.705 183.506 370.619 188.286 371.001 193.122Z" fill="#FFC727"/>
<path d="M368.624 224.586C368.172 219.804 367.393 215.057 366.293 210.381C365.734 208.05 365.128 205.719 364.44 203.517L363.391 200.114L362.226 196.781C361.865 195.616 361.352 194.579 360.932 193.472C360.513 192.365 360.07 191.269 359.557 190.197L358.101 186.946L356.399 183.765C355.385 181.597 354.138 179.558 353.008 177.437C351.878 175.316 350.514 173.323 349.384 171.132C351.151 172.821 352.831 174.599 354.418 176.458C355.98 178.366 357.42 180.37 358.73 182.459C364.163 190.738 367.635 200.149 368.88 209.973C369.593 214.825 369.506 219.762 368.624 224.586Z" fill="#FFC727"/>
<path d="M306.465 284.834C310.09 283.492 313.575 281.798 316.871 279.777C320.107 277.781 323.203 275.566 326.135 273.146C327.569 271.887 329.037 270.687 330.389 269.335C331.741 267.983 333.104 266.655 334.491 265.315C335.202 264.651 335.808 263.905 336.46 263.194L338.453 261.061C339.747 259.616 340.982 258.101 342.404 256.691C341.646 258.521 340.772 260.304 339.84 262.063C338.838 263.788 337.749 265.461 336.577 267.074C335.4 268.712 334.115 270.269 332.731 271.736C332.032 272.447 331.379 273.216 330.622 273.868L328.361 275.873C325.259 278.459 321.811 280.6 318.118 282.235C314.464 283.924 310.49 284.81 306.465 284.834Z" fill="#FFC727"/>
<path d="M218.4 97.4597C221.268 95.959 224.331 94.8647 227.501 94.2084C230.693 93.5075 233.953 93.1675 237.22 93.1946C240.502 93.2602 243.769 93.6506 246.974 94.3599C250.158 95.0718 253.277 96.0503 256.297 97.2849L255.131 97.215C258.231 96.341 261.296 95.4787 264.454 94.8028C267.607 94.0403 270.813 93.5183 274.045 93.2412C275.714 93.1622 277.387 93.2677 279.033 93.5559C280.641 93.8122 282.214 94.1385 283.775 94.5347C286.878 95.3132 289.929 96.2823 292.912 97.4364C289.754 96.9586 286.619 96.4692 283.484 96.1312C280.444 95.6807 277.363 95.5868 274.301 95.8516C271.242 96.387 268.212 97.0794 265.223 97.9259C262.205 98.7882 259.152 99.604 256.157 100.525L255.598 100.699L254.98 100.466C252.108 99.3286 249.165 98.3788 246.17 97.6229C243.181 96.8303 240.134 96.277 237.057 95.9681C235.531 95.8283 233.969 95.7467 232.396 95.7583C230.823 95.77 229.273 95.7583 227.734 95.9215C224.585 96.1655 221.462 96.6801 218.4 97.4597Z" fill="#FFC727"/>
<path d="M220.498 207.339C223.613 208.534 226.881 209.287 230.205 209.577C231.826 209.709 233.456 209.654 235.064 209.414C236.728 209.154 238.368 208.765 239.97 208.248C238.615 209.404 237.025 210.251 235.309 210.73C234.891 210.885 234.457 210.995 234.016 211.057C233.573 211.127 233.142 211.22 232.699 211.278C231.807 211.348 230.911 211.348 230.018 211.278C228.251 211.161 226.513 210.768 224.868 210.113C223.255 209.461 221.774 208.521 220.498 207.339Z" fill="#FFC727"/>
<path d="M290.826 207.339C289.534 208.53 288.032 209.47 286.397 210.113C283.921 211.118 281.24 211.518 278.578 211.278C278.135 211.22 277.692 211.127 277.25 211.057C276.808 210.995 276.374 210.885 275.956 210.73C274.242 210.249 272.651 209.402 271.295 208.248C272.897 208.764 274.538 209.153 276.201 209.414C277.809 209.654 279.44 209.709 281.06 209.577C284.405 209.295 287.692 208.542 290.826 207.339Z" fill="#FFC727"/>
<path d="M232.244 212.245C234.718 213.275 237.309 213.999 239.959 214.401C241.194 214.594 242.452 214.594 243.688 214.401C244.238 214.282 244.77 214.094 245.273 213.842C245.76 213.587 246.195 213.243 246.555 212.828C248.327 210.998 249.809 208.907 250.948 206.628C252.168 204.345 253.186 201.958 253.989 199.497L255.609 194.427L257.322 199.473C258.127 201.866 259.093 204.202 260.212 206.465C260.756 207.578 261.375 208.653 262.065 209.682C262.709 210.694 263.463 211.632 264.314 212.478C265.139 213.286 266.139 213.891 267.237 214.247C268.335 214.603 269.501 214.7 270.642 214.529C273.187 214.232 275.649 213.441 277.89 212.199C275.926 214.086 273.523 215.455 270.898 216.184C269.51 216.509 268.067 216.533 266.668 216.254C265.179 216.003 263.783 215.36 262.625 214.39C261.503 213.517 260.503 212.498 259.653 211.36C258.796 210.27 258.017 209.122 257.322 207.922C255.967 205.562 254.843 203.076 253.966 200.499H257.299C256.397 203.185 255.226 205.774 253.803 208.225C252.382 210.737 250.519 212.972 248.303 214.821C247.697 215.353 247.008 215.782 246.263 216.091C245.516 216.378 244.731 216.551 243.933 216.604C242.462 216.661 240.992 216.468 239.586 216.033C236.937 215.207 234.453 213.925 232.244 212.245Z" fill="#FFC727"/>
<path d="M217.06 178.963C211.385 178.963 208.658 183.298 208.495 188.088C208.484 190.329 209.364 192.482 210.94 194.074C212.517 195.666 214.662 196.567 216.903 196.577C219.143 196.588 221.297 195.708 222.889 194.132C224.481 192.555 225.381 190.41 225.392 188.17C225.322 184.545 223.434 178.963 217.06 178.963Z" fill="#263238"/>
<path d="M294.497 178.963C288.821 178.963 286.094 183.298 285.931 188.088C285.92 190.329 286.8 192.482 288.377 194.074C289.954 195.666 292.098 196.567 294.339 196.577C296.58 196.588 298.733 195.708 300.325 194.132C301.917 192.555 302.818 190.41 302.829 188.17C302.794 184.545 300.871 178.963 294.497 178.963Z" fill="#263238"/>
<path d="M242.045 171.855C245.693 171.367 249.289 170.548 252.789 169.408C256.208 168.298 259.532 166.914 262.729 165.271C263.534 164.886 264.291 164.397 265.06 163.977L266.225 163.325L267.391 162.602L269.721 161.157C270.444 160.621 271.19 160.108 271.936 159.584L273.101 158.815L274.173 157.964L276.352 156.274C277.809 155.109 279.161 153.874 280.711 152.778C279.76 154.416 278.713 155.995 277.576 157.51C276.389 158.999 275.1 160.405 273.719 161.716C273.019 162.369 272.32 163.022 271.598 163.651C270.875 164.28 270.071 164.816 269.267 165.376L268.102 166.226L266.866 166.972C266.039 167.45 265.223 167.974 264.361 168.405C260.937 170.175 257.262 171.413 253.465 172.076C249.686 172.819 245.792 172.743 242.045 171.855Z" fill="#FFC727"/>
<path d="M272.367 165.539C274.931 165.061 277.378 164.711 279.813 164.373C282.249 164.035 284.615 163.558 286.98 163.08C289.346 162.602 291.641 161.984 293.972 161.309C296.303 160.633 298.517 159.689 300.964 158.745C299.386 160.85 297.371 162.587 295.056 163.837C292.748 165.081 290.271 165.98 287.703 166.506C285.157 167.017 282.559 167.217 279.965 167.1C277.363 167.002 274.796 166.475 272.367 165.539Z" fill="#FFC727"/>
<path d="M198.484 178.754C204.002 178.45 209.494 177.793 214.927 176.784C217.59 176.271 220.221 175.602 222.805 174.78C225.357 174.009 227.828 172.99 230.182 171.738C234.904 169.101 239.293 165.909 243.257 162.229C247.312 158.547 251.193 154.619 254.992 150.506C250.945 157.972 245.511 164.597 238.98 170.025C236.738 171.835 234.339 173.441 231.813 174.826C226.664 177.418 221.067 179 215.324 179.488C209.705 180.079 204.03 179.832 198.484 178.754Z" fill="#FFC727"/>
<path d="M264.174 193.052C261.844 194.322 255.656 196.665 255.656 196.665C255.656 196.665 249.433 194.334 247.137 193.052C245.681 192.26 244.399 190.722 244.655 189.44C244.911 188.158 251.531 187.47 255.656 187.47C259.781 187.47 266.424 188.309 266.668 189.44C266.913 190.57 265.631 192.26 264.174 193.052Z" fill="#FFC727"/>
<path opacity="0.5" d="M264.174 193.052C261.844 194.322 255.656 196.665 255.656 196.665C255.656 196.665 249.433 194.334 247.137 193.052C245.681 192.26 244.399 190.722 244.655 189.44C244.911 188.158 251.531 187.47 255.656 187.47C259.781 187.47 266.424 188.309 266.668 189.44C266.913 190.57 265.631 192.26 264.174 193.052Z" fill="black"/>
<path d="M238.549 255.363C240.495 256.61 242.348 257.693 244.224 258.661C246.1 259.628 247.988 260.537 249.911 261.364C251.834 262.192 253.803 262.938 255.831 263.613C256.833 264.021 257.87 264.278 258.907 264.685C259.944 265.093 261.005 265.373 262.077 265.851C260.959 266.118 259.821 266.294 258.674 266.375C257.528 266.432 256.378 266.401 255.236 266.282C252.935 266.038 250.682 265.461 248.547 264.569C246.428 263.652 244.463 262.414 242.721 260.898C240.908 259.413 239.477 257.515 238.549 255.363Z" fill="#FFC727"/>
<path d="M258.359 260.618C260.958 260.618 263.254 260.921 265.596 261.131L269.092 261.458C270.258 261.597 271.423 261.644 272.775 261.889C270.55 263.217 267.946 263.767 265.375 263.45C264.103 263.328 262.853 263.038 261.657 262.588C260.443 262.147 259.324 261.478 258.359 260.618Z" fill="#FFC727"/>
<g opacity="0.8">
<path d="M418.989 344.989C418.89 349.659 417.182 354.153 414.155 357.711C411.128 361.268 406.966 363.674 402.372 364.52C400.6 380.252 386.884 399.678 360.711 399.678C345.923 399.678 335.074 393.735 328.303 385.403C324.568 387.065 320.517 387.9 316.428 387.85C312.065 387.915 307.744 386.982 303.796 385.123C303.982 386.685 304.087 388.211 304.122 389.668C304.472 405.878 290.744 428.893 262.263 428.893C238.514 428.893 224.973 413.592 221.919 397.65C217.692 400.002 212.924 401.207 208.087 401.146C194.103 401.146 185.689 392.884 182.869 383.666C175.877 390.903 165.692 396.124 152.116 396.124C129.974 396.124 116.701 382.757 112.494 367.993C107.398 372.606 100.72 375.077 93.8489 374.891C75.961 374.891 67.1744 361.35 67.5589 349.51C68.0367 334.769 77.7906 322.288 93.8489 322.288C95.5114 322.281 97.1717 322.41 98.8133 322.673C98.111 320.539 97.7837 318.299 97.846 316.054C98.2306 304.33 106.003 294.425 118.741 294.425C134.123 294.425 139.635 306.929 140.031 315.692C143.934 314.58 147.976 314.027 152.034 314.049C180.468 314.049 191.737 335.806 193.602 352.727C197.885 349.947 202.9 348.507 208.005 348.59C219.787 348.59 226.977 354.416 230.904 361.49C237.896 352.61 248.629 346.9 262.182 346.9C274.826 346.9 284.067 351.212 290.616 357.481C292.947 345.059 302.188 335.34 316.347 335.34C319.677 335.3 322.988 335.836 326.135 336.925C328.719 332.421 332.194 328.491 336.347 325.376C340.501 322.26 345.246 320.024 350.293 318.804C350.293 318.641 350.293 318.477 350.293 318.326C350.677 306.603 358.45 296.697 371.176 296.697C386.873 296.697 392.303 309.726 392.49 318.512C392.51 320.362 392.235 322.203 391.674 323.966C393.624 323.422 395.64 323.151 397.664 323.162C413.373 323.162 418.803 336.202 418.989 344.989Z" fill="#FFC727"/>
<path opacity="0.8" d="M418.989 344.989C418.89 349.659 417.182 354.153 414.155 357.711C411.128 361.268 406.966 363.674 402.372 364.52C400.6 380.252 386.884 399.678 360.711 399.678C345.923 399.678 335.074 393.735 328.303 385.403C324.568 387.065 320.517 387.9 316.428 387.85C312.065 387.915 307.744 386.982 303.796 385.123C303.982 386.685 304.087 388.211 304.122 389.668C304.472 405.878 290.744 428.893 262.263 428.893C238.514 428.893 224.973 413.592 221.919 397.65C217.692 400.002 212.924 401.207 208.087 401.146C194.103 401.146 185.689 392.884 182.869 383.666C175.877 390.903 165.692 396.124 152.116 396.124C129.974 396.124 116.701 382.757 112.494 367.993C107.398 372.606 100.72 375.077 93.8489 374.891C75.961 374.891 67.1744 361.35 67.5589 349.51C68.0367 334.769 77.7906 322.288 93.8489 322.288C95.5114 322.281 97.1717 322.41 98.8133 322.673C98.111 320.539 97.7837 318.299 97.846 316.054C98.2306 304.33 106.003 294.425 118.741 294.425C134.123 294.425 139.635 306.929 140.031 315.692C143.934 314.58 147.976 314.027 152.034 314.049C180.468 314.049 191.737 335.806 193.602 352.727C197.885 349.947 202.9 348.507 208.005 348.59C219.787 348.59 226.977 354.416 230.904 361.49C237.896 352.61 248.629 346.9 262.182 346.9C274.826 346.9 284.067 351.212 290.616 357.481C292.947 345.059 302.188 335.34 316.347 335.34C319.677 335.3 322.988 335.836 326.135 336.925C328.719 332.421 332.194 328.491 336.347 325.376C340.501 322.26 345.246 320.024 350.293 318.804C350.293 318.641 350.293 318.477 350.293 318.326C350.677 306.603 358.45 296.697 371.176 296.697C386.873 296.697 392.303 309.726 392.49 318.512C392.51 320.362 392.235 322.203 391.674 323.966C393.624 323.422 395.64 323.151 397.664 323.162C413.373 323.162 418.803 336.202 418.989 344.989Z" fill="white"/>
</g>
<g opacity="0.8">
<path d="M78.4898 270.151C65.135 270.151 57.0243 280.534 56.6164 292.805C56.2901 302.652 63.6084 313.933 78.4898 313.933C93.6392 313.933 101.016 301.65 100.818 292.957C100.62 283.844 94.9327 270.151 78.4898 270.151Z" fill="#FFC727"/>
<path opacity="0.8" d="M78.4898 270.151C65.135 270.151 57.0243 280.534 56.6164 292.805C56.2901 302.652 63.6084 313.933 78.4898 313.933C93.6392 313.933 101.016 301.65 100.818 292.957C100.62 283.844 94.9327 270.151 78.4898 270.151Z" fill="white"/>
</g>
<g opacity="0.8">
<path d="M416.904 300.939C407.651 300.939 402.034 308.129 401.754 316.625C401.533 323.442 406.59 331.25 416.904 331.25C427.392 331.25 432.484 322.754 432.356 316.764C432.216 310.39 428.277 300.939 416.904 300.939Z" fill="#FFC727"/>
<path opacity="0.8" d="M416.904 300.939C407.651 300.939 402.034 308.129 401.754 316.625C401.533 323.442 406.59 331.25 416.904 331.25C427.392 331.25 432.484 322.754 432.356 316.764C432.216 310.39 428.277 300.939 416.904 300.939Z" fill="white"/>
</g>
<g opacity="0.8">
<path d="M392.839 247.975C385.335 247.975 380.778 253.801 380.557 260.7C380.37 266.247 384.484 272.575 392.839 272.575C394.434 272.632 396.025 272.373 397.52 271.812C399.014 271.25 400.382 270.398 401.545 269.305C402.708 268.211 403.642 266.898 404.294 265.441C404.946 263.984 405.303 262.412 405.343 260.817C405.273 255.642 402.08 247.975 392.839 247.975Z" fill="#FFC727"/>
<path opacity="0.8" d="M392.839 247.975C385.335 247.975 380.778 253.801 380.557 260.7C380.37 266.247 384.484 272.575 392.839 272.575C394.434 272.632 396.025 272.373 397.52 271.812C399.014 271.25 400.382 270.398 401.545 269.305C402.708 268.211 403.642 266.898 404.294 265.441C404.946 263.984 405.303 262.412 405.343 260.817C405.273 255.642 402.08 247.975 392.839 247.975Z" fill="white"/>
</g>
<g opacity="0.8">
<path d="M151.545 275.686C144.028 275.686 139.472 281.513 139.25 288.412C139.064 293.947 143.178 300.286 151.545 300.286C153.148 300.354 154.748 300.1 156.252 299.542C157.756 298.984 159.133 298.131 160.304 297.034C161.474 295.937 162.415 294.618 163.07 293.154C163.725 291.689 164.081 290.109 164.119 288.505C163.967 283.308 160.774 275.686 151.545 275.686Z" fill="#FFC727"/>
<path opacity="0.8" d="M151.545 275.686C144.028 275.686 139.472 281.513 139.25 288.412C139.064 293.947 143.178 300.286 151.545 300.286C153.148 300.354 154.748 300.1 156.252 299.542C157.756 298.984 159.133 298.131 160.304 297.034C161.474 295.937 162.415 294.618 163.07 293.154C163.725 291.689 164.081 290.109 164.119 288.505C163.967 283.308 160.774 275.686 151.545 275.686Z" fill="white"/>
</g>
<g opacity="0.8">
<path d="M96.0631 229.166C90.6443 229.166 87.358 233.373 87.1949 238.349C87.167 239.507 87.3797 240.658 87.8197 241.729C88.2597 242.8 88.9173 243.769 89.7509 244.573C90.5845 245.377 91.576 245.999 92.6625 246.4C93.749 246.801 94.907 246.972 96.0631 246.902C97.2154 246.949 98.3655 246.766 99.4464 246.364C100.527 245.962 101.517 245.349 102.359 244.56C103.201 243.772 103.877 242.824 104.348 241.772C104.82 240.719 105.078 239.583 105.106 238.43C105.025 234.69 102.729 229.166 96.0631 229.166Z" fill="#FFC727"/>
<path opacity="0.8" d="M96.0631 229.166C90.6443 229.166 87.358 233.373 87.1949 238.349C87.167 239.507 87.3797 240.658 87.8197 241.729C88.2597 242.8 88.9173 243.769 89.7509 244.573C90.5845 245.377 91.576 245.999 92.6625 246.4C93.749 246.801 94.907 246.972 96.0631 246.902C97.2154 246.949 98.3655 246.766 99.4464 246.364C100.527 245.962 101.517 245.349 102.359 244.56C103.201 243.772 103.877 242.824 104.348 241.772C104.82 240.719 105.078 239.583 105.106 238.43C105.025 234.69 102.729 229.166 96.0631 229.166Z" fill="white"/>
</g>
<g opacity="0.8">
<path d="M369.498 269.405C364.079 269.405 360.793 273.612 360.629 278.588C360.602 279.746 360.814 280.897 361.254 281.968C361.694 283.04 362.352 284.008 363.185 284.812C364.019 285.616 365.011 286.238 366.097 286.639C367.184 287.04 368.342 287.211 369.498 287.142C370.65 287.188 371.8 287.005 372.881 286.603C373.962 286.201 374.952 285.588 375.794 284.799C376.635 284.011 377.311 283.063 377.783 282.011C378.255 280.958 378.512 279.822 378.541 278.67C378.459 274.929 376.21 269.405 369.498 269.405Z" fill="#FFC727"/>
<path opacity="0.8" d="M369.498 269.405C364.079 269.405 360.793 273.612 360.629 278.588C360.602 279.746 360.814 280.897 361.254 281.968C361.694 283.04 362.352 284.008 363.185 284.812C364.019 285.616 365.011 286.238 366.097 286.639C367.184 287.04 368.342 287.211 369.498 287.142C370.65 287.188 371.8 287.005 372.881 286.603C373.962 286.201 374.952 285.588 375.794 284.799C376.635 284.011 377.311 283.063 377.783 282.011C378.255 280.958 378.512 279.822 378.541 278.67C378.459 274.929 376.21 269.405 369.498 269.405Z" fill="white"/>
</g>
<path d="M166.857 339.395C171.967 339.395 176.11 335.253 176.11 330.142C176.11 325.032 171.967 320.89 166.857 320.89C161.747 320.89 157.604 325.032 157.604 330.142C157.604 335.253 161.747 339.395 166.857 339.395Z" fill="white"/>
<path d="M375.021 319.445C380.132 319.445 384.274 315.302 384.274 310.192C384.274 305.082 380.132 300.939 375.021 300.939C369.911 300.939 365.769 305.082 365.769 310.192C365.769 315.302 369.911 319.445 375.021 319.445Z" fill="white"/>
<path d="M407.255 349.289C412.365 349.289 416.507 345.146 416.507 340.036C416.507 334.926 412.365 330.783 407.255 330.783C402.144 330.783 398.002 334.926 398.002 340.036C398.002 345.146 402.144 349.289 407.255 349.289Z" fill="white"/>
<path d="M85.2021 294.332C90.3123 294.332 94.4549 290.189 94.4549 285.079C94.4549 279.969 90.3123 275.826 85.2021 275.826C80.092 275.826 75.9494 279.969 75.9494 285.079C75.9494 290.189 80.092 294.332 85.2021 294.332Z" fill="white"/>
<path d="M101.738 346.888C106.848 346.888 110.991 342.746 110.991 337.636C110.991 332.525 106.848 328.383 101.738 328.383C96.6281 328.383 92.4855 332.525 92.4855 337.636C92.4855 342.746 96.6281 346.888 101.738 346.888Z" fill="white"/>
<path d="M160.215 283.447C160.215 284.478 159.909 285.485 159.337 286.341C158.765 287.198 157.951 287.866 156.999 288.26C156.047 288.654 155 288.757 153.99 288.556C152.979 288.355 152.051 287.859 151.322 287.131C150.594 286.402 150.098 285.474 149.897 284.464C149.696 283.453 149.799 282.406 150.193 281.454C150.588 280.502 151.255 279.689 152.112 279.116C152.968 278.544 153.976 278.238 155.006 278.238C156.387 278.238 157.712 278.787 158.689 279.764C159.666 280.741 160.215 282.066 160.215 283.447Z" fill="white"/>
<path d="M401.521 256.447C401.521 257.477 401.216 258.484 400.643 259.341C400.071 260.197 399.257 260.865 398.305 261.259C397.354 261.653 396.306 261.757 395.296 261.556C394.285 261.355 393.357 260.858 392.629 260.13C391.9 259.401 391.404 258.473 391.203 257.463C391.002 256.452 391.105 255.405 391.5 254.453C391.894 253.501 392.561 252.688 393.418 252.115C394.275 251.543 395.282 251.238 396.312 251.238C397.694 251.238 399.019 251.786 399.995 252.763C400.972 253.74 401.521 255.065 401.521 256.447Z" fill="white"/>
<path d="M427.485 310.518C427.485 311.548 427.179 312.556 426.607 313.412C426.035 314.269 425.221 314.936 424.269 315.331C423.317 315.725 422.27 315.828 421.259 315.627C420.249 315.426 419.321 314.93 418.592 314.202C417.864 313.473 417.368 312.545 417.167 311.534C416.966 310.524 417.069 309.477 417.463 308.525C417.857 307.573 418.525 306.759 419.382 306.187C420.238 305.615 421.245 305.309 422.276 305.309C423.657 305.309 424.982 305.858 425.959 306.835C426.936 307.812 427.485 309.137 427.485 310.518Z" fill="white"/>
<path d="M375.802 274.766C375.802 275.381 375.62 275.983 375.278 276.494C374.936 277.006 374.45 277.405 373.881 277.64C373.313 277.876 372.687 277.937 372.084 277.817C371.48 277.697 370.926 277.401 370.491 276.966C370.055 276.531 369.759 275.976 369.639 275.373C369.519 274.769 369.581 274.143 369.816 273.575C370.052 273.006 370.45 272.52 370.962 272.179C371.474 271.837 372.075 271.654 372.691 271.654C373.1 271.653 373.505 271.732 373.883 271.888C374.261 272.044 374.605 272.273 374.894 272.562C375.183 272.851 375.413 273.195 375.568 273.573C375.724 273.951 375.804 274.357 375.802 274.766Z" fill="white"/>
<path d="M98.6268 237.358C100.345 237.358 101.738 235.965 101.738 234.247C101.738 232.529 100.345 231.135 98.6268 231.135C96.9084 231.135 95.5154 232.529 95.5154 234.247C95.5154 235.965 96.9084 237.358 98.6268 237.358Z" fill="white"/>
<path d="M282.919 368.863C284.744 361.79 280.49 354.576 273.417 352.751C266.344 350.926 259.13 355.18 257.305 362.253C255.48 369.326 259.734 376.54 266.807 378.365C273.88 380.191 281.094 375.936 282.919 368.863Z" fill="white"/>
<path d="M396.72 386.929C396.72 386.929 389.064 410.702 383.016 426.819C376.967 442.935 360.326 502.449 321.101 502.449H153.969C114.743 502.449 98.1024 442.935 92.0543 426.819C86.0062 410.702 78.3499 386.929 78.3499 386.929H396.72Z" fill="#455A64"/>
<path d="M396.72 386.929C396.72 386.929 395.729 390.017 394.179 394.714L84.3631 405.039C80.9719 395.052 78.3499 386.929 78.3499 386.929H396.72Z" fill="#37474F"/>
<path d="M405.518 364.765H69.5517C68.826 364.766 68.1087 364.919 67.4461 365.215C66.7834 365.51 66.1902 365.942 65.7047 366.481C65.2192 367.02 64.8523 367.655 64.6277 368.345C64.4031 369.035 64.3259 369.765 64.4009 370.486L65.6478 382.291C65.7748 383.567 66.3708 384.75 67.3203 385.611C68.2697 386.472 69.5051 386.95 70.7869 386.953H404.283C405.565 386.95 406.8 386.472 407.75 385.611C408.699 384.75 409.295 383.567 409.422 382.291L410.669 370.486C410.744 369.765 410.667 369.035 410.442 368.345C410.217 367.655 409.851 367.02 409.365 366.481C408.88 365.942 408.286 365.51 407.624 365.215C406.961 364.919 406.244 364.766 405.518 364.765Z" fill="#455A64"/>
</svg>
