<svg width="27659" height="27026" viewBox="0 0 27659 27026" fill="none" xmlns="http://www.w3.org/2000/svg">
<path d="M4535.97 21459.4H2288.76V22174.6H4535.97V21459.4Z" fill="#EBEBEB"/>
<path d="M15998.3 3984.03H13751.1V4699.23H15998.3V3984.03Z" fill="#EBEBEB"/>
<path d="M3282.62 23076.4C2908.09 23082.8 1964.08 23098.8 1602.33 23103.2H1035.41H1006.65V23073.8V22358.6V22330.5H1038.61L2162.21 22335C2441.52 22335 3005.88 22343.9 3285.82 22347.8H3301.16V22362.5L3286.46 23077.7L3282.62 23076.4ZM3282.62 23076.4L3267.28 22361.2L3282.62 22376.5C3002.04 22380.4 2438.96 22386.8 2159.02 22389.3L1035.41 22394.4L1067.37 22362.5V23077.7L1037.97 23048.9H1594.66C1950.66 23053.4 2916.4 23069.4 3285.18 23075.1L3282.62 23076.4Z" fill="#EBEBEB"/>
<path d="M24296.2 14097.8C23921.7 14104.2 22977.7 14120.1 22615.9 14124H22049H22020.3V14094.6L22017.1 13382.6V13350.6H22049L23172.6 13355.1C23452.6 13355.1 24016.9 13363.4 24296.2 13367.2H24311.6V13382.6L24296.2 14097.8ZM24296.2 14097.8L24280.9 13382.6L24296.2 13397.9C24016.3 13401.7 23453.2 13407.5 23172.6 13410L22049 13414.5L22081 13382.6V14097.8L22051.6 14068.4H22608.9C22964.9 14072.2 23930.6 14088.2 24298.8 14094.6L24296.2 14097.8Z" fill="#EBEBEB"/>
<path d="M23042.9 14999.6C22668.3 15006 21724.3 15022 21362.6 15025.8L20795.7 15029H20766.9V14999.6L20763.7 14284.4V14252.4H20795.7L21919.3 14256.9C22199.2 14256.9 22762.9 14265.2 23042.9 14269.1H23058.2V14283.8L23042.9 14998.9V14999.6ZM23042.9 14999.6L23027.5 14284.4L23042.9 14299.7C22762.3 14303.6 22199.9 14309.3 21919.3 14311.9L20795.7 14316.3L20827.6 14284.4V14999.6L20798.2 14970.2L21354.9 14973.4C21711.5 14977.2 22677.3 14993.2 23045.4 14999.6H23042.9Z" fill="#EBEBEB"/>
<path d="M21794.6 13382.6H19547.4V14097.8H21794.6V13382.6Z" fill="#EBEBEB"/>
<path d="M27475.3 22361.2H25228.1V23076.4H27475.3V22361.2Z" fill="#EBEBEB"/>
<path d="M26222 275.746H23974.7V990.942H26222V275.746Z" fill="#EBEBEB"/>
<path d="M27475.3 1892.77C27100.8 1899.16 26156.8 1915.14 25795 1919.61H25228.1H25199.3V1890.21L25196.1 1175.02V1143.06H25228.1L26351.7 1147.53C26631.6 1147.53 27195.4 1155.84 27475.3 1160.32H27490.6V1175.02L27475.3 1890.21V1892.77ZM27475.3 1892.77L27460 1175.02L27475.3 1190.35C27194.7 1194.19 26632.3 1200.58 26351.7 1202.5L25228.1 1206.97L25260 1175.02V1890.21L25230.6 1861.45H25787.3C26144 1865.29 27109.7 1881.9 27477.9 1887.66L27475.3 1892.77Z" fill="#EBEBEB"/>
<path d="M4535.98 990.944C4161.44 997.336 3217.43 1013.31 2855.68 1017.79H2288.76H2260V988.388V273.191V241.234H2291.96L3415.57 245.708C3695.51 245.708 4259.23 254.017 4539.17 258.491H4554.51V273.191L4539.17 988.388L4535.98 990.944ZM4535.98 990.944L4520.64 275.748L4535.98 291.087C4255.39 294.922 3692.31 301.314 3412.37 303.231L2288.76 307.705L2320.72 275.748V990.944L2291.32 962.183H2848.01C3204.01 966.018 4169.75 982.636 4538.53 988.388L4535.98 990.944Z" fill="#EBEBEB"/>
<path d="M2821.8 0.277344V10076.9H10202.6V0.277344H2821.8ZM9930.31 9803.39H3091.52V272.551H9930.31V9803.39Z" fill="#EBEBEB"/>
<path d="M9930.31 272.551H3094.72V9804.67H9930.31V272.551Z" fill="white"/>
<path d="M3094.08 5813.25L9929.67 5813.25V5540.97L3094.08 5540.97V5813.25Z" fill="#EBEBEB"/>
<path d="M2320.08 10858L10703 10858V10076.3L2320.08 10076.3V10858Z" fill="#DBDBDB"/>
<path d="M3094.08 271.91H9932.86V7266.01H3094.08V271.91ZM9677.21 527.566H3346.54V7014.19H9677.85L9677.21 527.566Z" fill="#DBDBDB"/>
<path d="M7748.29 271.91H7612.15V7013.55H7748.29V271.91Z" fill="#DBDBDB"/>
<path d="M5412.23 271.91H5276.1V7013.55H5412.23V271.91Z" fill="#DBDBDB"/>
<path d="M18308.8 0.277344V10076.9H25688.9V0.277344H18308.8ZM25416.6 9803.39H18581V272.551H25419.8L25416.6 9803.39Z" fill="#EBEBEB"/>
<path d="M25416.6 272.551H18581V9804.67H25416.6V272.551Z" fill="white"/>
<path d="M18581.1 5813.25L25416.6 5813.25V5540.97L18581.1 5540.97V5813.25Z" fill="#EBEBEB"/>
<path d="M17807.7 10858L26190.6 10858V10076.3L17807.7 10076.3V10858Z" fill="#DBDBDB"/>
<path d="M18581 271.91H25419.8V7266.01H18581V271.91ZM25164.2 527.566H18832.9V7014.19H25164.2V527.566Z" fill="#DBDBDB"/>
<path d="M23234.6 271.91H23098.5V7013.55H23234.6V271.91Z" fill="#DBDBDB"/>
<path d="M20898.6 271.91H20762.4V7013.55H20898.6V271.91Z" fill="#DBDBDB"/>
<path d="M6115.29 19968.3H3542.75L2070.18 12627.7L4426.04 11545L6115.29 19968.3Z" fill="#DBDBDB"/>
<path d="M13478.8 19968.3H6115.29L4426.04 11545H11789.6L13478.8 19968.3Z" fill="#EBEBEB"/>
<path d="M4794.83 16029.9H851.979V24120.1H4794.83V16029.9Z" fill="#DBDBDB"/>
<path d="M15371.3 24119.5H14293.7L12688.8 16029.9H15371.3V24119.5Z" fill="#DBDBDB"/>
<path d="M6961.51 16029.9H4794.83V24120.1H6961.51V16029.9Z" fill="#EBEBEB"/>
<path d="M17538 16029.9H15371.3V24120.1H17538V16029.9Z" fill="#EBEBEB"/>
<path d="M15371.3 19968.2H6960.87V24119.5H15371.3V19968.2Z" fill="#EBEBEB"/>
<path d="M15371.3 18173.5H6960.87V19984.9H15371.3V18173.5Z" fill="#EBEBEB"/>
<path d="M5325.31 16029.9L6143.41 16015.2L6960.87 16005H6985.79V16029.9L6994.74 16976.4L6998.58 17923C6998.58 18554.5 7003.05 19185.3 6998.58 19816.8C6994.1 20448.2 6998.58 21079.1 6987.71 21710.5C6976.84 22342 6973.65 22972.8 6960.23 23603.7C6947.02 22972.6 6937.86 22341.6 6932.74 21710.5C6925.07 21079.1 6924.44 20448.2 6921.88 19816.8C6919.32 19185.3 6921.88 18554.5 6921.88 17923L6925.07 16976.4L6934.02 16029.9L6958.95 16054.8L6141.49 16044.6L5325.31 16029.9Z" fill="#DBDBDB"/>
<path d="M15371.3 16029.9C15387.9 16663.3 15396.2 17296.7 15402.6 17930L15412.2 19830.8L15405.8 21731L15394.3 22681.4L15374.5 23631.8L15354.7 22681.4L15341.9 21731L15332.3 19830.8L15341.9 17930C15346.4 17296.7 15354 16663.3 15371.3 16029.9Z" fill="#DBDBDB"/>
<path d="M15371.3 19965.7C14668.2 19982.3 13969.7 19990.6 13268.5 19997L11166.4 20006.6L9063.63 19997L8012.25 19985.5L6960.87 19965.7L8012.25 19945.9L9063.63 19934.4L11166.4 19924.8L13268.5 19934.4C13969.7 19943.3 14670.2 19951.6 15371.3 19965.7Z" fill="#DBDBDB"/>
<path d="M15371.3 18176.1C14668.2 18192.7 13969.7 18201 13268.5 18207.4L11166.4 18217L9063.63 18207.4L8012.25 18195.9L6960.87 18176.1L8012.25 18156.3L9063.63 18144.8L11166.4 18135.2L13268.5 18144.8C13969.7 18148.6 14670.2 18156.9 15371.3 18176.1Z" fill="#DBDBDB"/>
<path d="M2350.12 24119.5L2297.07 24775.2L2172.44 26289.3H1601.69L1477.06 24775.2L1423.37 24119.5H2350.12Z" fill="#C7C7C7"/>
<path d="M1423.37 24119.5H2350.12L2297.07 24775.2H1477.06L1423.37 24119.5Z" fill="#A6A6A6"/>
<path d="M6340.9 24119.5L6287.85 24775.2L6163.22 26289.3H5592.47L5467.84 24775.2L5414.79 24119.5H6340.9Z" fill="#C7C7C7"/>
<path d="M5414.79 24119.5H6340.9L6287.85 24775.2H5467.84L5414.79 24119.5Z" fill="#A6A6A6"/>
<path d="M12960.5 24119.5L12907.4 24775.2L12782.8 26289.3H12212L12087.4 24775.2L12034.4 24119.5H12960.5Z" fill="#C7C7C7"/>
<path d="M12034.4 24119.5H12960.5L12907.4 24775.2H12087.4L12034.4 24119.5Z" fill="#A6A6A6"/>
<path d="M16952.5 24119.5L16898.8 24775.2L16774.8 26289.3H16203.5L16079.5 24775.2L16025.8 24119.5H16952.5Z" fill="#C7C7C7"/>
<path d="M16952.5 24119.5L16898.8 24775.2H16079.5L16025.8 24119.5H16952.5Z" fill="#A6A6A6"/>
<path d="M851.979 26289.3C9438.81 26250.4 19071.9 26249.7 27658.7 26289.3C19071.9 26329 9438.81 26328.3 851.979 26289.3Z" fill="#263238"/>
<path d="M3218.07 15454C3238.31 15111.5 3286.62 14771.2 3362.52 14436.5C3434.1 14135.5 3535.72 13828 3725.55 13578.8C3899.39 13351.9 4148.02 13171 4437.55 13135.2C4716.21 13101.3 4978.26 13225.3 5186.62 13401.1C5442.27 13619 5642.32 13907.3 5825.76 14186.6C6029.07 14499.2 6214.09 14823.4 6379.89 15157.5C6385.64 15169 6369.02 15177.9 6363.27 15167C6219.86 14883.4 6054.23 14611.6 5867.94 14354.1C5697.96 14107.4 5506.77 13876 5296.55 13662.5C5104.81 13475.9 4861.94 13300.8 4585.19 13291.8C4308.44 13282.9 4054.7 13438.2 3888.53 13651C3702.54 13888.8 3608.58 14186 3537.64 14475.5C3464.37 14794 3416.5 15117.7 3394.47 15443.8C3340.15 16113.6 3325.45 16786 3310.11 17459C3301.58 17839.5 3295.83 18219.8 3292.85 18599.9C3292.85 18791.6 3292.85 18983.3 3288.38 19175.1C3295.64 19361.2 3288.16 19547.5 3266.01 19732.4C3259.61 19769.5 3202.09 19766.3 3192.51 19732.4C3169.92 19557.4 3161.37 19380.9 3166.94 19204.5C3166.94 19021.7 3161.83 18838.9 3160.55 18656.7C3160.55 18301.4 3155.43 17946.7 3156.71 17591.3C3161.19 16879.9 3169.5 16164.7 3218.07 15454Z" fill="#263238"/>
<path d="M4174.86 14948.5C4210.01 14756.7 4273.93 14512.6 4381.94 14365.6C4573.68 14101.6 4785.24 14216.6 4591.58 14508.7C4448.59 14725.4 4355.78 14971.3 4319.95 15228.4C4319.95 15228.4 4645.27 15694.3 5038.34 15923.8C5021.72 15744.8 4971.23 15469.4 5006.38 15203.5C5081.8 14628.2 5429.49 14660.8 5343.21 15117.8C5274.18 15484.1 5246.06 15873.3 5264.59 16042C5396.07 16127.1 5537.26 16196.2 5685.15 16247.8C5662.14 16183.9 5638.49 16101.5 5612.28 16004.3C5472.31 15488.5 5816.17 15327.5 5827.03 15620.8C5849.29 15868.3 5894 16113.3 5960.62 16352.6C6152.36 16416.6 6305.75 16459.4 6401.62 16492.6C6649.27 16584.6 6870.5 16736 7045.87 16933.6C7225.07 16771.8 7373.79 16579.1 7484.96 16364.8C7364.8 16261.2 7174.98 16109.1 6909.74 15921.2C6415.68 15572.3 6590.17 15131.2 6979.4 15405.4C7262.54 15603.6 7481.13 15969.8 7580.83 16158.3C7714.51 15830.4 7790.41 15481.9 7805.17 15128.1C7416.57 14763.7 6457.23 14255.6 6746.12 14255.6C7006.88 14255.6 7589.14 14639.1 7803.25 14784.8C7797.55 14684.6 7786.45 14584.8 7770.02 14485.7C7404.43 14246 6216.91 13872.8 6406.09 13765.4C6613.82 13647.8 7442.78 14031.9 7693.32 14153.4C7646.29 13990.3 7571.94 13836.5 7473.46 13698.3C6968.54 13021.5 6057.76 12788.8 5660.22 12917.3C5379 13008.7 5461.45 13722.6 5400.73 13698.3C4273.29 13240.7 3759.42 13562.2 4174.86 14948.5ZM6944.25 14870.5C7024.14 14773.3 7391.65 15058.4 7287.47 15214.3C7183.29 15370.3 6841.35 14994.5 6944.25 14870.5ZM5007.02 14261.4C5104.17 14325.3 4960.36 14684.5 4809.53 14575.2C4681.7 14481.9 4908.59 14198.7 5007.02 14261.4Z" fill="#FFC727"/>
<path d="M5154.66 14372C5205.79 14271 5258.84 14170.6 5317 14074.1C5370.44 13978 5432.93 13887.3 5503.63 13803.1C5487.65 13783.3 5472.31 13762.9 5455.69 13743.7C5448.66 13735.4 5460.17 13724.5 5467.2 13732.2C5486.37 13753.9 5504.27 13776.3 5522.8 13796.1C5526.3 13798.1 5529 13801.3 5530.47 13805C5600.35 13890.3 5666.4 13975.5 5728.61 14060.7C5839.8 14086.3 5949.48 14118.1 6057.12 14155.9C6167.7 14193 6277.63 14231.3 6385 14276.7C6396.51 14281.8 6390.75 14300.4 6379.89 14295.3C6273.15 14248 6164.5 14202.6 6053.93 14167.4C5943.36 14132.3 5843.01 14103.5 5734.36 14074.8C5768.87 14124 5802.75 14172.5 5835.34 14222.4C6034.83 14285.8 6228.9 14365.1 6415.68 14459.5C6611.26 14552.8 6799.16 14660.8 6990.91 14769.5C7001.77 14775.9 6990.91 14792.5 6981.32 14786.1C6796.68 14678 6606.61 14579.4 6411.85 14490.8C6229.69 14405.8 6041.79 14336.2 5858.99 14255C6319.17 14980.4 6595.92 15811.3 6969.18 16578.3C6974.29 16589.1 6957.03 16598.7 6952.56 16587.2C6839.43 16317.5 6709.68 16054.8 6586.33 15788.9C6475.76 15550.5 6368.39 15310.8 6257.81 15072.4C6225.43 15003 6192.2 14933.3 6158.11 14863.4C6178.56 15246.9 6170.25 15640 6233.53 16020.3C6233.53 16022.8 6232.52 16025.3 6230.72 16027.1C6228.92 16028.9 6226.48 16029.9 6223.94 16029.9C6221.4 16029.9 6218.96 16028.9 6217.16 16027.1C6215.36 16025.3 6214.35 16022.8 6214.35 16020.3C6187.51 15609.3 6115.29 15204.7 6118.48 14791.2C6118.12 14789.3 6118.12 14787.4 6118.48 14785.5C6040.51 14628.2 5956.78 14473.6 5866.66 14322.7C5713.91 14682.6 5553.48 15048.2 5483.18 15434.8C5483.18 15446.3 5462.09 15441.2 5465.28 15429.1C5568.82 15041.8 5665.33 14653.8 5848.77 14295.3C5750.79 14132.1 5642.11 13975.6 5523.44 13826.8C5472.31 13922.6 5406.48 14012.8 5348.32 14104.2C5290.16 14195.5 5235.83 14283.8 5182.78 14375.8C5069.18 14570.5 4972.73 14774.7 4894.53 14986.2C4890.06 14997.7 4871.52 14991.3 4876 14980.4C4964.84 14777.2 5051.76 14571.4 5154.66 14372Z" fill="#263238"/>
<path d="M1517.96 15248.2C1814.52 14951 2157.1 14561.1 2616 14561.8C3057.65 14561.8 3382.97 14918.4 3568.96 15285.3C3764.54 15668.8 3834.2 16104 3888.53 16526.5C3953.05 17033 3992.09 17542.4 4005.49 18052.7C4013.16 18335.9 4012.52 18619.7 4005.49 18902.8C4006.28 19190.1 3984.92 19477.1 3941.58 19761.2C3933.27 19806.5 3860.41 19808.5 3857.21 19761.2C3844.43 19522.1 3857.21 19282.5 3857.21 19044.1C3857.21 18805.7 3857.21 18573.6 3845.71 18341C3828.45 17865.5 3793.94 17390.6 3738.33 16918.3C3689.12 16506 3650.77 16081.6 3527.42 15682.8C3416.21 15323 3207.85 14912 2842.9 14754.2C2343.73 14533 1856.07 14927.4 1536.5 15260.4C1524.35 15268.7 1509.65 15256.5 1517.96 15248.2Z" fill="#263238"/>
<path d="M7.67702 15911.6C7.67702 15972.4 13.4293 16032.4 17.9032 16091.2C160.419 15985 327.12 15915.8 503.01 15889.9C922.924 15845.8 896.08 16165.4 615.498 16178.8C418.244 16181.4 223.188 16220.6 40.2731 16294.5C108.661 16849.3 261.415 17296 284.424 17301.8C657.283 17280.5 1028.23 17233.5 1394.61 17161.2C1290.43 16938.7 1052.03 16642.8 1173.47 16618.5C1294.9 16594.2 1429.12 16858.2 1493.04 17140.7C1768.64 17088.7 2039.64 17014.7 2303.46 16919.6C2118.11 16759.1 1832.42 16559.7 1941.71 16475.4C2051 16391 2277.9 16670.9 2413.4 16874.8C2537.24 16824.3 2654.44 16758.9 2762.37 16679.9C2513.74 16313.7 1906.56 16239.5 1985.81 15976.8C2065.06 15714.1 2632.62 16079.1 2887.64 16569.3C3187.39 16258 3274.95 15818.3 3243.64 15443.1C2982.87 15412.5 2481.14 15467.4 2516.94 15280.2C2552.73 15092.9 2915.76 15128.7 3212.96 15238C3185.72 15089.2 3126.16 14948.3 3038.47 14825.1C2761.09 14469.1 1919.98 14916.5 1919.98 14916.5C1919.98 14916.5 2009.46 14072.8 1689.89 13927.1C1505.18 13843.4 1178.58 13844 853.897 14036.4C1036.69 14051.1 1257.83 14109.3 1346.67 14236.5C1460.44 14398.8 1282.76 14487 1167.07 14412.2C1087.18 14359.2 936.985 14191.7 665.99 14170C550.237 14267.6 448.316 14380.4 363.038 14505.5C332.359 14549 303.598 14595 274.837 14644.9C429.658 14575.2 597.97 14540.7 767.701 14543.8C937.431 14546.9 1104.37 14587.5 1256.55 14662.8C1620.22 14843.6 1416.98 15221.4 1104.44 15074.4C791.9 14927.4 493.423 14783.6 161.709 14866.6C44.5605 15167.3 -9.60645 15488.8 2.56392 15811.3C164.713 15692.6 347.368 15604.9 541.358 15552.4C902.471 15457.2 1011.76 15673.2 614.859 15714.1C401.206 15738.3 194.659 15805.5 7.67702 15911.6ZM449.961 15331.3C424.396 15213.7 681.329 15180.5 723.512 15275.1C757.387 15356.2 472.331 15448.3 449.961 15331.3ZM2643.49 15980C2667.13 15916.1 2839.06 15989 2823.08 16068.9C2800.07 16175 2617.92 16043.9 2641.57 15980H2643.49ZM1429.12 16391.6C1553.75 16341.1 1748.69 16652.4 1613.19 16723.3C1477.7 16794.3 1328.14 16432.5 1430.4 16391.6H1429.12Z" fill="#FFC727"/>
<path d="M332.359 17238.5C520.266 16922.8 706.895 16606.4 907.584 16296.4C999.62 16152.6 1099.33 16011.3 1196.47 15872.6C1181.77 15872.6 1166.44 15865 1151.74 15862.4C1126.81 15856.7 1101.88 15852.2 1076.96 15847.7C1018.79 15837.5 960.633 15829.2 901.832 15823.4C843.031 15817.7 791.9 15814.5 736.934 15813.8C677.747 15810.6 618.385 15813.8 559.893 15823.4C552.862 15823.4 551.584 15813.8 559.893 15813.8C618.693 15813.8 678.772 15808.7 737.573 15807.5C796.374 15806.2 852.618 15807.5 909.501 15811.9C966.385 15816.4 1016.88 15820.2 1069.93 15828.5C1099.33 15833 1128.73 15838.1 1157.49 15843.9C1175.36 15846.8 1193.06 15850.6 1210.54 15855.4C1312.8 15714.8 1418.26 15577.4 1530.11 15442.5C1203.91 15283.5 856.469 15172.4 498.535 15112.7C492.144 15112.7 494.7 15102.5 498.535 15103.8C861.938 15154.6 1215.04 15262.4 1544.81 15423.3C1604.88 15349.2 1665.39 15275.5 1726.32 15202.2C1794.71 15120.4 1867.57 15039.9 1928.93 14952.9C1933.4 14947.2 1941.71 14952.9 1936.6 14958.7C1851.75 15051.9 1771.96 15149.6 1697.56 15251.4C1832.24 15345.3 1960.36 15448.2 2081.04 15559.5C2208.87 15670.7 2328.39 15785.7 2447.27 15903.3C2451.74 15907.8 2447.27 15914.8 2440.88 15910.4C2323.28 15793.2 2200.99 15681.8 2074.01 15576.1C1946.18 15470.6 1812.6 15372.8 1684.78 15268C1655.38 15307 1625.98 15346 1596.58 15383.7L1552.48 15441.9L1549.28 15445.7C1500.07 15509.6 1451.49 15573.5 1402.92 15637.4C1459.9 15720.1 1508.7 15808.1 1548.64 15900.1C1590.82 15989 1627.25 16081 1661.13 16173.7C1728.81 16366.2 1781.38 16563.6 1818.36 16764.2C1818.36 16770 1810.69 16773.2 1809.41 16764.2C1769.08 16566.6 1711.55 16372.8 1637.48 16185.2C1601.05 16088.7 1559.51 15993.4 1516.68 15901.4C1473.86 15809.4 1429.76 15734 1393.33 15645.8C1351.15 15702 1308.96 15758.2 1265.5 15815.1C1254 15831.7 1242.49 15849 1230.35 15865.6C1230.94 15866.4 1231.32 15867.3 1231.44 15868.2C1231.55 15869.1 1231.4 15870.1 1231 15871C1230.6 15871.8 1229.97 15872.6 1229.18 15873.1C1228.39 15873.6 1227.46 15873.9 1226.51 15873.9C1098.69 16054.8 970.859 16240.2 854.536 16427.4C861.551 16440.3 866.919 16454.1 870.514 16468.3C878.184 16490.7 885.853 16513.7 892.245 16536.7C905.667 16583.4 916.532 16630 925.48 16677.3C934.428 16724.6 939.541 16766.8 944.015 16811.5C944.645 16862.7 948.487 16913.7 955.52 16964.3C955.807 16965.1 955.902 16965.9 955.798 16966.7C955.695 16967.5 955.395 16968.3 954.924 16969C954.453 16969.7 953.825 16970.2 953.094 16970.6C952.363 16971 951.551 16971.2 950.726 16971.2C949.901 16971.2 949.089 16971 948.358 16970.6C947.627 16970.2 946.999 16969.7 946.528 16969C946.057 16968.3 945.757 16967.5 945.653 16966.7C945.55 16965.9 945.645 16965.1 945.932 16964.3C949.513 16916.5 946.067 16868.5 935.706 16821.8C928.676 16773.2 919.728 16724.6 908.223 16676.7C896.719 16628.8 886.493 16590.4 873.71 16548.9C867.318 16527.1 860.288 16506 853.257 16484.9C849.423 16474.1 843.67 16461.9 839.835 16449.8C784.23 16538 728.625 16626.2 673.659 16715.7C565.006 16891.4 457.63 17068.5 349.616 17244.9C340.668 17255.1 326.607 17247.4 332.359 17238.5Z" fill="#263238"/>
<path d="M3237.88 19658.9C3243 19480.6 3271.12 19300.3 3290.29 19122.7C3309.47 18945 3329.92 18766 3349.09 18587.7C3385.52 18243.2 3405.98 17891.7 3487.15 17554.2C3546.56 17260.6 3692.86 16991.6 3907.06 16782.1C4017.62 16671.3 4162.95 16601.7 4318.67 16585.3C4475.32 16580.5 4629.11 16627.9 4755.84 16720.1C4900.53 16826.7 5025.17 16958 5123.98 17108.1C5230.56 17256.3 5326.25 17412 5410.32 17574C5410.32 17579.8 5403.92 17583.6 5400.73 17577.9C5241.66 17307.5 5030.75 17071.2 4780.13 16882.5C4668.85 16790.5 4532.66 16733.7 4388.97 16719.5C4318.9 16718.3 4249.29 16731.1 4184.22 16757.1C4119.14 16783.1 4059.9 16821.8 4009.96 16871C3801.6 17051.9 3681.45 17318.4 3609.86 17579.8C3524.86 17889.8 3497.37 18218.9 3454.55 18534C3429.63 18725.8 3405.34 18912.4 3380.41 19100.9C3355.49 19289.5 3340.15 19484.4 3299.88 19667.9C3298.69 19676.1 3294.29 19683.5 3287.64 19688.5C3280.99 19693.4 3272.63 19695.6 3264.41 19694.4C3256.19 19693.2 3248.77 19688.8 3243.8 19682.1C3238.82 19675.5 3236.7 19667.1 3237.88 19658.9Z" fill="#263238"/>
<path d="M4116.06 18272C4170.32 18346.7 4234.87 18413.4 4307.8 18470.1C4278.4 18295.6 4243.89 17986.3 4330.81 17821.4C4467.59 17565.7 4628.65 17693.6 4547.48 17915.3C4466.58 18116.4 4422.01 18330.2 4415.82 18546.8C4601.74 18663.3 4800.84 18757.3 5008.94 18826.8C4987.02 18726.5 4980.55 18623.5 4989.76 18521.2C5016.61 18247.7 5226.24 18252.8 5171.92 18537.2C5151.84 18647.7 5142.21 18759.8 5143.16 18872.1C5445.46 18965 5754.43 19034.7 6067.35 19080.5C6227.31 18873 6356.47 18643.6 6450.83 18399.2C6227.77 18342.9 5777.18 18330.8 5786.77 18171C5799.55 17956.9 6234.17 18121.8 6489.82 18277.1C6548.06 18091.1 6574.21 17896.6 6567.16 17701.9C6366.66 17646.1 6160.73 17612 5952.95 17600.2C5494.04 17560.6 5517.05 17300.5 5849.4 17306.2C6094.19 17310.7 6404.18 17460.9 6552.46 17538.9C6457.23 16915.1 5981.07 16516.3 5599.5 16499.6C4960.36 16474.1 5189.17 17272.4 5189.17 17272.4C5189.17 17272.4 4754.56 16966.2 4344.23 16974.5C3933.91 16982.8 3677.61 17661 4116.06 18272ZM5828.95 17117.1C5814.89 17027.6 6101.23 17005.8 6115.93 17120.9C6133.18 17250.6 5843.65 17208.5 5828.95 17117.1ZM6289.77 18054C6283.38 17995.2 6407.37 17985 6435.5 18059.1C6454.03 18107.1 6294.25 18112.2 6289.77 18054ZM4749.45 18109C4845.96 18122.4 4900.92 18468.2 4734.75 18461.2C4607.56 18456.1 4668.28 18096.9 4749.45 18112.2V18109Z" fill="#FFC727"/>
<path d="M4883.03 18495.7C4899.01 18452.2 4913.71 18408.7 4927.13 18367.8C4914.35 18412.6 4903.48 18456.7 4895.17 18502.1C4893.26 18504.6 4879.83 18501.4 4883.03 18495.7Z" fill="#263238"/>
<path d="M5051.76 17937.1C5081.8 17848.2 5115.67 17760.7 5150.19 17673.7C5168.94 17627.3 5188.11 17581.3 5207.71 17535.7C5222.47 17494.9 5241.76 17455.9 5265.23 17419.4C5245.13 17383.5 5227.82 17346.1 5213.46 17307.5C5213.04 17306.8 5212.94 17305.8 5213.17 17305C5213.41 17304.2 5213.98 17303.5 5214.74 17303C5215.5 17302.6 5216.4 17302.5 5217.24 17302.8C5218.08 17303 5218.79 17303.6 5219.21 17304.3C5267.28 17364.4 5310.05 17428.6 5347.04 17496.1C5364.94 17526.1 5382.2 17560 5399.45 17587.5C5435.78 17591 5471.85 17596.7 5507.47 17604.7L5622.51 17627.7L5736.92 17654.6C5774.63 17663.5 5811.7 17676.3 5850.04 17682C5851.57 17682 5853.03 17682.7 5854.11 17683.7C5855.19 17684.8 5855.8 17686.3 5855.8 17687.8C5855.8 17689.3 5855.19 17690.8 5854.11 17691.9C5853.03 17692.9 5851.57 17693.6 5850.04 17693.6C5811.19 17679.8 5771.19 17669.6 5730.53 17662.9C5693.46 17654.6 5656.39 17648.2 5619.32 17643.1C5582.25 17637.9 5544.54 17632.8 5507.47 17629L5422.46 17622C5437.8 17648.8 5453.78 17675.7 5468.48 17703.1C5468.48 17707 5472.95 17711.4 5475.51 17715.9C5505.12 17716.4 5534.55 17720.7 5563.07 17728.7C5596.31 17734.5 5626.99 17740.8 5662.14 17747.9C5726.05 17763.2 5795.72 17778.6 5861.55 17797.1C6000.24 17836.1 6137.66 17880.2 6274.43 17924.9C6282.1 17924.9 6274.43 17939 6269.32 17936.4C6133.33 17891 5995.09 17852.6 5855.16 17821.4C5791.24 17806.7 5723.5 17791.3 5657.66 17777.9L5559.24 17756.8C5533.34 17753 5507.72 17747.4 5482.54 17740.2C5552.84 17868 5619.32 18002.9 5680.67 18138.4C5813.61 18433 5925.46 18736 6039.87 19038.3C6039.87 19046 6030.92 19050.4 6028.36 19043.4C5917.71 18742.9 5789.66 18449 5644.88 18163.3C5619.32 18110.9 5592.47 18059.1 5566.91 18006.7C5566.91 18017.6 5561.79 18028.5 5559.88 18038.7C5553.48 18074.5 5547.09 18110.3 5541.34 18146.1C5529.2 18217.6 5517.05 18289.2 5506.19 18360.8C5475.57 18508.1 5458.25 18657.8 5454.42 18808.2C5454.73 18809.2 5454.82 18810.2 5454.66 18811.2C5454.51 18812.2 5454.12 18813.1 5453.52 18814C5452.93 18814.8 5452.15 18815.4 5451.25 18815.9C5450.35 18816.4 5449.36 18816.6 5448.35 18816.6C5447.34 18816.6 5446.34 18816.4 5445.44 18815.9C5444.54 18815.4 5443.76 18814.8 5443.17 18814C5442.58 18813.1 5442.19 18812.2 5442.03 18811.2C5441.88 18810.2 5441.96 18809.2 5442.27 18808.2C5453.78 18737.3 5453.78 18663.1 5458.25 18590.9C5462.73 18518.7 5468.48 18440.7 5476.79 18365.9C5485.1 18291.1 5494.68 18222.1 5506.83 18150.5C5512.58 18114.7 5518.97 18079 5525.36 18043.2C5526.85 18016.3 5533.81 17989.9 5545.81 17965.8C5508.11 17890.4 5471.04 17814.4 5432.69 17739.6C5394.34 17664.8 5361.1 17598.3 5324.67 17528.7C5308.69 17498.6 5292.08 17469.2 5275.46 17438.5C5263.85 17475.7 5249.76 17512 5233.28 17547.2L5183.42 17668C5146.99 17758.1 5112.48 17848.2 5078.6 17939C5030.03 18066.8 4976.34 18198.5 4936.08 18332.1C4975.7 18199.8 5008.94 18066.2 5051.76 17937.1Z" fill="#263238"/>
<path d="M4927.13 18362.1C4927.13 18351.9 4933.52 18341.6 4936.08 18330.8C4933.52 18341.6 4930.32 18351.9 4927.13 18362.1Z" fill="#263238"/>
<path d="M2165.41 19311.9L2210.79 20266.7L2326.47 25884.8H4865.13L4981.46 20266.7L5026.83 19311.9H2165.41Z" fill="#37474F"/>
<path d="M2165.41 19311.9L2210.79 20266.7H4981.46L5026.83 19311.9H2165.41Z" fill="#263238"/>
<path d="M1985.17 19697.9H5207.07V18925.2H1985.17V19697.9Z" fill="#37474F"/>
<path d="M4659.97 25884.8H4214.49V26289.3H4659.97V25884.8Z" fill="#37474F"/>
<path d="M4659.97 25884.8H4214.49V26086.7H4659.97V25884.8Z" fill="#263238"/>
<path d="M2977.76 25884.8H2532.28V26289.3H2977.76V25884.8Z" fill="#37474F"/>
<path d="M2977.76 25884.8H2532.28V26086.7H2977.76V25884.8Z" fill="#263238"/>
<path d="M12742.5 9436.52C12630 9449.31 12139.8 9387.31 11807.5 9830.23C11493.6 10248.9 11370.9 11531.6 11301.9 11811.6C11232.9 12091.5 10865.4 12131.1 10775.9 12450.7C10698.6 12729.4 10900.5 12834.2 10919.1 13039.3C10933.8 13198.5 10771.4 13435.6 10913.9 13672.1C11041.8 13887.5 11275.7 13844.7 11415 13913.1C11554.4 13981.4 11638.7 14306.8 11896.9 14396.9C12155.1 14487 12387.2 14253.1 12524.6 14256.3C12662 14259.5 12821.1 14682.6 13270.4 14650.6C13719.8 14618.7 13853.3 14239.7 14037.4 14166.8C14221.5 14093.9 14688.1 14230.7 14902.8 13998.7C15117.6 13766.7 15158.5 13460.5 15254.3 13347.4C15350.2 13234.3 15550.9 13255.4 15673 12992.7C15795 12730 15551.5 12560.6 15519.6 12331.8C15497.2 12172.7 15640.4 12027.6 15543.2 11783.4C15410.3 11447.3 15000 11514.4 14847.8 11169.9C14728.3 10898.9 14487.4 9725.41 13783 9429.49C13296.7 9228.16 12742.5 9436.52 12742.5 9436.52Z" fill="#263238"/>
<path d="M11315.3 11743.2C11287.4 11802.2 11245.5 11853.6 11193.2 11892.7L11046.2 12017.4C10945.5 12093.2 10857.2 12184.4 10784.8 12287.7C10751 12336.9 10729.1 12393.3 10720.9 12452.5C10712.6 12511.6 10718.4 12571.8 10737.5 12628.4C10760.3 12685 10791.5 12737.8 10830.2 12785C10874.7 12836.6 10911.4 12894.5 10938.9 12956.9C10955.3 13027.6 10948.1 13101.6 10918.4 13167.8C10897.3 13231.7 10873 13288.6 10854.5 13348.7C10832.6 13404.9 10822 13464.9 10823.3 13525.2C10824.6 13585.5 10837.8 13645 10862.2 13700.2C10887.9 13753.5 10931 13796.5 10984.2 13822.3C11040.6 13847.1 11101.1 13861 11162.6 13863.2C11226.5 13868.3 11290.4 13867 11354.3 13868.3C11419.6 13864.2 11484.6 13879.8 11540.9 13913.1C11482.3 13887.5 11417.6 13878.9 11354.3 13888.1C11290.4 13892 11226.5 13899 11162.6 13899C11095.3 13900.7 11028.4 13889 10965.7 13864.5C10901 13837.1 10847.4 13788.7 10813.6 13727.1C10739.5 13605.6 10754.8 13453.5 10791.2 13329.5C10809.8 13265.6 10832.8 13204.9 10855.1 13145.4C10878.2 13093.5 10884.2 13035.5 10872.4 12979.9C10835.3 12877 10720.3 12784.3 10680.7 12650.8C10659 12584.7 10653.6 12514.4 10664.7 12445.8C10675.8 12377.2 10703.2 12312.3 10744.6 12256.4C10825.2 12152.6 10921.8 12062.5 11030.9 11989.2L11188.1 11877.4C11239.7 11842.3 11283.1 11796.5 11315.3 11743.2Z" fill="#263238"/>
<path d="M14432.4 10097.4C14552.6 10295.5 14624.1 10516.7 14720.7 10725C14767.3 10829.8 14811.4 10935.9 14865.1 11035C14890.2 11083.8 14920.7 11129.7 14955.9 11171.8C14963.1 11181.7 14972 11190.4 14982.1 11197.4C14991.2 11205.6 15001.6 11212.5 15012.7 11217.8C15037 11231.2 15062.6 11242.7 15088.2 11254.2C15195.6 11298.7 15300.5 11348.8 15402.6 11404.4C15510.5 11461.5 15597.9 11550.9 15652.5 11660.1C15679.3 11716.4 15691.2 11778.7 15687 11841C15679.8 11900.8 15661.4 11958.7 15632.7 12011.6C15571.4 12108.1 15533.3 12217.5 15521.5 12331.2C15519.3 12214.6 15546.1 12099.3 15599.5 11995.6C15623 11945.6 15636.9 11891.6 15640.4 11836.5C15640.7 11783.1 15627.5 11730.6 15602 11683.7C15547.1 11588.6 15466.2 11511.2 15368.7 11460.7C15267.6 11408.6 15164 11361.7 15058.1 11320.1C15031.3 11307.3 15004.4 11294.5 14978.2 11279.8C14949.5 11263.4 14924.1 11241.7 14903.4 11215.9C14865.3 11169.1 14832.7 11118.1 14806.3 11063.8C14753.9 10960.1 14707.8 10853.4 14668.2 10744.2L14552.6 10418.9C14518.6 10309.5 14478.5 10202.2 14432.4 10097.4Z" fill="#263238"/>
<path d="M15366.8 13271.4C15325.9 13342.3 15299.8 13420.8 15290.1 13502.1C15272.2 13582 15254.3 13663.1 15232 13743C15210.5 13824.8 15180.5 13904 15142.5 13979.5C15104.5 14059.6 15047.4 14129.2 14976.3 14182.1C14817.8 14280.6 14631.8 14267.1 14471.4 14235.8C14389.6 14219.8 14309.7 14199.4 14229.2 14185.3C14149.8 14166 14066.9 14166 13987.6 14185.3C14065.1 14152.5 14150 14140.6 14233.6 14150.8C14317.4 14157.8 14398.5 14172.5 14479.7 14180.8C14638.8 14200 14808.9 14203.9 14935.4 14122.1C14997.3 14076.6 15047.5 14017 15081.8 13948.2C15120 13877.3 15152.2 13803.3 15178.3 13727.1C15206.4 13651 15230.7 13572.4 15255.6 13493.8C15269.7 13454.1 15283.7 13415.2 15299.7 13376.8C15312.2 13336.3 15335.4 13299.9 15366.8 13271.4Z" fill="#263238"/>
<path d="M11905.2 14093.3C12480.5 15408 13288.3 17212.9 13724.9 17408.5C14859.3 17916.6 17163.4 18353.8 17982.2 18179.9C18290.2 18116 18352.2 15652.8 18020.5 15711.6C17408.2 15819 14936.7 15635.5 14753.2 15541.6C14625.4 15477.7 13580.4 14272.2 12750.8 13532.1C11574.2 12482 11698.8 13621.6 11905.2 14093.3Z" fill="#D3766A"/>
<path d="M21388.1 16520.7C21382 16541.5 21371 16560.5 21356 16576.1C21341 16591.7 21322.4 16603.4 21301.9 16610.2C21463.6 16757.9 21557.5 16916.4 21472.5 17057.6C21423.3 17140.7 21331.9 17168.8 21216.9 17158.6C21284.6 17244.9 21299.9 17331.2 21233.5 17414.3C21116.5 17554.9 20713.2 17462.8 20323.3 17327.3C20575.8 17462.2 20761.8 17616.9 20662.1 17747.2C20396.8 18093 19556.4 17696.8 18949.2 17508.2C18761.8 17445.6 18566.3 17410.1 18368.9 17402.8C18339.7 17402.2 18310.7 17404.3 18281.9 17409.1C18202 17423.8 18145.8 17459 18131.7 17523.5C18108.7 17639.2 18349 17764.5 18528 17795.8C18867.4 17853.3 19245.8 18225.3 19211.9 18438.8C19162.7 18751.3 18401.5 18515.5 18115.8 18499.5C17732.3 18478.4 17129.6 18227.9 17082.9 18217C17082.9 18217 17051 17980.5 17025.4 17650.1C16975.5 17019.9 16948.1 16052.2 17199.2 15732.7C17199.2 15732.7 18445.6 15338.3 19704 15349.2C20135.4 15352.4 21541.5 16110.4 21388.1 16520.7Z" fill="#D3766A"/>
<path d="M18924.9 16819.9C19167.8 16799.7 19412 16836.4 19638.2 16927.2C19951.4 17046.8 20093.3 17173.9 20370 17335C20371.5 17335.9 20372.7 17337.3 20373.1 17338.9C20373.6 17340.6 20373.4 17342.4 20372.6 17344C20371.7 17345.5 20370.3 17346.6 20368.6 17347.1C20366.9 17347.6 20365.1 17347.4 20363.6 17346.5C20231.9 17269.8 19781.4 17034.6 19645.2 16974.5C19421.2 16865.7 19173.7 16814.1 18924.9 16824.3C18924.9 16824.3 18921.1 16819.9 18924.9 16819.9Z" fill="#263238"/>
<path d="M19065.5 16269.6C19333.7 16274.2 19600.5 16309.8 19860.6 16375.7C20180.2 16457.5 20459.5 16646 20732.4 16826.9C20896 16934.7 21057.5 17046.7 21216.9 17163.1C21223.3 17167.5 21216.9 17179.1 21210.5 17174.6C20932.7 16986.7 20649.3 16807.7 20360.4 16637.7C20094.1 16478.3 19798.9 16373.2 19491.8 16328.4C19316.7 16303.4 19241.9 16286.2 19065.5 16274.7C19062.3 16274.7 19062.3 16268.9 19065.5 16269.6Z" fill="#263238"/>
<path d="M19206.1 15763.4C19492.5 15757.6 19746.8 15746.1 20022.9 15838.8C20388.5 15961.5 20717.1 16196.7 20853.8 16286.2C21003.4 16387.8 21149.1 16494.5 21293.6 16605.7C21299.9 16610.2 21293.6 16620.4 21285.9 16616C20959.1 16379.9 20617.5 16164.9 20263.3 15972.4C20112.5 15888.4 19948.4 15831.1 19778.2 15803C19590.2 15773.9 19400.1 15761.1 19210 15764.6L19206.1 15763.4Z" fill="#263238"/>
<path d="M14270.7 14788.7L12921.5 16583.4C12921.5 16583.4 11861.1 14353.4 11734.6 13609.5C11592.1 12772.2 12051 12882.8 12713.8 13343.6C13376.5 13804.4 14270.7 14788.7 14270.7 14788.7Z" fill="#FFC727"/>
<path d="M12418.5 13770.5C12382.6 13986.9 12273.1 14184.2 12108.5 14329.1C12069.5 14364.3 12029.2 14396.9 11987.7 14428.2L11980 14407.7C12115.2 14313.5 12227.3 14189.8 12307.9 14046C12427.4 13812.1 12435.7 13534.7 12396.1 13279C12388.4 13229.2 12378.8 13179.3 12366.1 13129.5L12391 13142.9C12442.6 13348.1 12452 13561.6 12418.5 13770.5ZM13290.3 14560.5C13278.1 14389.2 13207.2 14173.8 13030.8 14107.4C12816.7 14027.5 12631.9 14223 12528.4 14386C12408.2 14573.9 12316.2 14777.8 12203.1 14970.2C12206.3 14977.2 12208.8 14984.2 12212.7 14991.9C12334.7 14786.1 12430 14563.1 12562.9 14363.6C12626.4 14251.8 12726 14164.8 12845.4 14116.9C12898.8 14100.7 12955.7 14100.7 13009.1 14116.9C13062.4 14133 13109.8 14164.6 13145.2 14207.7C13296 14382.2 13292.2 14650 13250.6 14862.8C13202.7 15113.6 13087.8 15346.8 12918.3 15537.7C12818.1 15649.2 12699.6 15742.8 12568 15814.5C12568 15820.2 12572.5 15825.4 12575.1 15831.1C12817.8 15697.2 13014.6 15493.5 13140.1 15246.3C13250.3 15035.1 13302.1 14798.4 13290.3 14560.5ZM13147.7 15762.1C13114.7 15795.8 13088.6 15835.8 13071.2 15879.7C13053.7 15923.6 13045.2 15970.5 13046.1 16017.7C13050.4 16060.5 13064.1 16101.8 13086.2 16138.7C13108.3 16175.6 13138.3 16207.2 13173.9 16231.2L13181.6 16236.3L13193.8 16219.7L13183.5 16213.3C13137.8 16183 13102.7 16139.2 13083.1 16088C13063.5 16036.7 13060.4 15980.7 13074.2 15927.6C13091.6 15871.2 13120.9 15819.1 13160.1 15775C13199.4 15730.9 13247.7 15695.7 13301.8 15672C13409.1 15627.2 13526.3 15611.1 13641.8 15625.3L13652 15611.9C13467.9 15596.5 13279.4 15619.6 13147.7 15762.1ZM12933.6 13644.6C12931.3 13704 12910 13761.1 12872.9 13807.6C12761.7 13913.7 12651.8 13645.9 12633.9 13569.2C12614.4 13476.4 12612.4 13380.8 12628.1 13287.3L12608.9 13274.6C12603.4 13308.2 12599.7 13342.1 12598.1 13376.2C12590.3 13482 12608.9 13588.1 12652.4 13684.9C12684.4 13753.3 12763 13884.9 12856.9 13843.4C12950.9 13801.8 12952.8 13658.7 12964.3 13577.5L12970.1 13539.2L12952.2 13525.1C12945.8 13564.7 12940 13605 12933.6 13644.6ZM14093 14603.3C13987.5 14626.5 13878.1 14624.7 13773.4 14598.2C13713.6 14581.1 13661.5 14543.9 13625.8 14493C13590.1 14442 13572.9 14380.3 13577.2 14318.3C13581.5 14252.4 13596.4 14187.6 13621.3 14126.5L13604.7 14110.5C13556.2 14211.1 13544.2 14325.5 13570.8 14434C13642.4 14645.5 13895.5 14653.8 14082.2 14625.7L14110.9 14620.6L14093 14603.3Z" fill="white"/>
<path d="M13898.7 14609.7C13695.5 14814.9 13174.6 15516 13087 15632.3C13041 15693.1 12868.4 15943.6 12821.8 16003.7C12816 16011.3 12828.8 16019 12835.2 16011.3C12923.4 15896.3 13023.7 15790.8 13113.9 15676.4C13204 15562 13759.4 14867.9 13907 14618C13910.2 14611 13903.2 14604.6 13898.7 14609.7Z" fill="#263238"/>
<path opacity="0.1" d="M13789.4 15431L12921.5 16585.9C12921.5 16585.9 11861.1 14355.3 11734.6 13611.4C11666.2 13210 11734.6 13026.6 11900.8 12994.6L13789.4 15431Z" fill="black"/>
<path d="M19723.8 26303.4C19915.6 26239.5 19745.6 25678.3 19528.9 25505.1C19460.5 25450.1 19205.5 25320.4 18885.9 25166.4C18182.9 24827.6 17171.1 24375.8 17171.1 24375.8L18033.3 20724.4L14518 20743.5C14518 20743.5 13559.3 24172.5 13565.1 24386.6C13565.1 24400 13565.1 24412.8 13565.1 24426.2C13595.1 25393.9 13643.1 26186.4 13723 26235.6C13939 26369.9 19528.3 26369.2 19723.8 26303.4Z" fill="#D3766A"/>
<path d="M19723.8 26303.4C19528.3 26367.3 13938.3 26367.3 13725.5 26235C13646.3 26185.2 13597.7 25393.3 13568.3 24425.6C13568.3 24412.8 13568.3 24398.8 13568.3 24386C13593.7 24213.4 13630.2 24042.6 13677.6 23874.7H17290L17170.5 24375.8C17170.5 24375.8 18182.2 24828.3 18885.9 25165.7C19205.5 25319.8 19461.1 25449.5 19529.5 25505.1C19745.6 25677.7 19917.5 26238.8 19723.8 26303.4Z" fill="#EBEBEB"/>
<path d="M19786.5 26334.7C19587.7 26401.8 13896.2 26394.8 13680.1 26257.4C13597 26206.2 13552.3 25376.6 13521 24373.2C13521 24362.3 13521 24352.1 13521 24341.2L17192.8 24304.8V24368.7C17192.8 24368.7 19369.7 25346 19592.2 25523C19814.6 25700.1 19985.2 26268.9 19786.5 26334.7Z" fill="#FFC727"/>
<path d="M19722.6 26114.2C18763.8 26089.3 14891.3 26080.3 13940.9 26128.9C13933.2 26128.9 13933.2 26134.7 13940.9 26135.3C14891.3 26180 18763.2 26157.7 19722.6 26129.5C19742.4 26128.9 19742.4 26114.8 19722.6 26114.2Z" fill="#263238"/>
<path d="M17600.6 24315.7C17223.5 24244.7 16761.4 24302.3 16472.5 24571.3C16461.7 24582.2 16476.4 24597.5 16489.2 24593.7C16849.9 24477.7 17222.1 24400.7 17599.3 24364.3C17605.8 24364.4 17612 24362 17616.7 24357.6C17621.4 24353.2 17624.1 24347 17624.3 24340.6C17624.4 24334.2 17622 24327.9 17617.6 24323.2C17613.2 24318.6 17607.1 24315.8 17600.6 24315.7Z" fill="#263238"/>
<path d="M17872.9 24479.9C17495.8 24409.6 17033.7 24466.5 16745.4 24735.6C16733.9 24745.8 16748.6 24761.8 16761.4 24758C17122.2 24641.8 17494.4 24564.6 17871.6 24527.9C17877.3 24527.1 17882.6 24524.3 17886.4 24520C17890.3 24515.7 17892.5 24510.2 17892.7 24504.4C17892.8 24498.7 17890.9 24493 17887.3 24488.6C17883.7 24484.1 17878.6 24481 17872.9 24479.9Z" fill="#263238"/>
<path d="M18145.8 24644.8C17768.1 24573.9 17306 24631.4 17017.7 24900.5C17006.2 24910.7 17017.7 24926.7 17033.7 24922.9C17394.6 24807.5 17766.7 24731.3 18143.9 24695.3C18150.6 24695.6 18157.1 24693.2 18162 24688.6C18166.9 24684.1 18169.8 24677.7 18170.1 24671C18170.3 24664.3 18167.9 24657.8 18163.4 24652.9C18158.8 24648 18152.5 24645.1 18145.8 24644.8Z" fill="#263238"/>
<path d="M18090.2 23493.1C17941.9 23288.6 17665.8 23380 17507.9 23512.3C17242.3 23744.3 17042.4 24042.1 16928.2 24375.8C16928.2 24383.4 16928.2 24387.9 16937.2 24389.2C16937.2 24417.9 16964 24448.6 16996 24436.5C17307.9 24321.4 17655.6 24237.1 17922.7 24030C18078.7 23909.2 18232.7 23686.1 18090.2 23493.1ZM17430.6 24166.1C17278.5 24226.2 17124.5 24278.6 16974.9 24344.4C17089.3 24176.3 17195.4 24004.4 17326.4 23847.8C17387.9 23771.1 17454.7 23699 17526.5 23631.8C17639 23529.5 18083.8 23312.2 18016.7 23726.4C17982.2 23955.2 17614.7 24093.9 17433.2 24166.1H17430.6Z" fill="#263238"/>
<path d="M15968.9 24276.7C16279.5 24409.6 16637.4 24404.5 16968.5 24435.8C16975.9 24435.9 16983.1 24434.2 16989.7 24430.9C16996.3 24427.6 17002 24422.8 17006.3 24416.9C17010.7 24410.9 17013.6 24404.1 17014.8 24396.8C17016 24389.6 17015.5 24382.1 17013.2 24375.1C17014.8 24374.7 17016.2 24373.9 17017.3 24372.8C17018.5 24371.7 17019.4 24370.4 17020 24368.9C17020.5 24367.4 17020.7 24365.8 17020.6 24364.2C17020.4 24362.6 17019.9 24361.1 17019 24359.8C16822.8 24066.3 16553 23829.4 16236.7 23672.7C16050.7 23585.1 15759.9 23566 15668.5 23800.5C15581.6 24022.3 15789.3 24198.7 15968.9 24276.7ZM15798.9 24007C15628.9 23623.5 16114.6 23720.6 16246.3 23790.9C16332.5 23838.3 16415.6 23891.2 16494.9 23949.5C16656.6 24072.2 16811.9 24203.2 16960.2 24341.9C16798.5 24315.7 16636.8 24304.2 16474.4 24283.7C16283.3 24260.1 15892.2 24218.5 15798.9 24007Z" fill="#263238"/>
<path d="M9626.72 18291.2C9626.72 18291.2 8996.53 20569.7 10095.8 21244.6C10829.6 21692 14072.6 21072 14210.6 20669.4C14470.7 19912 14471.4 19634.6 14471.4 19634.6L13640.5 23649.1L17725.9 23697C17725.9 23697 18492.8 20373.5 18295.4 16850.5C18222.5 15547.3 16470.6 15153 15251.8 15801.7C14068.7 16431.9 11954.5 18176.1 11954.5 18176.1L9626.72 18291.2Z" fill="#37474F"/>
<path d="M13983.7 21298.3C14203.6 20759.5 14186.3 20548 14736 18876C14809.5 18652.3 14871.5 18425.4 14936.7 18199.1C15001.9 17972.9 15085.6 17731.9 15137.4 17492.9C15137.4 17481.4 15158.5 17486.5 15155.3 17498C15091.4 17704.4 15050.4 17917.9 14996.1 18126.9C14941.8 18335.9 14888.1 18536.6 14830.6 18739.8C14806.3 18828 14780.1 18915.6 14755.2 19003.8L14787.8 18949.5C14835.7 18867 14883.6 18784.6 14933.5 18703.4C15037 18535.9 15161.7 18378.7 15253.1 18204.2C15254.2 18202.1 15256.2 18200.5 15258.6 18199.9C15260.9 18199.2 15263.4 18199.5 15265.5 18200.7C15267.6 18201.9 15269.2 18203.9 15269.9 18206.2C15270.5 18208.6 15270.2 18211.1 15269 18213.2C15165.5 18380 15091.4 18565.3 14994.2 18736.6C14946.9 18819.7 14897.7 18900.9 14847.2 18982.1C14804.2 19058.2 14755 19130.6 14700.2 19198.7C14625.4 19454.4 14464.4 20078.8 14383.8 20335.8C14128.2 21144.3 14213.8 20880.9 14025.3 21314.9C14014.4 21337.3 13974.1 21321.9 13983.7 21298.3Z" fill="#263238"/>
<path d="M15844.3 22987.5C15229.4 22981.2 14615.2 22946.6 14000.3 22934.5C13988.8 22934.5 13986.9 22916.6 14000.3 22916.6C14613.3 22912.8 15225.6 22889.1 15838.5 22896.1C16451.4 22903.2 17066.9 22933.9 17681.8 22954.3C17697.1 22954.3 17699.7 22979.2 17681.8 22979.2C17067.6 22980.5 16457.2 22993.9 15844.3 22987.5Z" fill="#263238"/>
<path d="M14337.2 22782.4C14393.4 22510.8 14472 22243.6 14543.6 21976.4C14615.2 21709.3 14687.4 21440.2 14761.6 21173C14909.2 20638.1 15063.9 20104.4 15217.9 19571.4C15304.8 19268.4 15399.4 18967.4 15492.1 18666.3C15492.5 18664.5 15493.7 18662.8 15495.3 18661.8C15496.9 18660.8 15498.9 18660.5 15500.7 18660.9C15502.6 18661.3 15504.2 18662.5 15505.2 18664.1C15506.2 18665.7 15506.6 18667.7 15506.2 18669.5C15232.2 19746.7 14937.7 20817.9 14622.9 21883.1C14533.4 22185.4 14452.9 22491.6 14346.8 22788.1C14346 22789.4 14344.8 22790.3 14343.3 22790.7C14341.9 22791 14340.4 22790.8 14339.1 22790.1C14337.8 22789.3 14336.9 22788.1 14336.5 22786.6C14336.2 22785.2 14336.4 22783.7 14337.2 22782.4Z" fill="#263238"/>
<path d="M10095.8 21244C8996.53 20569.7 9626.08 18290.5 9626.08 18290.5L11586.3 18195.3L14255.4 20540.9L14210.6 20668.7C14072.6 21072 10829.6 21695.2 10095.8 21244Z" fill="#263238"/>
<path d="M17744.4 23608.8C17731.6 23669.5 17724 23700.8 17724 23700.8L13638.6 23652.9L14277.7 20563.3L17744.4 23608.8Z" fill="#263238"/>
<path d="M1259.75 26724.6C1223.32 26925.9 1797.27 27044.2 2052.92 26938.7C2263.82 26818.7 2466.64 26685.1 2660.1 26538.6C3295.41 26084.8 4178.7 25416.3 4178.7 25416.3L7182.65 25597.8L8857.19 22510.1C8857.19 22510.1 6096.75 22351 5906.93 22254.5L5871.78 22235.9C5009.58 21796.2 4291.82 21456.8 4210.02 21502.8C3987.59 21623 1296.18 26522 1259.75 26724.6Z" fill="#D3766A"/>
<path d="M6432.3 22330.5L4852.99 25455.3L4178.7 25414.4C4178.7 25414.4 3294.77 26082.3 2659.47 26536.7C2370.57 26741.8 2134.73 26902.9 2053.56 26936.8C1797.91 27043.5 1222.68 26924 1259.75 26722.7C1296.82 26521.3 3987.6 21623 4208.1 21499.6C4289.91 21454.2 5007.66 21793 5869.86 22233.4L5905.01 22250.6C5951.67 22276.8 6153.64 22304.9 6432.3 22330.5Z" fill="#EBEBEB"/>
<path d="M1202.23 26764.9C1239.3 26558.4 3986.32 21573.8 4211.29 21450.4C4295.66 21402.5 5045.37 21760.4 5936.97 22217.4L5965.09 22232.1L4230.47 25468.7L4176.78 25437.4C4176.78 25437.4 2272.15 26875.4 2010.1 26984.7C1748.05 27094 1163.88 26970.7 1202.23 26764.9Z" fill="#FFC727"/>
<path d="M1426.56 26814.7C1909.75 25983.8 3782.43 22596.4 4197.87 21741.2C4197.87 21734.2 4197.87 21731.6 4192.12 21741.2C3694.87 22549.1 1850.31 25953.1 1412.5 26804.5C1403.56 26825.6 1416.34 26832.6 1426.56 26814.7Z" fill="#263238"/>
<path d="M4024.03 25822.1C4268.18 25524.9 4440.11 25092.9 4343.6 24710.7C4339.76 24695.3 4319.31 24701.1 4316.75 24713.9C4244.41 25085.8 4132.57 25449 3983.12 25797.2C3980.99 25802.5 3980.81 25808.4 3982.63 25813.9C3984.44 25819.3 3988.13 25824 3993.03 25827C3997.94 25829.9 4003.74 25831.1 4009.41 25830.2C4015.09 25829.3 4020.27 25826.5 4024.03 25822.1Z" fill="#263238"/>
<path d="M3748.56 25981.3C3992.71 25684.7 4164.64 25252 4068.13 24869.8C4064.29 24855.1 4043.2 24860.2 4040.64 24869.8C3968.48 25242.8 3856.63 25607.1 3707.01 25956.3C3704.24 25961.8 3703.65 25968.1 3705.35 25974C3707.05 25979.9 3710.93 25985 3716.19 25988.1C3721.45 25991.3 3727.72 25992.3 3733.72 25991.1C3739.73 25989.8 3745.03 25986.3 3748.56 25981.3Z" fill="#263238"/>
<path d="M3473.73 26140.4C3717.24 25843.9 3889.17 25411.8 3793.3 25029C3789.46 25014.3 3768.37 25020 3765.81 25029C3693.95 25402.1 3582.1 25766.3 3432.18 26115.5C3429.41 26121 3428.82 26127.3 3430.52 26133.2C3432.22 26139.1 3436.1 26144.1 3441.36 26147.3C3446.62 26150.4 3452.89 26151.5 3458.89 26150.2C3464.9 26148.9 3470.2 26145.4 3473.73 26140.4Z" fill="#263238"/>
<path d="M4508.49 26649.2C4759.04 26617.9 4811.45 26329.6 4771.82 26129.6C4697.13 25784.1 4532.67 25464.4 4295.02 25202.8C4294.06 25201.6 4292.85 25200.6 4291.46 25200C4290.08 25199.3 4288.57 25199 4287.03 25199C4285.5 25199 4283.98 25199.3 4282.6 25200C4281.22 25200.6 4280 25201.6 4279.04 25202.8C4272.68 25199 4265.51 25196.7 4258.12 25196.2C4250.72 25195.6 4243.3 25196.9 4236.45 25199.7C4229.61 25202.6 4223.54 25207 4218.72 25212.7C4213.91 25218.3 4210.49 25225 4208.74 25232.2C4159.52 25560.7 4066.21 25905.9 4119.26 26240.1C4149.94 26436.3 4271.37 26676.7 4508.49 26649.2ZM4236.22 25747.3C4256.67 25585 4284.79 25427.8 4300.13 25261.6C4398.17 25439.3 4487.12 25621.9 4566.66 25808.7C4604.22 25899.7 4635.19 25993.2 4659.33 26088.6C4695.12 26236.3 4670.83 26727.8 4339.76 26472.1C4156.97 26330.2 4211.93 25940.4 4236.22 25747.3Z" fill="#263238"/>
<path d="M4844.68 24410.3C4578.16 24618.6 4412.62 24935 4220.88 25209.8C4217.32 25216.2 4215.31 25223.4 4215.02 25230.7C4214.74 25238 4216.18 25245.3 4219.22 25252C4222.27 25258.6 4226.85 25264.5 4232.58 25269C4238.3 25273.6 4245.03 25276.7 4252.2 25278.2C4252.2 25284.6 4252.2 25291 4263.7 25290.4C4615.61 25260.3 4953.46 25138.5 5243.5 24936.9C5410.32 24816.1 5566.91 24570.7 5404.57 24377C5253.73 24193.6 4999.99 24288.8 4844.68 24410.3ZM5164.25 24391.1C5582.25 24426.9 5263.32 24805.3 5136.77 24889.6C5054.78 24942.3 4969.37 24989.5 4881.11 25030.9C4695.51 25113.4 4505.87 25186.6 4312.92 25250.1C4413.9 25122.3 4504.66 24984.9 4597.97 24851.9C4707.27 24695.3 4932.24 24370.6 5162.33 24391.1H5164.25Z" fill="#263238"/>
<path d="M12210.1 17733.2C12269.8 18289 12301.4 18847.5 12304.7 19406.4C12304.7 19406.4 16185.6 21439.5 16364.5 23372.9C16428.4 24057.5 16335.8 25340.2 14992.9 25925C13492.9 26578.2 5202.6 26128.3 5202.6 26128.3L6238.64 22311.3H9895.15C9895.15 22311.3 7314.95 22721.7 7034.37 21002.4C6774.24 19404.5 7755.32 17731.3 7755.32 17731.3L12210.1 17733.2Z" fill="#37474F"/>
<path d="M6057.77 25941.6C6149.16 25501.9 6237.36 25060.3 6339.63 24622.5C6441.89 24184.7 6550.54 23747.5 6665.59 23312.9C6698.18 23190.2 6729.5 23067.4 6765.29 22944.7C6781.27 22886.6 6797.25 22828.4 6813.87 22770.2C6828.76 22710.8 6846.68 22652.1 6867.56 22594.5C6867.56 22588.1 6877.14 22594.5 6876.5 22597.7C6861.61 22711.3 6840.27 22824 6812.59 22935.1C6789.58 23041.9 6767.21 23148 6744.2 23254.7C6696.48 23472.9 6647.69 23690.8 6597.84 23908.5C6497.49 24344.4 6386.28 24777.1 6273.16 25209.2C6208.39 25455.5 6144.48 25701.1 6081.41 25946.1C6074.38 25959.5 6054.57 25956.3 6057.77 25941.6Z" fill="#263238"/>
<path d="M8630.94 22312.6C8927.5 22291.5 9224.06 22281.9 9521.26 22276.2C9818.46 22270.4 10115 22276.2 10412.2 22276.2C10709.4 22276.2 11006 22297.9 11301.9 22324.1C11598.5 22346.5 11893.2 22389.2 12183.9 22451.9L11963.4 22423.8L11741.6 22402.7C11594 22389.9 11447 22377.8 11298.7 22371.4C11002.8 22354.2 10706.9 22342 10410.3 22336.9C10113.7 22331.8 9817.82 22324.8 9521.26 22320.9L8630.94 22312.6Z" fill="#263238"/>
<path d="M8567.02 18048.3C8434.52 18388.2 8319.54 18734.6 8222.53 19086.2C8122.95 19437 8051.98 19795.2 8010.33 20157.4C7990.55 20337.4 7986.7 20518.8 7998.83 20699.4C8008.1 20878.2 8052.85 21053.3 8130.49 21214.6C8170.52 21292.3 8224.21 21362.3 8289 21421C8355.71 21479.6 8428.57 21530.8 8506.31 21573.8C8664.67 21659.1 8832.1 21726.4 9005.47 21774.5C9356.38 21867 9714.18 21931.1 10075.4 21966.2C10437.1 22008.4 10800.8 22037.8 11161.9 22074.9C11527.6 22105.8 11890.6 22162.2 12248.5 22243.6C12430.1 22284.5 12605.7 22349 12770.6 22435.3C12933.7 22524.3 13086.2 22631.5 13225.1 22754.9L13307.5 22827.8H13196.3L10239.7 22787.5L8765.16 22777.9C8272.38 22777.9 7779.61 22774.7 7286.83 22788.1C7778.97 22759.4 8272.38 22751.7 8765.16 22743.4C9257.93 22735.1 9750.71 22733.2 10244.1 22731.9H11722.5L13201.4 22745.3L13172.7 22817.5C13038.7 22698.5 12891.6 22595.1 12734.2 22509.5C12575.4 22426.4 12406.3 22365 12231.2 22326.7C11876.4 22249 11517.2 22193.5 11155.5 22160.5C10793.1 22122.2 10428.8 22090.8 10065.2 22046.7C9699.63 22008.7 9337.76 21941.1 8983.1 21844.8C8804.87 21794.5 8633.23 21723.3 8471.79 21632.6C8390.48 21585.6 8314.24 21530.3 8244.26 21467.7C8174.23 21402.8 8116.62 21325.7 8074.25 21240.1C7995 21070.4 7950.45 20886.6 7943.23 20699.4C7933.07 20515.4 7939.27 20330.8 7961.76 20147.9C8008.78 19784.3 8087.04 19425.5 8195.69 19075.4C8300.17 18726.3 8424.15 18383.4 8567.02 18048.3Z" fill="#263238"/>
<path d="M11788.3 17692.9C11788.3 17691.1 11789 17689.3 11790.3 17688C11791.7 17686.6 11793.4 17685.9 11795.3 17685.9C11797.2 17685.9 11799 17686.6 11800.3 17688C11801.6 17689.3 11802.3 17691.1 11802.3 17692.9C11817.7 17825.2 11866.3 18580 11887.4 18864.5C11895 18966.1 11887.4 19147 12037.5 19146.3C12154.5 19146.3 12212.7 19018.5 12225.5 18920.1C12241.4 18799.3 12176.9 17922.4 12161.5 17630.9C12161.5 17622.6 12175 17622 12176.2 17630.9C12229.9 17923 12334.1 18852.3 12304.1 18982.7C12296.8 19034 12276.3 19082.6 12244.6 19123.6C12212.8 19164.6 12171 19196.7 12123.2 19216.6C12131.6 19331.4 12129.9 19446.7 12118.1 19561.1C12118.1 19570.7 12087.4 19573.3 12085.5 19565.6C12090.6 19497.2 12054.2 19232.6 12054.8 19231.3C12018.7 19234.3 11982.5 19227.9 11949.6 19212.8C11916.6 19197.7 11888.2 19174.4 11866.9 19145C11762.7 19007 11785.7 18029.1 11788.3 17692.9Z" fill="#263238"/>
<path d="M11369 19932.5C11474.5 19859.6 11583.8 19793.1 11694.3 19727.9C11804.9 19662.7 11916.1 19600.1 12029.2 19540.7C12142.4 19481.2 12256.8 19423.1 12373.1 19370C12489.4 19317 12607 19264.6 12727.8 19221.7C12672.9 19255.6 12616.6 19285.6 12561.6 19318.2L12394.2 19411.6C12283 19475.5 12169.8 19533.6 12057.4 19593.7C11944.9 19653.8 11831.1 19712.6 11716.1 19768.2L11544.1 19852.6C11485.3 19878.8 11427.8 19906.9 11369 19932.5Z" fill="#263238"/>
<path d="M8614.96 19326.6C8820.76 19326.6 9462.46 19363.6 9768.61 19104.8C10016 18895.8 10124.6 18181.9 10167.4 17986.3C10167.4 17976.1 10184 17979.9 10184 17986.3C10188.9 18208 10160.9 18429.2 10101 18642.7C10051.1 18823.6 9983.99 19026.2 9838.27 19154C9692.55 19281.8 9475.88 19334.2 9279.02 19358.5C9057.98 19384.1 8834.54 19380.9 8614.32 19348.9C8611.35 19348.8 8608.54 19347.6 8606.51 19345.4C8604.47 19343.3 8603.37 19340.4 8603.46 19337.4C8603.54 19334.5 8604.8 19331.6 8606.96 19329.6C8609.11 19327.6 8611.99 19326.5 8614.96 19326.6Z" fill="#263238"/>
<path d="M12785.3 16954.7L12474.7 18528.9L7433.19 18012.5C7433.19 18012.5 9276.47 14191.1 10843 12997.8C11466.2 12523.6 11977.5 12735.1 12338.6 13184.4C12421 13287.3 13342.7 15229.7 13368.9 15896.3C13386.8 16441.5 12785.3 16954.7 12785.3 16954.7Z" fill="#FFC727"/>
<path d="M7905.52 17089.6C7916.07 17221.3 7914.78 17353.7 7901.68 17485.2C7874.84 17696.8 7769.38 17958.2 7536.09 18006.7C7501.45 18014.2 7465.79 18015.7 7430.64 18011.2L7435.11 18001.6C7511.37 18011 7588.4 17991.7 7651.14 17947.3C7887.62 17788.2 7906.8 17460.9 7899.13 17204.6C7899.13 17173.3 7899.13 17140.7 7894.65 17110L7905.52 17089.6ZM8476.27 16072.7L8466.68 16088.7C8664.81 16121.3 8798.39 16324.5 8817.57 16521.4C8845.05 16796.8 8680.79 17049.9 8538.9 17271.7C8403.41 17482 8264.07 17703.1 8255.13 17960.7C8253.43 18006.4 8255.57 18052.2 8261.52 18097.5H8281.33C8271.74 18026 8271.74 17953.6 8281.33 17882.1C8316.48 17616.2 8485.85 17395.7 8622.63 17173.9C8750.46 16967.5 8874.45 16722.7 8829.07 16470.9C8795.84 16290 8668.65 16106.6 8476.27 16072.7ZM9890.04 17014.2C9762.21 16862 9547.46 16773.2 9371.06 16899.7C9223.42 17006.5 9190.19 17208.5 9199.77 17378.5C9214.47 17627.7 9343.58 17852.1 9370.42 18099.4C9374.36 18136.8 9375.43 18174.4 9373.62 18211.9H9395.35C9408.77 17985.6 9300.12 17764.5 9247.71 17550.4C9202.33 17365 9194.66 17123.4 9323.77 16968.1C9358.51 16926.5 9403.42 16894.6 9454.16 16875.4C9504.89 16856.3 9559.71 16850.6 9613.3 16858.8C9731.33 16884.9 9834.67 16955.7 9901.55 17056.3C10075.4 17296 10019.1 17597.7 9986.55 17871.9C9967.05 18004.4 9965.75 18139.1 9982.72 18272H10001.3C9971.21 18087.3 10001.3 17896.8 10024.3 17708.3C10043.8 17572.6 10043.8 17434.9 10024.3 17299.2C10004.5 17194.3 9958.34 17096.2 9890.04 17014.2ZM10668.5 16985.4C10538 16822.1 10364.7 16698.3 10168.1 16627.5C9932.87 16545 9677.85 16534.2 9446.48 16439.6C9329.47 16393.6 9225.79 16319.1 9144.81 16222.9C9065.12 16122.4 9005.26 16007.7 8968.4 15884.8C8914.21 15723.5 8889.74 15553.7 8896.18 15383.7C8889.15 15393.9 8882.76 15404.2 8876.37 15415C8874.13 15517.2 8883.57 15619.2 8904.49 15719.3C8949.87 15949.3 9045.74 16186.5 9232.37 16337.9C9419 16489.4 9661.23 16526.5 9888.13 16573.1C10010.1 16595.2 10129.4 16629.9 10244.1 16676.7C10344.8 16721.6 10437.9 16781.8 10520.2 16855C10848.1 17146.5 11001.5 17610.5 10972.7 18041.9C10967.2 18153.3 10945.7 18263.3 10908.8 18368.5H10927.4C10946.7 18316.8 10961.5 18263.6 10971.5 18209.3C11010.6 17995.5 11003.8 17775.8 10951.6 17564.8C10899.3 17353.8 10802.9 17156.3 10668.5 16985.4ZM10374.5 15126.1C10314.3 15024.9 10244.8 14929.4 10166.8 14841.1C10015.3 14663.4 9841.47 14485.1 9783.31 14252.4C9772.89 14212.7 9766.89 14172 9765.41 14131C9759.73 14137.5 9754.4 14144.4 9749.43 14151.5V14154.6C9768.61 14375.1 9904.1 14557.9 10042.2 14721.6C10119.5 14813 10200 14901.8 10271 14998.3C10352 15107.4 10414.8 15228.9 10457 15358.1C10526.6 15574.8 10566.3 15880.3 10416.1 16074.6C10381.8 16121.5 10332.7 16155.3 10276.7 16170.5C10220.7 16185.7 10161.2 16181.4 10108 16158.3C10052.1 16131.6 10002.8 16092.8 9963.7 16044.7C9924.59 15996.6 9896.59 15940.5 9881.73 15880.3C9811.43 15615.7 9924.56 15342.2 9865.12 15075C9845.6 14969.1 9789.22 14873.6 9705.97 14805.3C9633.15 14752.2 9544.88 14724.6 9454.79 14726.7C9408.54 14726.9 9362.54 14733.4 9318.01 14745.8L9300.76 14770.8C9353.92 14753.1 9409.65 14744.5 9465.65 14745.2C9521.71 14744.6 9577.18 14756.7 9627.88 14780.6C9678.58 14804.5 9723.2 14839.6 9758.38 14883.3C9829.19 14985.4 9865.68 15107.4 9862.56 15231.6C9868.95 15487.3 9769.88 15778.1 9914.33 16010.7C9966.62 16101.2 10052.5 16167.3 10153.4 16194.8C10199.2 16204.9 10246.9 16202.9 10291.7 16189C10336.5 16175.1 10377 16149.8 10409 16115.5C10559.9 15958.9 10552.2 15699.4 10515.1 15502C10488.7 15369.9 10441.3 15243 10374.5 15126.1ZM11220.1 14049.8C11196.4 13759.7 11099.3 13479.7 11098.7 13187C11097.2 13055.1 11123.6 12924.5 11176 12803.5L11149.8 12814.4C11110.4 12909.6 11087.3 13010.7 11081.4 13113.5C11062.2 13404.9 11156.8 13688.7 11192 13972.5C11212.1 14105.7 11212.1 14241.3 11192 14374.5C11180.9 14440.6 11161.6 14505 11134.4 14566.3C11110.2 14621.2 11074.4 14701.1 11014.3 14724.8C10954.2 14748.4 10890.9 14698.6 10857.1 14648.1C10822.1 14590.1 10802.7 14524 10800.8 14456.3C10789.9 14306.8 10814.9 14157.8 10817.4 14008.9C10821.3 13801.8 10765 13555.1 10555.4 13464.4C10497.5 13439.4 10435 13427.2 10372 13428.6L10354.7 13446.5C10406.9 13441.8 10459.6 13447.9 10509.4 13464.4C10559.2 13480.9 10605.1 13507.4 10644.2 13542.4C10845.6 13724.5 10797 14032.6 10782.3 14272.2C10775.3 14396.2 10766.9 14541.3 10834.1 14651.9C10876.9 14721.6 10961.9 14788 11043.7 14735C11087.1 14699.9 11120.6 14654.1 11140.8 14602C11167.3 14548.7 11187.5 14492.5 11200.9 14434.6C11227.5 14308.1 11233.9 14178.3 11220.1 14049.8ZM11726.9 15491.7C11935.9 15404.8 12079.1 15208.6 12194.1 15021.3C12325.2 14806.6 12423 14573.9 12562.9 14361.7C12618.5 14268.9 12696.8 14191.7 12790.5 14137.4L12785.3 14125.9C12680.1 14188.4 12592.2 14276.3 12529.7 14381.5C12394.8 14592.5 12295.1 14824.5 12161.5 15036.7C12037.5 15232.9 11877.1 15438 11641.9 15497.5C11592.1 15514.4 11538.8 15518.2 11487.1 15508.6C11435.4 15499 11387 15476.2 11346.6 15442.5C11255.2 15352.4 11258.4 15211.8 11293 15096.7C11347.9 14913.9 11494.3 14781 11642.6 14669.8C11790.8 14558.6 11965.3 14454.4 12109.8 14324.7C12274.4 14179.8 12383.9 13982.4 12419.8 13766.1C12442.4 13628.9 12445.8 13489.3 12430 13351.2C12419.1 13329.5 12409.5 13310.3 12399.9 13292.4C12435.1 13542.4 12425.5 13813.3 12309.2 14041.5C12212.7 14230.1 12043.9 14361.1 11874.6 14481.2C11713.1 14581.1 11563.1 14698.3 11427.2 14830.9C11305.7 14962.5 11209.2 15158.7 11262.9 15342.2C11324.3 15555.6 11556.3 15564.6 11726.9 15491.7ZM13175.9 15116.6C13116.3 15270.4 13029.7 15412.4 12920.2 15535.8C12745.6 15729.7 12519.1 15869.6 12267.6 15939.1C12144.8 15973 12018 15990.2 11890.5 15990.3C11750.6 15981.9 11611.4 15964.1 11473.8 15937.2C11357.2 15916.5 11237.1 15930.9 11128.7 15978.7C11031.4 16025.1 10950.2 16099.5 10895.4 16192.2C10863.3 16244 10842.7 16302.1 10835.2 16362.6C10827.7 16423 10833.4 16484.4 10851.9 16542.5C10883.2 16626.9 10946.3 16695.7 11027.7 16734.2C11118.9 16773.5 11218.5 16789.4 11317.4 16780.3C11416.3 16771.3 11511.4 16737.6 11594 16682.4C11698.6 16614.7 11796.5 16537 11886.1 16450.4C11983.9 16361.6 12084.2 16253.6 12209.5 16205C12433.2 16118.1 12625.6 16323.9 12653 16533.5C12684.4 16775.8 12490.7 16970.7 12293.2 17075.5C12095.7 17180.3 11854.8 17203.3 11643.8 17294.7C11459.1 17375.3 11316.6 17528 11317.9 17742.1C11321.7 18185.7 11856 18567.3 12270.8 18381.3C12380.4 18329.4 12475.3 18250.9 12546.9 18153.1L12555.3 18109.6C12440.2 18267.5 12282.3 18396.6 12079.7 18408.8C11952.3 18410.9 11826.4 18380 11714.4 18319C11602.4 18258.1 11508.1 18169.2 11440.6 18061.1C11320.4 17869.3 11290.4 17613.7 11457.8 17442.4C11615.1 17280 11861.8 17250.6 12068.9 17186.7C12275.9 17122.8 12484.3 17018.6 12601.3 16832C12653.2 16752.2 12678.7 16658.1 12674.1 16562.9C12669.5 16467.8 12635.1 16376.6 12575.7 16302.2C12524.6 16234 12450.2 16186.9 12366.7 16169.9C12312.2 16165.1 12257.4 16171.8 12205.6 16189.6C12153.9 16207.3 12106.4 16235.6 12066.3 16272.8C11866.3 16428.1 11701.4 16640.3 11457.8 16731.7C11275.7 16800 11010.5 16777 10899.9 16598.1C10747.8 16355.8 10963.8 16054.8 11198.4 15976.2C11337.1 15930.2 11478.9 15958.9 11618.9 15985.1C11741 16008.8 11865.5 16017.1 11989.6 16010.1C12230.5 15993.7 12463.1 15915.2 12664.7 15782.2C12866.3 15649.3 13030.1 15466.4 13140.1 15251.4C13156 15219.5 13171.4 15187.5 13185.4 15153L13175.9 15116.6ZM13303.7 15671.3L13333.7 15658.5L13329.9 15640.6C13260.5 15664.6 13198.3 15705.7 13149 15760.2C13115.9 15793.9 13089.9 15833.9 13072.5 15877.8C13055 15921.7 13046.5 15968.6 13047.4 16015.8C13051.7 16058.6 13065.4 16099.9 13087.5 16136.8C13109.6 16173.7 13139.5 16205.3 13175.2 16229.3C13209.3 16252.5 13246 16271.6 13284.5 16286.2L13292.8 16267C13254.5 16253.4 13218.2 16234.7 13184.8 16211.4C13139.1 16181.1 13104 16137.3 13084.4 16086C13064.8 16034.8 13061.7 15978.8 13075.5 15925.7C13093.2 15869.9 13122.5 15818.5 13161.7 15775C13200.8 15731.4 13248.8 15696.7 13302.4 15673.2L13303.7 15671.3Z" fill="white"/>
<path d="M12111 16581.5C11855.5 16562.1 11598.7 16566.8 11344.1 16595.5C11216.3 16611.5 11088.4 16635.1 10960.6 16662.6C10896.7 16676 10832.8 16686.9 10768.9 16697.1C10703.7 16710.5 10636.9 16713.7 10570.7 16706.7C10565 16706.7 10562.4 16717 10570.7 16718.2C10630.8 16733.9 10692.2 16744.1 10754.2 16748.9C10814.8 16751.5 10875.5 16748.7 10935.7 16740.6C11063.5 16725.3 11191.3 16702.9 11323.6 16686.3C11584.4 16652.4 11844.5 16618.5 12104.7 16608.9C12120.6 16608.3 12122.6 16582.7 12111 16581.5Z" fill="#263238"/>
<path d="M12665.2 16983.5C12467.5 16916.4 12265.2 16863.9 12059.9 16826.2C11957.1 16808.6 11853.4 16796.6 11749.3 16790.5C11699.4 16787.3 11649 16784.7 11599.1 16783.4C11549.2 16782.1 11487.9 16789.8 11432.9 16787.3C11427.2 16787.3 11424.6 16798.1 11432.9 16798.8C11484.1 16803.2 11534.5 16818.6 11585.7 16826.9L11739.7 16851.2C11842.6 16867.8 11944.9 16885.7 12047.8 16901C12254.2 16931.7 12458.7 16964.9 12663.3 17005.2C12672.2 17007.1 12675.4 16986.7 12665.2 16983.5Z" fill="#263238"/>
<path d="M11596.5 13043.2C11585.7 13144.8 11823.4 13910.5 12260 14039C12402.5 14080.5 12664.5 13314.2 12664.5 13314.2L12696.5 13261.8L13147.7 12531.2L12424.2 11612.2L12316.8 11484.3C12316.8 11484.3 12206.9 11692.7 12072.1 11952.8L12052.9 11989.9C12044.6 12004.6 12036.9 12018 12029.9 12032.1C12009.4 12070.4 11988.3 12110 11966 12150.3C11950.6 12180.3 11935.9 12209.7 11920.6 12241.7C11905.2 12273.7 11890.5 12305.6 11874.6 12337.6C11765.4 12565.9 11672.5 12801.7 11596.5 13043.2Z" fill="#D3766A"/>
<path d="M12072.1 11955.4C12075 12205.4 12132.4 12451.8 12240.3 12677.4C12348.1 12903 12503.8 13102.4 12696.5 13261.8L13147.7 12531.2L12424.2 11612.2L12316.9 11484.3C12316.9 11484.3 12210.1 11695.2 12072.1 11955.4Z" fill="#263238"/>
<path d="M14697.6 11720.8C14282.2 13169.7 13367.6 13084.7 13055.1 12994.6C12771.9 12913.4 11817 12599.6 12079.7 11115.5C12342.4 9631.46 13147.7 9366.86 13805.4 9517.69C14463.1 9668.53 15112.4 10269.3 14697.6 11720.8Z" fill="#D3766A"/>
<path d="M14497 11282.4C14465.4 11267.9 14434.6 11251.7 14404.9 11233.8C14370.8 11221.8 14341.3 11199.5 14320.6 11169.9C14316.2 11158.7 14315.5 11146.4 14318.8 11134.9C14322 11123.4 14328.9 11113.2 14338.4 11106C14359.5 11095 14383.1 11089.8 14406.7 11091C14430.4 11092.1 14453.4 11099.5 14473.3 11112.3C14518.1 11131 14554.3 11165.6 14574.9 11209.5C14579.1 11220.2 14579.9 11231.9 14577.3 11243.1C14574.8 11254.3 14568.9 11264.4 14560.5 11272.3C14552.2 11280.1 14541.6 11285.2 14530.3 11287C14519 11288.8 14507.4 11287.2 14497 11282.4Z" fill="#263238"/>
<path d="M13538.9 11017.8C13573.5 11022 13608.2 11024.4 13643.1 11024.8C13679.3 11032.5 13717 11028 13750.4 11012C13760.2 11004.9 13767.2 10994.7 13770.4 10983.1C13773.7 10971.5 13773 10959.2 13768.3 10948.1C13756.2 10927.9 13738.9 10911.4 13718.2 10900.2C13697.5 10888.9 13674.2 10883.4 13650.7 10884.2C13602.7 10877.3 13553.8 10889 13514 10916.8C13505.5 10923.7 13499.2 10932.8 13495.7 10943.1C13492.3 10953.5 13491.8 10964.6 13494.4 10975.2C13497 10985.7 13502.6 10995.4 13510.5 11002.9C13518.4 11010.4 13528.2 11015.6 13538.9 11017.8Z" fill="#263238"/>
<path d="M13627.7 11440.2C13627.7 11436.4 13618.8 11440.2 13617.5 11447.3C13595.1 11547 13553.6 11658.2 13453.9 11667.1C13450.7 11667.1 13449.4 11672.9 13453.9 11673.5C13567 11686.3 13622 11538.7 13627.7 11440.2Z" fill="#263238"/>
<path d="M13565.7 11313C13409.8 11259.3 13310.1 11576.4 13458.4 11626.2C13606.6 11676.1 13697.4 11358.4 13565.7 11313Z" fill="#263238"/>
<path d="M13498.6 11311.1C13465.4 11320.7 13429 11344.4 13394.4 11337.3C13359.9 11330.3 13335.6 11287.5 13320.3 11247.8C13320.3 11244 13314.5 11247.8 13313.3 11247.8C13299.5 11275.5 13296.8 11307.3 13305.7 11336.9C13314.7 11366.5 13334.5 11391.5 13361.2 11407C13418.1 11433.2 13476.9 11392.3 13510.8 11335.4C13516.5 11327.1 13512 11307.3 13498.6 11311.1Z" fill="#263238"/>
<path d="M14202.9 11589.1C14202.9 11585.3 14209.3 11596.2 14207.4 11600C14174.2 11697.2 14151.8 11814.1 14230.4 11874.2C14230.4 11874.2 14230.4 11880.6 14230.4 11879.3C14127.5 11830.1 14155.7 11675.4 14202.9 11589.1Z" fill="#263238"/>
<path d="M14322.5 11513.7C14483.5 11550.8 14397.2 11871 14248.3 11836.5C14099.4 11802 14187 11483 14322.5 11513.7Z" fill="#263238"/>
<path d="M14383.2 11552.7C14403.6 11577 14420.9 11616.6 14450.3 11624.3C14479.7 11632 14520 11608.3 14551.3 11581.5C14554.5 11581.5 14556.4 11581.5 14555.1 11585.9C14540.4 11649.9 14503.3 11706.1 14441.3 11701.6C14379.4 11697.2 14359.5 11637.7 14361.5 11573.8C14361.5 11558.5 14374.9 11543.1 14383.2 11552.7Z" fill="#263238"/>
<path d="M13424.5 12237.2C13439.8 12267.9 13452 12307.5 13488.4 12322.9C13524.8 12334.9 13563.4 12339 13601.5 12335C13602.4 12335 13603.2 12335.4 13603.8 12336C13604.4 12336.6 13604.7 12337.4 13604.7 12338.2C13604.7 12339.1 13604.4 12339.9 13603.8 12340.5C13603.2 12341.1 13602.4 12341.4 13601.5 12341.4C13581.1 12355.7 13557.1 12364.2 13532.2 12365.9C13507.3 12367.6 13482.4 12362.4 13460.3 12351C13442.5 12338.8 13428.6 12321.6 13420.4 12301.6C13412.2 12281.7 13410.1 12259.7 13414.3 12238.5C13411.7 12232.1 13420 12232.1 13424.5 12237.2Z" fill="#263238"/>
<path d="M13935.8 12000.7C13935.8 12000.7 13913.4 12153.5 13893 12223.2C13893 12229.6 13873.8 12227.6 13849.5 12223.2C13786.7 12216.8 13726.8 12193.2 13676.5 12155C13626.2 12116.7 13587.4 12065.4 13564.5 12006.5C13564.5 11998.8 13572.8 11993.7 13577.9 12000.1C13648.6 12086.5 13745.5 12147.5 13854 12174C13864.2 12156.1 13883.4 11910.6 13894.9 11912.5C13947.4 11933 13996.8 11960.5 14041.9 11994.4C14098.1 11674.8 14102.6 11355.2 14162.7 11035.6C14162.7 11024.1 14181.9 11025.4 14181.9 11035.6C14201.7 11375.7 14145.4 11742.5 14096.2 12071.7C14089.8 12113.9 13962 12020.6 13935.8 12000.7Z" fill="#263238"/>
<path d="M13799.7 12178.4C13749.1 12215.4 13689.9 12238.7 13627.7 12246.2C13593.9 12249 13560 12241.4 13530.6 12224.4C13466.7 12186.1 13483.3 12121.5 13512 12071.1C13527.4 12044.2 13545.8 12019.4 13567 11996.9C13623.2 12080.7 13704.8 12144.2 13799.7 12178.4Z" fill="#263238"/>
<path d="M13627.7 12246.2C13593.9 12249 13560 12241.4 13530.6 12224.4C13466.7 12186.1 13483.3 12121.5 13512 12071.1C13548.1 12083.1 13579.2 12106.9 13600.1 12138.6C13621.1 12170.4 13630.8 12208.3 13627.7 12246.2Z" fill="#FF9CBD"/>
<path d="M12014.5 11362.9C12263.2 11439.6 12440.8 10921.9 12440.8 10921.9C12440.8 10921.9 12952.2 11039.5 13290.9 10338.3C13226.5 10556.6 13099.7 10751.2 12926 10898.2C12926 10898.2 13854 11006.2 14406.8 10333.9C14406.8 10333.9 14167.8 10686 13994 10790.9C13994 10790.9 14397.9 10771 14652.9 10503.9C14652.9 10503.9 14713 10977.5 14808.2 11125.8C14808.2 11125.8 15127.8 9531.12 13620.1 9368.77C13620.1 9368.77 12686.3 9222.41 12191.6 9876.25C11696.9 10530.1 12014.5 11362.9 12014.5 11362.9Z" fill="#263238"/>
<path d="M12617.9 11010.1L12282.3 10612.5L12184.6 10710.3L12561 11063.8L12617.9 11010.1Z" fill="#FFC727"/>
<path d="M12531 11111.1L12130.9 10779.4L12051 10892.5L12484.9 11173.7L12531 11111.1Z" fill="#FFC727"/>
<path d="M12278.5 11290C12278.5 11290 12139.2 10733.3 11898.2 10766.6C11657.3 10799.8 11642.6 11525.2 11844.5 11701.6C11868.8 11726 11897.7 11745.2 11929.5 11758.2C11961.3 11771.1 11995.5 11777.5 12029.8 11777C12064.2 11776.5 12098.1 11769 12129.5 11755.1C12160.9 11741.1 12189.2 11721 12212.7 11695.9L12278.5 11290Z" fill="#D3766A"/>
<path d="M11899.5 10974.3C11898.8 10974.2 11898 10974.3 11897.4 10974.6C11896.7 10974.9 11896.2 10975.4 11895.8 10976C11895.4 10976.6 11895.1 10977.3 11895.1 10978C11895.1 10978.7 11895.3 10979.4 11895.7 10980C12034.4 11107.9 12062.5 11295.1 12063.1 11476C12059.9 11455.9 12052.3 11436.6 12040.9 11419.7C12029.6 11402.8 12014.6 11388.5 11997.2 11377.9C11979.7 11367.3 11960.2 11360.7 11939.9 11358.4C11919.6 11356.2 11899 11358.3 11879.7 11364.8C11874.6 11364.8 11875.8 11374.4 11879.7 11375C11912.1 11376.9 11943.2 11388.8 11968.6 11409.1C11994 11429.3 12012.5 11457 12021.6 11488.2C12036.3 11540.3 12045.4 11593.9 12048.4 11647.9C12048.4 11665.2 12080.4 11667.8 12081 11647.9V11643.5C12166.7 11436.4 12116.2 11081.7 11899.5 10974.3Z" fill="#263238"/>
<path d="M10379.6 14280.6C10117.6 15726.3 9484.83 18712.3 10065.8 19633.3C10827.7 20842 13469.2 21728.4 14160.1 21989.2C14461.8 22103 15334.9 20145.3 15175.7 19839.8C15016.6 19534.3 12284.9 18318.6 12102.1 18137.1C11919.3 17955.6 11749.9 15569.1 11543.5 14339.4C11282.7 12787.5 10600.8 13056.6 10379.6 14280.6Z" fill="#D3766A"/>
<path d="M15391.1 20130.6C15267.8 20021.9 15327.2 19956.1 15615.4 19973.4C15903.7 19990.6 17045.8 20302.5 17121.3 19896C17196.7 19489.5 15583.5 19070.9 15096.5 19080.5C14609.4 19090.1 13824.6 19276.1 13824.6 19276.1C14121.8 19420.5 14810.8 19837.9 15391.1 20130.6Z" fill="#D3766A"/>
<path d="M13007.8 21571.2C13861 21947 14900.3 22466 15947.8 22344.6C16064.2 22334 16173.7 22284.5 16258.4 22204C16727.5 22157.3 16846.4 21922.1 16846.4 21922.1C17270.2 21744.4 17357.7 21486.8 17357.7 21486.8C17357.7 21486.8 17908 21426.1 17926.6 21087.4C17948.3 20707.7 17171.1 20867.5 16689.8 20693.7C15588 20296.1 14133.3 19422.4 13825.9 19276.1L13007.8 21571.2Z" fill="#D3766A"/>
<path d="M15240.9 21088.7C15562 21208.7 15890.8 21306.7 16225.2 21382C16598.4 21454.2 16969.8 21461.3 17346.9 21477.9C17348 21477.9 17349.2 21478.1 17350.3 21478.6C17351.4 21479 17352.4 21479.7 17353.2 21480.5C17354 21481.4 17354.7 21482.3 17355.1 21483.4C17355.6 21484.5 17355.8 21485.7 17355.8 21486.8C17355.8 21488 17355.6 21489.2 17355.1 21490.3C17354.7 21491.4 17354 21492.3 17353.2 21493.2C17352.4 21494 17351.4 21494.7 17350.3 21495.1C17349.2 21495.6 17348 21495.8 17346.9 21495.8C16658.5 21574.4 15853.2 21412.1 15234.5 21103.4C15220.5 21096.3 15224.3 21082.9 15240.9 21088.7Z" fill="#263238"/>
<path d="M14904.1 21718.9C15227.5 21809 15798.9 21963.6 16843.2 21910.6C16847.1 21910.6 16848.3 21916.3 16843.2 21917C16190.6 22037.8 15517.2 21974.7 14898.3 21734.8C14879.8 21727.2 14882.4 21713.1 14904.1 21718.9Z" fill="#263238"/>
<path d="M14729 22061.4C15285.7 22193.1 15653.2 22205.9 16253.3 22201.4C16256.5 22201.4 16257.8 22207.8 16253.3 22207.8C15572 22284.5 15316.3 22235.3 14719.4 22080C14702.8 22074.9 14707.2 22056.3 14729 22061.4Z" fill="#263238"/>
<path d="M11895 16022.9L9744.32 16667.1C9744.32 16667.1 10214.1 14242.8 10553.5 13569.2C10937 12810.5 11239.9 13171.7 11499.4 13936.1C11758.9 14700.5 11895 16022.9 11895 16022.9Z" fill="#FFC727"/>
<path d="M9771.16 16531C9854.89 16548.2 9938.62 16564.2 10021.1 16584L9985.91 16594.9L9888.12 16573.1L9767.96 16548.9C9768.6 16543.1 9769.88 16537.4 9771.16 16531ZM10374.5 15124.9C10314.3 15023.6 10244.8 14928.1 10166.8 14839.8L10153.4 14824.5L10147.6 14845.6C10189.8 14894.8 10230.7 14944.6 10269.1 14997C10350.1 15106.2 10412.9 15227.7 10455 15356.9C10524.7 15573.5 10564.3 15879 10414.1 16073.3C10379.9 16120.2 10330.8 16154 10274.8 16169.2C10218.8 16184.4 10159.3 16180.1 10106.1 16157.1C10008.9 16111.5 9933.63 16029.5 9896.43 15928.9L9888.76 15966C9895.76 15980.9 9903.66 15995.4 9912.41 16009.4C9964.7 16099.9 10050.6 16166.1 10151.4 16193.5C10197.3 16203.6 10244.9 16201.6 10289.8 16187.7C10334.6 16173.8 10375 16148.5 10407.1 16114.2C10557.9 15957.7 10550.3 15698.2 10513.2 15500.7C10487.3 15369.2 10440.5 15242.8 10374.5 15126.1V15124.9ZM11220.1 14048.6C11197.1 13762.2 11101.8 13486.1 11098.7 13197.9C11092.7 13192.5 11086 13188 11078.8 13184.4C11078.8 13449.7 11160 13707.9 11192 13969.3C11212.1 14102.5 11212.1 14238.1 11192 14371.3C11180.9 14437.4 11161.6 14501.8 11134.4 14563.1C11110.2 14618 11074.4 14697.9 11014.3 14721.6C10954.2 14745.2 10890.9 14695.4 10857.1 14644.9C10822.1 14586.9 10802.7 14520.8 10800.8 14453.1C10789.9 14303.6 10814.9 14154.6 10817.4 14005.7C10821.3 13814 10773.3 13590.3 10602 13486.1C10598.8 13491.2 10596.3 13496.3 10593.7 13501.4C10611.7 13512.5 10628.6 13525.1 10644.2 13539.2C10845.6 13721.3 10797 14029.4 10782.3 14269.1C10775.2 14393 10766.9 14538.1 10834 14648.7C10876.9 14718.4 10961.9 14784.8 11043.7 14731.8C11087.1 14696.7 11120.6 14650.9 11140.8 14598.8C11167.3 14545.5 11187.5 14489.4 11200.9 14431.4C11227.1 14306 11233.6 14177.2 11220.1 14049.8V14048.6ZM11726.9 15491.7C11759.8 15478 11791.4 15461.6 11821.5 15442.5C11821.5 15435.5 11821.5 15428.5 11821.5 15421.4C11767.1 15457.3 11707 15483.9 11643.8 15500C11594 15517 11540.7 15520.8 11489 15511.2C11437.3 15501.5 11388.9 15478.8 11348.6 15445.1C11257.2 15354.9 11260.4 15214.3 11294.9 15099.3C11349.8 14916.5 11496.2 14783.6 11644.5 14672.3L11686 14642.3C11686 14634.6 11686 14627 11681.5 14619.9C11590.3 14681.7 11506.1 14753.3 11430.4 14833.4C11308.9 14965.1 11212.4 15161.3 11266.1 15344.7C11324.3 15555.6 11556.3 15564.6 11726.9 15491.7ZM11891.2 15987.1C11751.3 15978.7 11612 15961 11474.5 15934C11357.8 15913.3 11237.7 15927.7 11129.3 15975.6C11032.1 16021.9 10950.9 16096.3 10896 16189C10868.7 16234.8 10849.7 16285 10839.8 16337.3L10857.1 16332.2C10880.4 16248.9 10923.4 16172.4 10982.5 16109.3C11041.5 16046.1 11114.9 15998 11196.4 15969.2C11335.1 15923.1 11477 15951.9 11617 15978.1C11708.5 15995.2 11801.3 16004.4 11894.4 16005.6C11890.5 16003 11890.5 15996.6 11890.5 15989L11891.2 15987.1Z" fill="white"/>
<path d="M11702.6 15656C11417.6 15701.4 10582.2 15956.4 10443.5 15997.3C10370.7 16019 10083.1 16117.4 10010.2 16138.5C10000.6 16138.5 10006.4 16155.2 10016 16152.6C10155.3 16112.3 10299.1 16088.7 10439.1 16048.4C10579 16008.1 11438.7 15780.6 11705.8 15664.9C11706.4 15664.2 11706.7 15663.3 11706.9 15662.4C11707 15661.4 11706.9 15660.5 11706.6 15659.6C11706.3 15658.7 11705.8 15657.9 11705.1 15657.3C11704.4 15656.7 11703.5 15656.2 11702.6 15656Z" fill="#263238"/>
<path d="M10243.5 14511.9C10243.5 14501.7 10231.3 14499.8 10228.1 14511.9C10164.2 14712 10107.3 14913.9 10052.4 15116.6C10055.9 15006.7 10069.4 14897.4 10092.6 14790C10092.9 14789.4 10093 14788.7 10093 14788.1C10092.9 14787.5 10092.7 14786.9 10092.3 14786.3C10092 14785.8 10091.5 14785.3 10091 14785C10090.4 14784.7 10089.8 14784.6 10089.1 14784.6C10088.5 14784.6 10087.9 14784.7 10087.3 14785C10086.7 14785.3 10086.3 14785.8 10085.9 14786.3C10085.6 14786.9 10085.4 14787.5 10085.3 14788.1C10085.3 14788.7 10085.4 14789.4 10085.6 14790C10053.7 14913.3 10038.2 15040.3 10039.6 15167.7C10001.7 15308.7 9965.25 15450.4 9930.31 15592.7C9842.11 15954.5 9748.79 16315.6 9681.04 16679.2C9680.21 16683.7 9680.56 16688.3 9682.06 16692.5C9683.57 16696.8 9686.18 16700.6 9689.62 16703.5C9693.06 16706.4 9697.21 16708.4 9701.66 16709.2C9706.1 16709.9 9710.68 16709.6 9714.92 16708C9789.06 16683.1 9861.92 16656.9 9934.14 16626.8C9941.81 16623.6 9939.89 16610.9 9934.14 16612.1C9870.23 16623 9806.31 16637.1 9742.4 16651.1C9837.63 16304.1 9914.33 15952.5 9998.06 15602.9C10085.6 15239.9 10170.6 14876.9 10243.5 14511.9Z" fill="#263238"/>
<path d="M11798.5 15063.5C11794 14945.3 11789.6 14827 11781.3 14708.8H11777.4C11777.4 14796.3 11777.4 14883.3 11781.9 14970.2C11749.3 14799.5 11713.5 14628.9 11670 14458.9C11670 14458.9 11665.6 14458.9 11666.2 14458.9C11693.7 14720.9 11735.2 14981.1 11769.1 15242.5C11803 15503.9 11840.1 15753.8 11877.8 16009.4C11831.1 16031.8 11783.8 16052.9 11736.5 16073.3C11735 16074.3 11733.9 16075.7 11733.4 16077.3C11732.8 16079 11732.9 16080.8 11733.5 16082.4C11734 16084 11735.2 16085.4 11736.7 16086.3C11738.2 16087.2 11739.9 16087.6 11741.6 16087.4C11796.6 16073.3 11851.6 16059.9 11907.2 16049.1C11913.7 16048.1 11919.7 16044.8 11923.9 16039.7C11928.2 16034.6 11930.4 16028.2 11930.2 16021.6C11898.9 15705.2 11856 15383.1 11798.5 15063.5Z" fill="#263238"/>
<path d="M18712.1 7394.47C18676.9 7732.07 18548.6 8053.25 18341.5 8322.16C18134.4 8591.07 17856.7 8797.13 17539.2 8917.32C17221.8 9037.52 16877.2 9067.12 16543.9 9002.83C16210.7 8938.54 15901.8 8782.88 15651.9 8553.23L14736 8687.45L15194.3 7895.56C15088.1 7637.59 15042.3 7358.79 15060.3 7080.42C15078.3 6802.05 15159.6 6531.46 15298.1 6289.31C15436.6 6047.15 15628.5 5839.82 15859.3 5683.12C16090.1 5526.43 16353.6 5424.51 16629.8 5385.15C16905.9 5345.78 17187.4 5370.01 17452.8 5455.98C17718.2 5541.95 17960.4 5687.39 18161 5881.21C18361.6 6075.03 18515.3 6312.11 18610.4 6574.37C18705.4 6836.62 18739.3 7117.12 18709.5 7394.47H18712.1Z" fill="white"/>
<path d="M18712.1 7394.47C18677.5 7731.77 18550.8 8053.05 18345.8 8323.14C18294.5 8390.43 18239 8454.47 18179.7 8514.88C18119.3 8573.48 18055.3 8628.13 17987.9 8678.5C17852.9 8781 17704 8863.85 17545.6 8924.57C17387.6 8986.35 17221.8 9025.93 17052.9 9042.17C16967.9 9049.79 16882.4 9051.29 16797.2 9046.65C16711.4 9044.73 16625.9 9035.97 16541.6 9020.44C16203.8 8958.41 15889.9 8803.48 15635.3 8573.05L15657 8580.08L14741.7 8720.69L14677.8 8730.27L14711.7 8672.11L15167.4 7878.3V7909.62C15060.1 7647.02 15014.5 7363.29 15034.1 7080.28C15053.7 6797.27 15138 6522.55 15280.5 6277.26C15421.2 6033.26 15615.8 5824.71 15849.5 5667.6C16083.2 5510.5 16349.8 5409.02 16628.9 5370.95C16907.9 5332.88 17192 5359.22 17459.2 5447.97C17726.5 5536.71 17969.9 5685.5 18170.7 5882.91C18369.2 6077.69 18520.9 6314.85 18614.7 6576.63C18708.4 6838.4 18741.7 7118 18712.1 7394.47ZM18712.1 7394.47C18741.3 7118.66 18706.9 6839.81 18611.4 6579.42C18515.8 6319.03 18361.8 6084.06 18161.1 5892.63C17960.4 5701.19 17718.4 5558.4 17453.8 5475.27C17189.2 5392.14 16909 5370.88 16634.9 5413.14C16363.2 5453.97 16104.6 5556.52 15878.8 5712.9C15654.8 5870.2 15467.7 6074.33 15330.4 6311.13C15195.5 6548.51 15116.2 6813.35 15098.4 7085.77C15081 7358.06 15124.7 7630.79 15226.2 7884.05L15233.2 7900.03L15224.3 7915.37L14766.7 8704.07L14734.1 8655.49L15651.2 8527.67H15664L15673 8536.61C15917.7 8765.57 16221.3 8921.82 16549.9 8987.85C16631.8 9004.43 16715 9014.69 16798.5 9018.53C17049.2 9034.71 17300.4 8997.23 17535.4 8908.59C17693.5 8851.19 17842.3 8770.87 17977.1 8670.2C18044.3 8620.3 18108.3 8566.3 18168.8 8508.49C18228.5 8448.41 18284 8384.35 18335 8316.75C18543.2 8049.94 18673.7 7730.77 18712.1 7394.47Z" fill="#263238"/>
<path d="M17667.1 7549.15C17462 7823.99 17200.5 8051.73 16900.1 8217.05C16599.6 8051.86 16338.1 7824.09 16133.1 7549.15C15862.2 7191.23 15877.5 6630.06 16261 6508.63C16689.8 6374.41 16900.1 7019.94 16900.1 7019.94C16900.1 7019.94 17113.6 6370.57 17539.3 6508.63C17923.4 6633.9 17938.1 7191.23 17667.1 7549.15Z" fill="#FFC727"/>
<path d="M23207.8 23494.4C23002.6 23139.7 21515.3 21975.1 20932.4 22312C20349.5 22648.8 20077.3 24336.1 21188.1 25629.7C21188.1 25629.7 20627.6 25702.6 20513.8 25765.2C20400 25827.9 20253.7 26064.4 20297.1 26130.8C20340.6 26197.3 20772.7 26336 20884.5 26350.1C20996.4 26364.1 22366 26188.4 22468.9 26149.4C22571.8 26110.4 22454.2 25964 22454.2 25964C22454.2 25964 23476.9 26007.5 23760.6 25782.5C24044.4 25557.5 23522.9 24036.4 23207.8 23494.4Z" fill="#FFC727"/>
<path opacity="0.1" d="M23207.8 23494.4C23002.6 23139.7 21515.3 21975.1 20932.4 22312C20349.5 22648.8 20077.3 24336.1 21188.1 25629.7C21188.1 25629.7 20627.6 25702.6 20513.8 25765.2C20400 25827.9 20253.7 26064.4 20297.1 26130.8C20340.6 26197.3 20772.7 26336 20884.5 26350.1C20996.4 26364.1 22366 26188.4 22468.9 26149.4C22571.8 26110.4 22454.2 25964 22454.2 25964C22454.2 25964 23476.9 26007.5 23760.6 25782.5C24044.4 25557.5 23522.9 24036.4 23207.8 23494.4Z" fill="black"/>
<path d="M20611.6 25817C20575 25831.3 20540.8 25850.9 20510 25875.2C20480.1 25903.9 20455.8 25937.9 20438.4 25975.5C20419.5 26017.1 20408.1 26061.7 20404.5 26107.2C20397.3 26145.5 20403.9 26185.1 20423 26219C20427.5 26225.4 20439.7 26219 20437.1 26212C20426.9 26176.8 20480.6 26029.2 20495.3 25994.1C20507.5 25963 20523.1 25933.4 20541.9 25905.9C20560.2 25873.7 20585.5 25846.2 20616.1 25825.3C20621.8 25822.8 20617.3 25813.8 20611.6 25817Z" fill="#263238"/>
<path d="M20910.1 25891.2C20868.5 25906.4 20829.5 25928 20794.4 25955.1C20759.9 25983.3 20731.6 26018.3 20711.3 26058C20673 26132.7 20655.1 26240.1 20711.3 26313.6C20711.6 26314.2 20711.9 26314.7 20712.4 26315.1C20712.8 26315.5 20713.3 26315.8 20713.9 26316C20714.4 26316.2 20715 26316.3 20715.6 26316.3C20716.2 26316.3 20716.8 26316.1 20717.4 26315.9C20717.9 26315.6 20718.4 26315.3 20718.8 26314.8C20719.2 26314.4 20719.5 26313.9 20719.8 26313.3C20720 26312.7 20720.1 26312.1 20720 26311.5C20720 26310.9 20719.9 26310.3 20719.6 26309.8C20708.1 26269.5 20708.1 26226.8 20719.6 26186.4C20735.9 26112.6 20769.6 26043.8 20818 25985.7C20843.4 25953.2 20875.1 25926.2 20911.4 25906.5C20920.3 25897.5 20915.8 25888.6 20910.1 25891.2Z" fill="#263238"/>
<path d="M24650.3 25193.9C24836.3 25053.2 25781.6 25119.1 26376 24494C26970.4 23868.9 26873.2 23204.9 26873.2 23204.9C26994.8 23487.9 27042.6 23797.1 27012.1 24103.6C26981.5 24410.1 26873.7 24703.9 26698.8 24957.4C26094.8 25852.2 25277.9 25893.1 25277.9 25893.1L24650.3 25193.9Z" fill="#FFC727"/>
<path d="M20413.5 19702.4C20226.8 19817.4 19022.7 20858.6 18951.1 20989C18879.5 21119.3 18624.5 21492 18528.6 21493.2C18432.8 21494.5 17999.4 20528.8 17881.8 20438C17764.2 20347.3 17125.1 20282.7 17043.3 20324.3C16961.5 20365.8 16682.2 20473.8 16712.9 20593.3C16743.5 20712.9 17376.9 20937.8 17411.4 21024.1C17445.9 21110.4 17618.5 22093.4 17768.7 22211C17918.9 22328.6 18701.2 22687.2 18878.3 22694.2C19055.3 22701.2 20887.1 22111.3 20938.2 21978.3C20989.3 21845.4 20498.5 19650 20413.5 19702.4Z" fill="#FFC727"/>
<path opacity="0.1" d="M20413.5 19702.4C20226.8 19817.4 19022.7 20858.6 18951.1 20989C18879.5 21119.3 18624.5 21492 18528.6 21493.2C18432.8 21494.5 17999.4 20528.8 17881.8 20438C17764.2 20347.3 17125.1 20282.7 17043.3 20324.3C16961.5 20365.8 16682.2 20473.8 16712.9 20593.3C16743.5 20712.9 17376.9 20937.8 17411.4 21024.1C17445.9 21110.4 17618.5 22093.4 17768.7 22211C17918.9 22328.6 18701.2 22687.2 18878.3 22694.2C19055.3 22701.2 20887.1 22111.3 20938.2 21978.3C20989.3 21845.4 20498.5 19650 20413.5 19702.4Z" fill="black"/>
<path d="M17125.1 20491.7C17061.7 20498.3 17000.5 20518.3 16945.5 20550.5C16889.9 20583.2 16847.7 20634.6 16826.6 20695.6C16826.1 20697.7 16826.2 20699.9 16827.1 20701.9C16827.9 20704 16829.3 20705.7 16831.2 20706.8C16833 20707.9 16835.2 20708.5 16837.4 20708.3C16839.5 20708.1 16841.6 20707.2 16843.2 20705.8C16928.9 20627.2 17010 20532 17127 20501.3C17128 20500.8 17128.7 20500 17129.2 20499C17129.7 20498 17129.8 20496.9 17129.6 20495.8C17129.4 20494.7 17128.8 20493.7 17128 20493C17127.2 20492.3 17126.2 20491.8 17125.1 20491.7Z" fill="#263238"/>
<path d="M17306.6 20604.8C17244.6 20612 17185.2 20634 17133.4 20668.7C17083.3 20704.7 17044.3 20754.1 17020.9 20811.3C17020.5 20813.2 17020.7 20815.2 17021.4 20817.1C17022.2 20818.9 17023.5 20820.5 17025.2 20821.5C17026.9 20822.6 17028.8 20823.1 17030.8 20822.9C17032.8 20822.8 17034.7 20822.1 17036.3 20820.9C17076.1 20780 17118.8 20742 17164.1 20707.1C17208.4 20670.3 17257.1 20639.1 17309.2 20614.4C17315.6 20611.2 17312.4 20604.8 17306.6 20604.8Z" fill="#263238"/>
<path d="M19837.6 15595.9C19503.3 15833.7 18942.8 16362.9 18694.8 16820.5C18467.9 17246.2 18162.4 17983.7 18738.9 18266.2C19357.6 18568.5 19935.4 18153.7 20125.9 17535.1C20316.3 16916.4 20334.2 16113.6 20334.2 16113.6" fill="#FFC727"/>
<path opacity="0.1" d="M19837.6 15595.9C19503.3 15833.7 18942.8 16362.9 18694.8 16820.5C18467.9 17246.2 18162.4 17983.7 18738.9 18266.2C19357.6 18568.5 19935.4 18153.7 20125.9 17535.1C20316.3 16916.4 20334.2 16113.6 20334.2 16113.6" fill="black"/>
<path d="M25387.9 25977.4C25267.1 26273.4 23140.7 26091.8 22815.3 25982.5C22639.6 25925 22192.2 25066 21743.5 24274.8C21353.6 23590.3 20943.3 22868.7 20651.2 22520.3C20366.8 22182.2 19870.2 21933 19747.5 21291.3C19747.5 20670.7 20038.9 19118.2 20003.1 19092C19967.3 19065.8 18776 18929 18381 18814.6C17986 18700.2 17515 17537 17596.8 17356.1C17678.6 17175.2 18919.8 17129.8 19086 17001.4C19252.1 16872.9 19564.7 15807.5 19895.8 15549.2C20226.8 15291 21384.3 15501.3 22004.9 15883.5C22428 16143 22976.4 18876 23241.7 19479.3C23265.3 19511.3 23297.9 19556.6 23336.2 19611C23683.9 20097.4 24575.5 21343 25061.9 21999.4C25261.3 22267.9 25366.1 23015 25410.2 23782.6C25467.1 24726 25455.6 25813.8 25387.9 25977.4Z" fill="#FFC727"/>
<path opacity="0.1" d="M20703 21042.6C20667.8 21086.7 20634 21132.1 20599.5 21176.9C20608.5 21122.8 20612 21068 20609.7 21013.2C20606.4 20955.3 20598.9 20897.6 20587.3 20840.7C20576.4 20780 20556 20722.4 20540.6 20663C20540 20660.2 20538.4 20657.7 20536.2 20655.8C20533.9 20654 20531.1 20653.1 20528.2 20653.1C20525.3 20653.1 20522.5 20654 20520.2 20655.8C20518 20657.7 20516.4 20660.2 20515.7 20663C20488.8 20742.8 20446.9 20816.8 20392.4 20880.9C20365.9 20914.5 20336.9 20945.9 20305.4 20974.9C20363.2 20791.2 20397.3 20600.9 20407.1 20408.6C20412.8 20296.5 20407.7 20184.2 20391.7 20073.1C20379.2 19963.7 20349.6 19857 20304.2 19756.7C20304.2 19751.6 20292.7 19756.7 20293.9 19759.9C20309.3 19866.6 20330.4 19972.7 20336.8 20079.5C20341.8 20190.8 20338.6 20302.3 20327.2 20413.1C20303.2 20635.1 20260.4 20854.7 20199.3 21069.5C20191.7 21096.3 20226.8 21127 20251.1 21107.2C20320 21052.5 20380.3 20987.9 20430.1 20915.5C20467.6 20858.7 20497.5 20797.2 20518.9 20732.7V20834.9C20518.9 20889.9 20522.1 20944.2 20522.1 20999.2C20521.9 21053.7 20518.5 21108.1 20511.9 21162.2C20504.9 21218.4 20493.4 21271.5 20481.9 21327.1C20480.6 21333.8 20481.8 21340.7 20485.1 21346.6C20488.4 21352.6 20493.7 21357.2 20500 21359.7C20506.4 21362.2 20513.4 21362.4 20519.8 21360.3C20526.3 21358.2 20531.9 21353.9 20535.5 21348.2C20591.8 21246.5 20657 21150 20716.4 21050.3C20720.9 21044.6 20710.7 21035 20703 21042.6Z" fill="black"/>
<path opacity="0.1" d="M24603 21796.2C24550.4 21750.6 24495.4 21707.9 24438.1 21668.4C24411.3 21646.6 24383.2 21623.6 24355.7 21599.3C24423.3 21609.4 24492.3 21601.3 24555.7 21575.7C24563.7 21573.1 24570.6 21568.1 24575.6 21561.3C24580.5 21554.5 24583.2 21546.4 24583.2 21538C24583.2 21529.6 24580.5 21521.4 24575.6 21514.7C24570.6 21507.9 24563.7 21502.8 24555.7 21500.3C24277.7 21412.5 24032.6 21242.7 23852.7 21013.2C23848.8 21008.1 23840.5 21013.2 23844.4 21018.4C23922.7 21147.9 24021.8 21263.6 24137.7 21360.9C24222.3 21429.1 24315.5 21485.7 24415.1 21529C24363.6 21531 24312.2 21523.2 24263.6 21506C24257.3 21504.4 24250.7 21504.9 24244.7 21507.5C24238.7 21510.1 24233.7 21514.6 24230.6 21520.3C24227.4 21526 24226.3 21532.6 24227.3 21539C24228.3 21545.5 24231.4 21551.4 24236.2 21555.9C24295 21606.4 24346.7 21663.2 24408.1 21711.2C24461.2 21759.3 24522.7 21797.3 24589.6 21823C24603.7 21827.5 24613.2 21807.1 24603 21796.2Z" fill="black"/>
<path d="M20347.6 17076.2C20347.6 17069.8 20359.8 17087 20358.5 17093.4C20316.3 17256.4 20299.1 17450 20449.3 17540.8C20454.4 17540.8 20449.3 17551.7 20446.1 17549.8C20253 17480.1 20279.2 17223.2 20347.6 17076.2Z" fill="#263238"/>
<path d="M20545.8 16940C20839.1 16983.5 20745.8 17515.2 20473.5 17476.9C20201.3 17438.5 20299.7 16903.6 20545.8 16940Z" fill="#263238"/>
<path d="M19526.3 16796.2C19526.3 16789.8 19511.6 16800 19509.1 16806.4C19457.3 16966.2 19372.3 17140.7 19214.4 17144.5C19210 17144.5 19207.4 17152.9 19214.4 17154.1C19390.8 17188.6 19502 16955.4 19526.3 16796.2Z" fill="#263238"/>
<path d="M19448.4 16584C19208.7 16478.6 19006.7 16980.9 19228.5 17078.7C19450.3 17176.5 19649.1 16672.2 19448.4 16584Z" fill="#263238"/>
<path d="M18058.9 18031C18083.6 18103.8 18114 18174.5 18149.6 18242.6C18167.4 18280.3 18193.6 18313.3 18226.3 18339.1C18232.6 18343 18239.5 18345.6 18246.8 18346.8C18252 18347.5 18257.3 18347.1 18262.4 18345.7C18267.4 18344.3 18272.1 18341.8 18276.2 18338.4C18286.1 18329.4 18293.2 18317.6 18296.6 18304.6C18303.6 18285.3 18308.5 18265.4 18311.3 18245.1C18322.9 18168.3 18328.4 18090.8 18328 18013.1C18328 17936.4 18326.7 17859.7 18324.1 17783L18260.2 17793.9C18289.6 17900.6 18324.1 18005.5 18362.5 18109.6C18381.6 18161.4 18402.7 18212.5 18426.4 18263.7C18448.6 18317 18478.3 18366.9 18514.6 18412C18527.1 18426.7 18544.2 18436.8 18563.2 18440.7C18579.2 18443.4 18595.6 18443.4 18611.7 18440.7C18639.7 18434.7 18667.3 18426.8 18694.2 18417.1C18746.4 18398.4 18797.6 18377.1 18847.6 18353.1C18947.3 18305.2 19045.1 18254.7 19139.7 18199.1C19038.7 18242.6 18938.3 18286.7 18835.4 18326.9C18784.3 18345.5 18733.2 18365.9 18681.4 18380.6C18656.3 18388.6 18630.7 18394.6 18604.7 18398.5C18593.7 18400.4 18582.5 18400.4 18571.5 18398.5C18566.4 18398.5 18560.6 18392.1 18552.3 18383.2C18523.5 18339.6 18499.7 18292.8 18481.3 18243.9C18460.9 18194 18443 18142.9 18425.1 18091.7C18388.7 17988.8 18356.7 17884 18325.4 17779.8L18244.9 17514L18259.6 17790.7C18263.4 17866.1 18266.6 17942.2 18269.2 18018.2C18271.7 18094.3 18272.3 18169.7 18266 18243.2C18264.6 18260.9 18261.8 18278.4 18257.6 18295.6C18256.1 18301.2 18254 18306.5 18251.3 18311.6C18256.4 18311.6 18251.3 18311.6 18248.1 18308.4C18220.1 18287.1 18196.3 18260.9 18177.8 18231.1C18132.4 18165.2 18095.9 18097.5 18058.9 18031Z" fill="#263238"/>
<path d="M18302.4 17836.7C18393.8 17848.9 18866.1 17690.4 18841.2 17572.8C18798.4 17371.4 17966.2 17223.2 17858.2 17351.6C17787.2 17435.3 18185.4 17821.4 18302.4 17836.7Z" fill="#263238"/>
<path d="M21005.9 18943.1C21011.1 18943.1 21009.1 18933.5 21005.9 18934.1C20924.8 18946.3 20843.6 18961.6 20763.1 18977.6C20682.5 18993.6 20594.3 19003.2 20507.4 19014.7C20340.6 19038.3 20175.1 19068.3 20007.6 19088.8C20006.6 19089.2 20005.8 19089.8 20005.2 19090.7C20004.6 19091.5 20004.3 19092.5 20004.3 19093.6C20004.3 19094.6 20004.6 19095.7 20005.2 19096.5C20005.8 19097.4 20006.6 19098 20007.6 19098.4C20172.2 19125.8 20340.6 19120.2 20502.9 19081.8C20589.2 19076.7 20674.9 19070.3 20758.6 19062C20766.3 19062 20765 19049.2 20758.6 19049.8C20694.7 19053.6 20634 19058.8 20571.3 19063.9C20632 19047.3 20692.8 19029.4 20753.5 19013.4C20838.5 18994.2 20922.9 18971.8 21005.9 18943.1Z" fill="#263238"/>
<path d="M22036.2 15917.4C22362.8 16165.4 22909.3 16709.9 23140 17177.1C23353.5 17609.2 23636.6 18356.3 23051.2 18620.3C22423.6 18904.1 21858.6 18471.4 21687.3 17847C21516 17222.5 21523.6 16419.8 21523.6 16419.8" fill="#FFC727"/>
<path d="M22999.4 18633.1C22686.2 18808.2 22292.5 18661.2 22066.3 18413.9C21804.2 18128.2 21703.9 17726.8 21631.7 17356.7C21586.3 17108.5 21556.2 16857.7 21541.5 16605.7C21541 16603.7 21539.8 16601.9 21538.1 16600.6C21536.4 16599.3 21534.4 16598.6 21532.3 16598.6C21530.2 16598.6 21528.1 16599.3 21526.4 16600.6C21524.8 16601.9 21523.5 16603.7 21523 16605.7C21511.9 16733.3 21510 16861.4 21517.3 16989.2C21508.9 16968.1 21500.6 16947.7 21493.6 16925.3C21468.8 16857.3 21448.7 16787.7 21433.5 16717C21433.5 16717 21427.8 16717 21428.4 16717C21432.4 16790.2 21444.2 16862.9 21463.6 16933.6C21472.7 16969.1 21484.9 17003.8 21500 17037.2C21506.8 17051.9 21514.5 17066.2 21523 17080C21529.4 17157.3 21537.1 17235.3 21547.3 17312.6C21574.8 17528.7 21625.2 17741.2 21697.5 17946.7C21760.3 18132.8 21859.1 18304.8 21988.3 18452.9C22111.3 18588.6 22272 18684.7 22449.8 18729C22543 18754.2 22640.7 18759.2 22736 18743.5C22831.4 18727.9 22922.3 18692 23002.6 18638.2C23002.7 18637.1 23002.4 18636 23001.9 18635.1C23001.3 18634.2 23000.4 18633.5 22999.4 18633.1Z" fill="#263238"/>
<path d="M20449.9 21907.4C20483.1 22155.4 20594.3 25784.4 20593.1 25834.3C20591.8 25884.1 20279.2 25990.9 20214.7 26093.8C20150.1 26196.7 20079.8 26376.3 20117.5 26426.1C20155.3 26476 20516.4 26571.8 20625 26592.9C20733.7 26614 21281.4 26496.4 21365.1 26458.1C21448.9 26419.7 21503.2 26074.6 21514.7 26032.4C21526.2 25990.2 22217.8 23400.4 22210.7 23171C22203.7 22941.5 20449.9 21907.4 20449.9 21907.4Z" fill="#FFC727"/>
<path d="M20490.8 22193.7C20478.7 21970 20456.3 21746.3 20441.6 21522.6C20441.3 21521.8 20440.7 21521.1 20439.9 21520.6C20439.2 21520.1 20438.3 21519.8 20437.4 21519.8C20436.5 21519.8 20435.7 21520.1 20434.9 21520.6C20434.2 21521.1 20433.6 21521.8 20433.3 21522.6C20433.3 21672.8 20429.4 21823.7 20433.3 21973.9C20425.6 21941.9 20417.9 21910 20410.9 21876.7C20394.3 21793.6 20380.9 21709.3 20371.9 21624.9H20366.2C20366.3 21710.6 20373.8 21796.1 20388.5 21880.6C20399.1 21942.4 20414.5 22003.3 20434.6 22062.7C20434.6 22108.1 20434.6 22152.8 20438.4 22198.2C20442.7 22420.7 20464 22642.5 20502.3 22861.6C20502.3 22863 20502.8 22864.3 20503.8 22865.3C20504.8 22866.2 20506.1 22866.8 20507.4 22866.8C20508.8 22866.8 20510.1 22866.2 20511 22865.3C20512 22864.3 20512.5 22863 20512.5 22861.6C20518 22638.8 20510.8 22415.8 20490.8 22193.7Z" fill="#263238"/>
<path d="M22550.7 22687.8C22505.4 22792.6 22458.1 22897.4 22405.7 22999.1C22387.1 23035.5 22365.4 23071.3 22344.9 23107.7C22394.2 22928.7 22442.1 22749.8 22485.6 22569.6C22485.6 22565.1 22480.4 22563.2 22479.2 22569.6C22373.1 22865.5 22278.5 23165.2 22185.2 23464.3C22138.5 23613.3 22091.8 23762.2 22051.6 23911.7C22004.7 24058.1 21968.4 24207.6 21942.9 24359.1C21942.9 24363.6 21950 24366.2 21951.9 24359.1C22013.7 24218.3 22065.6 24073.3 22107.2 23925.2C22155.1 23777.5 22197.9 23627.3 22240.8 23477.8C22267.6 23383.2 22293.8 23289.2 22320 23194.6C22332.8 23170.3 22348.1 23146.1 22362.2 23122.4C22390.3 23075.8 22416.5 23027.2 22441.4 22978.6C22489.3 22885.2 22528.4 22787.7 22558.4 22687.2C22560.3 22685.2 22553.3 22683.3 22550.7 22687.8Z" fill="#263238"/>
<path d="M20381.5 26082.9C20345.1 26098 20311.1 26118.2 20280.5 26143C20251 26172.2 20227.2 26206.7 20210.2 26244.6C20192 26286.3 20181.2 26330.9 20178.3 26376.3C20171.8 26414.7 20178.8 26454.2 20198.1 26488.1C20203.2 26494.5 20215.3 26488.1 20212.8 26481.1C20201.9 26445.9 20253 26297 20267.1 26261.9C20278.9 26230.8 20294.1 26201.3 20312.5 26173.7C20330 26140.7 20355.2 26112.4 20386 26091.2C20391.1 26088.6 20386.6 26080.3 20381.5 26082.9Z" fill="#263238"/>
<path d="M20680.6 26153.2C20639.3 26168.7 20600.6 26190.3 20565.6 26217.1C20531.6 26245.9 20504 26281.4 20484.4 26321.3C20446.7 26396.7 20430.7 26504.1 20489.5 26573.8C20489.8 26574.3 20490.1 26574.8 20490.6 26575.2C20491 26575.6 20491.5 26575.9 20492.1 26576.1C20492.7 26576.3 20493.3 26576.4 20493.9 26576.4C20494.5 26576.4 20495 26576.2 20495.6 26576C20496.1 26575.7 20496.6 26575.4 20497 26574.9C20497.4 26574.5 20497.8 26574 20498 26573.4C20498.2 26572.9 20498.3 26572.3 20498.2 26571.7C20498.2 26571.1 20498.1 26570.5 20497.8 26569.9C20486.3 26529.6 20486.3 26486.9 20497.8 26446.6C20505.6 26409.3 20517.6 26373.1 20533.6 26338.5C20549.8 26305 20570 26273.4 20593.7 26244.6C20618.3 26211.6 20649.4 26183.9 20685.1 26163.4C20690.9 26158.9 20686.4 26150.6 20680.6 26153.2Z" fill="#263238"/>
<path opacity="0.1" d="M21324.9 25042.4C21324.5 25038.2 21322.8 25034.2 21319.9 25031.2C21317 25028.1 21313.2 25026.1 21309 25025.5C21304.9 25024.9 21300.6 25025.8 21297 25027.9C21293.4 25030 21290.6 25033.3 21289.1 25037.3C21271.8 25091.4 21242.5 25141 21203.4 25182.3C21225.8 24987.4 21231.6 24785.4 21139.5 24607.1C21139 24605.8 21138 24604.8 21136.8 24604.3C21135.5 24603.8 21134.1 24603.7 21132.8 24604.2C21131.5 24604.8 21130.5 24605.7 21130 24607C21129.4 24608.3 21129.4 24609.7 21129.9 24611C21199.6 24819.3 21163.8 25043.7 21129.9 25255.8C21129.1 25262 21130.1 25268.4 21132.9 25274C21135.6 25279.6 21139.9 25284.3 21145.3 25287.5C21150.7 25290.7 21156.9 25292.3 21163.1 25292C21169.3 25291.7 21175.4 25289.6 21180.4 25285.9C21228.5 25255.4 21267.6 25212.6 21293.6 25161.9C21297.4 25238.6 21301.9 25315.3 21311.5 25390.7C21311.5 25402.8 21333.2 25404.1 21333.8 25390.7C21337 25275 21329.3 25158.1 21324.9 25042.4Z" fill="black"/>
<path d="M24508.4 23712.3C24298.1 23361.4 22793.6 22219.9 22215.8 22565.1C21638 22910.2 21391.3 24602 22520.1 25879C22520.1 25879 21960.2 25960.2 21847.7 26024.1C21735.2 26088 21592 26327.7 21636.1 26393.5C21680.2 26459.3 22114.8 26591 22226.7 26603.8C22338.5 26616.6 23705.7 26419.1 23808.6 26378.8C23911.5 26338.5 23790.7 26194.1 23790.7 26194.1C23790.7 26194.1 24813.3 26221.6 25094.5 25992.1C25375.7 25762.7 24830.5 24247.9 24508.4 23712.3Z" fill="#FFC727"/>
<path d="M21948 26074.6C21911.7 26089.7 21877.7 26109.9 21847.1 26134.7C21817.5 26163.5 21793.9 26197.8 21777.4 26235.7C21758.5 26277.4 21747.7 26322.2 21745.4 26368C21739 26406.4 21746 26445.9 21765.2 26479.8C21766.6 26480.9 21768.2 26481.6 21769.9 26481.8C21771.6 26482 21773.3 26481.8 21774.9 26481C21776.4 26480.3 21777.7 26479.1 21778.6 26477.6C21779.5 26476.2 21780 26474.5 21779.9 26472.8C21768.4 26437 21819.6 26288.7 21834.3 26253.5C21845.9 26222.3 21861.1 26192.5 21879.6 26164.7C21897.4 26132.2 21922.3 26104.2 21952.5 26082.9C21953.1 26082.6 21953.5 26082.2 21953.9 26081.7C21954.3 26081.2 21954.6 26080.7 21954.8 26080.1C21955 26079.5 21955 26078.9 21955 26078.3C21954.9 26077.6 21954.7 26077 21954.4 26076.5C21954.1 26076 21953.7 26075.5 21953.3 26075.1C21952.8 26074.7 21952.2 26074.4 21951.6 26074.2C21951 26074 21950.4 26074 21949.8 26074C21949.2 26074.1 21948.6 26074.3 21948 26074.6Z" fill="#263238"/>
<path d="M22247.8 26144.3C22206.4 26159.6 22167.6 26181.2 22132.7 26208.2C22098.3 26236.6 22070.4 26272.1 22050.9 26312.3C22013.9 26387.8 21997.9 26495.1 22056.7 26568C22056.7 26568 22066.3 26568 22064.4 26563.5C22053.2 26523.4 22053.2 26481 22064.4 26440.8C22072 26403.5 22084 26367.3 22100.1 26332.8C22116.2 26299.1 22136.2 26267.3 22159.6 26238.2C22184.2 26205.2 22215.6 26177.7 22251.6 26157.7C22258 26150.6 22253.5 26141.7 22247.8 26144.3Z" fill="#263238"/>
<path d="M24323.1 23493.1C24199.7 23351.8 24064.6 23221.1 23919.1 23102.6L23953.7 23117.9C24022 23151.8 24089.8 23186.3 24156.9 23222.8C24161.4 23222.8 24167.1 23218.9 24163.3 23215.1C24109.1 23159.4 24043.7 23115.9 23971.5 23087.3C23934.8 23073 23897.2 23060.8 23859.1 23050.8H23853.3C23683.1 22918.4 23500.6 22802.9 23308.1 22705.7C22957.9 22528 22477.2 22322.2 22139.8 22638.6C21990.2 22778.6 21900.7 22979.2 21837.5 23173.5C21765.7 23397 21727.1 23629.8 21723.1 23864.4C21723.1 24334.7 21823.6 24799.5 22017.7 25227.7C22104.6 25445 22239.9 25639.5 22413.3 25796.6C22497 25868.4 22588.8 25930.2 22686.9 25980.6C22787.1 26028.9 22892.3 26066 23000.7 26091.2C23006.4 26091.2 23009.6 26082.9 23003.9 26081.6C22821.5 26024.5 22653.1 25929.5 22509.8 25803C22358.8 25674.9 22235.2 25517.7 22146.2 25340.9C22047.2 25138.4 21968.4 24926.7 21911 24708.7C21850.8 24495.8 21813.8 24277 21800.4 24056.2C21785.9 23827.9 21804 23598.7 21854.1 23375.5C21894.8 23169.9 21975.8 22974.4 22092.5 22800.3C22144.3 22720.7 22215.5 22655.5 22299.3 22610.8C22383.1 22566.1 22476.9 22543.3 22571.8 22544.6C22778.3 22549.7 22978.3 22637.3 23165 22719.7C23590.6 22910.4 23979.9 23173.6 24315.4 23497.6C24320.5 23505.9 24328.2 23498.2 24323.1 23493.1Z" fill="#263238"/>
<path d="M23729.3 26009.4C23731.7 25977.2 23728.9 25944.8 23721 25913.5C23710.7 25873 23696.8 25833.4 23679.5 25795.3C23679.5 25790.8 23670.5 25795.3 23671.8 25799.1C23683.1 25838.6 23692 25878.7 23698.6 25919.3C23698.6 25934 23703.1 25948 23705.7 25962.1C23705.7 25957 23701.2 25951.9 23698.6 25947.4C23654.5 25866.9 23607.9 25787.6 23559.9 25709.6C23559.9 25709.6 23553.6 25709.6 23554.8 25709.6C23590 25795.3 23624.5 25881.6 23661.6 25965.3C23679.5 26006.8 23699.3 26047.7 23720.4 26088.6C23734.9 26125.6 23757.9 26158.6 23787.5 26185.2C23788.3 26185.6 23789.1 26185.8 23790 26185.8C23790.9 26185.8 23791.8 26185.6 23792.6 26185.1C23793.4 26184.7 23794 26184 23794.5 26183.3C23794.9 26182.5 23795.2 26181.6 23795.1 26180.7C23791.9 26139.9 23779.5 26100.3 23758.7 26065C23749.1 26048.4 23738.9 26029.2 23729.3 26009.4Z" fill="#263238"/>
<path opacity="0.1" d="M24495 23980.1C24406.6 23966 24320.6 23939.7 24239.3 23902.2C24160.2 23857.2 24090.3 23797.6 24033.5 23726.4C24029.1 23721.9 24022.7 23726.4 24026.5 23734.1C24081.5 23810.2 24147.4 23877.8 24222.1 23934.7C24269.6 23965.3 24320.7 23990 24374.2 24008.3C24349.8 24013 24325 24015.6 24300.1 24015.9C24275.3 24018.7 24250.3 24015.3 24227.3 24006C24204.2 23996.8 24183.7 23981.9 24167.8 23962.9C24162 23953.3 24144.8 23962.9 24149.2 23971.2C24186.8 24074.9 24255.9 24164.3 24346.7 24226.8C24312.8 24226.1 24279.1 24220 24247 24208.9C24238.1 24208.9 24233 24219.2 24241.3 24223.6C24302.5 24257.4 24372.1 24273.1 24442 24269C24448 24268.5 24453.7 24266.1 24458.2 24262.2C24462.8 24258.2 24466 24253 24467.5 24247.1C24468.9 24241.2 24468.4 24235.1 24466.1 24229.5C24463.8 24223.9 24459.9 24219.2 24454.7 24216C24398.2 24185.3 24344.1 24150.3 24293 24111.2C24270.1 24091.5 24248.8 24070.1 24229.1 24047.2C24316.2 24077.2 24411.2 24074.2 24496.3 24038.9C24502.3 24036.6 24507.4 24032.5 24510.9 24027.1C24514.5 24021.8 24516.3 24015.5 24516.2 24009.1C24516 24002.7 24513.9 23996.4 24510.1 23991.3C24506.4 23986.1 24501.1 23982.2 24495 23980.1Z" fill="black"/>
</svg>
